<svg width="188" height="30" viewBox="0 0 188 30" fill="none" xmlns="http://www.w3.org/2000/svg">
<path d="M36.276 20.112C35.548 20.112 34.9087 19.972 34.358 19.692C33.8074 19.4027 33.3827 19.0013 33.084 18.488C32.7854 17.9747 32.636 17.382 32.636 16.71V13.476C32.636 12.804 32.7854 12.2113 33.084 11.698C33.3827 11.1847 33.8074 10.788 34.358 10.508C34.9087 10.228 35.548 10.088 36.276 10.088C36.9947 10.088 37.6247 10.2233 38.166 10.494C38.7167 10.7553 39.1414 11.1333 39.44 11.628C39.748 12.1133 39.902 12.678 39.902 13.322C39.902 13.406 39.846 13.4573 39.734 13.476L38.096 13.574H38.068C37.9747 13.574 37.928 13.5227 37.928 13.42C37.928 12.9253 37.774 12.5287 37.466 12.23C37.1674 11.9313 36.7707 11.782 36.276 11.782C35.772 11.782 35.366 11.9313 35.058 12.23C34.7594 12.5287 34.61 12.9253 34.61 13.42V16.794C34.61 17.2793 34.7594 17.6713 35.058 17.97C35.366 18.2687 35.772 18.418 36.276 18.418C36.7707 18.418 37.1674 18.2687 37.466 17.97C37.774 17.6713 37.928 17.2793 37.928 16.794C37.928 16.6913 37.984 16.64 38.096 16.64L39.734 16.71C39.7807 16.71 39.818 16.724 39.846 16.752C39.8834 16.78 39.902 16.8127 39.902 16.85C39.902 17.494 39.748 18.0633 39.44 18.558C39.1414 19.0527 38.7167 19.4353 38.166 19.706C37.6247 19.9767 36.9947 20.112 36.276 20.112ZM44.7096 20.112C43.9629 20.112 43.3096 19.9953 42.7496 19.762C42.1896 19.5193 41.7556 19.1787 41.4476 18.74C41.1489 18.292 40.9996 17.774 40.9996 17.186V16.878C40.9996 16.8313 41.0136 16.794 41.0416 16.766C41.0789 16.7287 41.1209 16.71 41.1676 16.71H42.7636C42.8103 16.71 42.8476 16.7287 42.8756 16.766C42.9129 16.794 42.9316 16.8313 42.9316 16.878V17.088C42.9316 17.4613 43.1043 17.7787 43.4496 18.04C43.7949 18.292 44.2616 18.418 44.8496 18.418C45.3443 18.418 45.7129 18.3153 45.9556 18.11C46.1983 17.8953 46.3196 17.634 46.3196 17.326C46.3196 17.102 46.2449 16.9153 46.0956 16.766C45.9463 16.6073 45.7409 16.472 45.4796 16.36C45.2276 16.2387 44.8216 16.0753 44.2616 15.87C43.6363 15.6553 43.1043 15.436 42.6656 15.212C42.2363 14.988 41.8723 14.6847 41.5736 14.302C41.2843 13.91 41.1396 13.4293 41.1396 12.86C41.1396 12.3 41.2843 11.81 41.5736 11.39C41.8629 10.97 42.2643 10.648 42.7776 10.424C43.2909 10.2 43.8836 10.088 44.5556 10.088C45.2649 10.088 45.8949 10.214 46.4456 10.466C47.0056 10.718 47.4396 11.0727 47.7476 11.53C48.0649 11.978 48.2236 12.5007 48.2236 13.098V13.308C48.2236 13.3547 48.2049 13.3967 48.1676 13.434C48.1396 13.462 48.1023 13.476 48.0556 13.476H46.4456C46.3989 13.476 46.3569 13.462 46.3196 13.434C46.2916 13.3967 46.2776 13.3547 46.2776 13.308V13.196C46.2776 12.804 46.1143 12.4727 45.7876 12.202C45.4703 11.922 45.0316 11.782 44.4716 11.782C44.0329 11.782 43.6876 11.8753 43.4356 12.062C43.1929 12.2487 43.0716 12.5053 43.0716 12.832C43.0716 13.0653 43.1416 13.2613 43.2816 13.42C43.4309 13.5787 43.6456 13.7233 43.9256 13.854C44.2149 13.9753 44.6583 14.1433 45.2556 14.358C45.9183 14.6007 46.4363 14.8153 46.8096 15.002C47.1923 15.1887 47.5329 15.4687 47.8316 15.842C48.1396 16.206 48.2936 16.682 48.2936 17.27C48.2936 18.1473 47.9716 18.8427 47.3276 19.356C46.6836 19.86 45.8109 20.112 44.7096 20.112ZM53.0358 20.112C52.2891 20.112 51.6358 19.9953 51.0758 19.762C50.5158 19.5193 50.0818 19.1787 49.7738 18.74C49.4751 18.292 49.3258 17.774 49.3258 17.186V16.878C49.3258 16.8313 49.3398 16.794 49.3678 16.766C49.4051 16.7287 49.4471 16.71 49.4938 16.71H51.0898C51.1364 16.71 51.1738 16.7287 51.2018 16.766C51.2391 16.794 51.2578 16.8313 51.2578 16.878V17.088C51.2578 17.4613 51.4304 17.7787 51.7758 18.04C52.1211 18.292 52.5878 18.418 53.1758 18.418C53.6704 18.418 54.0391 18.3153 54.2818 18.11C54.5244 17.8953 54.6458 17.634 54.6458 17.326C54.6458 17.102 54.5711 16.9153 54.4218 16.766C54.2724 16.6073 54.0671 16.472 53.8058 16.36C53.5538 16.2387 53.1478 16.0753 52.5878 15.87C51.9624 15.6553 51.4304 15.436 50.9918 15.212C50.5624 14.988 50.1984 14.6847 49.8998 14.302C49.6104 13.91 49.4658 13.4293 49.4658 12.86C49.4658 12.3 49.6104 11.81 49.8998 11.39C50.1891 10.97 50.5904 10.648 51.1038 10.424C51.6171 10.2 52.2098 10.088 52.8818 10.088C53.5911 10.088 54.2211 10.214 54.7718 10.466C55.3318 10.718 55.7658 11.0727 56.0738 11.53C56.3911 11.978 56.5498 12.5007 56.5498 13.098V13.308C56.5498 13.3547 56.5311 13.3967 56.4938 13.434C56.4658 13.462 56.4284 13.476 56.3818 13.476H54.7718C54.7251 13.476 54.6831 13.462 54.6458 13.434C54.6178 13.3967 54.6038 13.3547 54.6038 13.308V13.196C54.6038 12.804 54.4404 12.4727 54.1138 12.202C53.7964 11.922 53.3578 11.782 52.7978 11.782C52.3591 11.782 52.0138 11.8753 51.7618 12.062C51.5191 12.2487 51.3978 12.5053 51.3978 12.832C51.3978 13.0653 51.4678 13.2613 51.6078 13.42C51.7571 13.5787 51.9718 13.7233 52.2518 13.854C52.5411 13.9753 52.9844 14.1433 53.5818 14.358C54.2444 14.6007 54.7624 14.8153 55.1358 15.002C55.5184 15.1887 55.8591 15.4687 56.1578 15.842C56.4658 16.206 56.6198 16.682 56.6198 17.27C56.6198 18.1473 56.2978 18.8427 55.6538 19.356C55.0098 19.86 54.1371 20.112 53.0358 20.112ZM66.6287 15.324C66.8154 15.7533 66.9087 16.248 66.9087 16.808C66.9087 17.312 66.8247 17.7787 66.6567 18.208C66.4327 18.8053 66.0547 19.272 65.5227 19.608C65 19.944 64.3794 20.112 63.6607 20.112C62.9514 20.112 62.326 19.9347 61.7847 19.58C61.2527 19.2253 60.87 18.7447 60.6367 18.138C60.506 17.774 60.4314 17.382 60.4127 16.962C60.4127 16.85 60.4687 16.794 60.5807 16.794H62.2327C62.3447 16.794 62.4007 16.85 62.4007 16.962C62.438 17.27 62.4894 17.4987 62.5547 17.648C62.6387 17.8907 62.774 18.082 62.9607 18.222C63.1567 18.3527 63.3854 18.418 63.6467 18.418C64.1694 18.418 64.5287 18.1893 64.7247 17.732C64.8554 17.452 64.9207 17.1253 64.9207 16.752C64.9207 16.3133 64.8507 15.954 64.7107 15.674C64.496 15.2353 64.1367 15.016 63.6327 15.016C63.53 15.016 63.4227 15.0487 63.3107 15.114C63.1987 15.17 63.0634 15.254 62.9047 15.366C62.8674 15.394 62.83 15.408 62.7927 15.408C62.7367 15.408 62.6947 15.38 62.6667 15.324L61.8407 14.162C61.822 14.134 61.8127 14.1013 61.8127 14.064C61.8127 14.008 61.8314 13.9613 61.8687 13.924L64.0947 11.978C64.1134 11.9593 64.118 11.9407 64.1087 11.922C64.1087 11.9033 64.0947 11.894 64.0667 11.894H60.7767C60.73 11.894 60.688 11.88 60.6507 11.852C60.6227 11.8147 60.6087 11.7727 60.6087 11.726V10.368C60.6087 10.3213 60.6227 10.284 60.6507 10.256C60.688 10.2187 60.73 10.2 60.7767 10.2H66.6147C66.6614 10.2 66.6987 10.2187 66.7267 10.256C66.764 10.284 66.7827 10.3213 66.7827 10.368V11.908C66.7827 11.9827 66.75 12.0527 66.6847 12.118L64.8507 13.798C64.832 13.8167 64.8227 13.8353 64.8227 13.854C64.832 13.8727 64.8554 13.882 64.8927 13.882C65.7047 14.0407 66.2834 14.5213 66.6287 15.324Z" fill="white"/>
<path d="M0 1.625H22.5L20.4492 24.8281L11.25 27.875L1.99219 24.8281L0 1.625ZM18.3398 6.3125H4.10156L4.45312 9.125H11.6602L11.3086 9.24219L4.74609 11.9961L4.92188 14.6914L14.707 14.75L14.4727 18.3828L11.25 19.2617L8.20312 18.5L7.96875 16.2148H5.15625L5.50781 20.5508L11.3086 22.25L17.0508 20.6094L17.8125 11.9961H11.25H11.3086L18.0469 9.125L18.3398 6.3125Z" fill="white"/>
<path fill-rule="evenodd" clip-rule="evenodd" d="M181.652 18.6281C181.557 18.7164 181.481 18.8229 181.428 18.9412C181.376 19.0595 181.347 19.1871 181.345 19.3166C181.343 19.4461 181.367 19.5747 181.415 19.6948C181.463 19.8148 181.536 19.9239 181.627 20.0155C181.719 20.107 181.828 20.1792 181.948 20.2277C182.068 20.2762 182.196 20.3001 182.325 20.2978C182.455 20.2955 182.582 20.2671 182.701 20.2144C182.819 20.1617 182.925 20.0857 183.013 19.991L187.189 15.8124L187.871 15.131L187.19 14.4496L183.015 10.271C182.833 10.0953 182.59 9.99796 182.337 10C182.084 10.0021 181.843 10.1034 181.664 10.2821C181.485 10.4608 181.384 10.7026 181.381 10.9555C181.379 11.2083 181.476 11.4519 181.652 11.6339L184.183 14.1667H170.847C170.592 14.1667 170.347 14.2683 170.166 14.4492C169.985 14.63 169.884 14.8753 169.884 15.131C169.884 15.3868 169.985 15.632 170.166 15.8129C170.347 15.9937 170.592 16.0953 170.847 16.0953H184.183L181.652 18.6281Z" fill="white"/>
</svg>
