<svg width="190" height="24" viewBox="0 0 190 24" fill="none" xmlns="http://www.w3.org/2000/svg">
<path fill-rule="evenodd" clip-rule="evenodd" d="M183.519 16.7852C183.422 16.8955 183.345 17.0286 183.291 17.1765C183.237 17.3243 183.208 17.4839 183.206 17.6458C183.203 17.8076 183.228 17.9684 183.277 18.1185C183.327 18.2686 183.4 18.4049 183.494 18.5194C183.587 18.6338 183.699 18.724 183.821 18.7847C183.944 18.8453 184.075 18.8751 184.207 18.8722C184.339 18.8694 184.469 18.8339 184.59 18.768C184.711 18.7022 184.819 18.6072 184.91 18.4888L189.174 13.2655L189.87 12.4138L189.175 11.562L184.911 6.33876C184.725 6.11908 184.477 5.99744 184.219 6.00004C183.961 6.00264 183.714 6.12926 183.531 6.35264C183.349 6.57602 183.245 6.87828 183.243 7.19432C183.241 7.51036 183.34 7.81489 183.519 8.04233L186.103 11.2084H172.486C172.225 11.2084 171.975 11.3354 171.79 11.5614C171.606 11.7875 171.502 12.0941 171.502 12.4138C171.502 12.7334 171.606 13.04 171.79 13.2661C171.975 13.4921 172.225 13.6191 172.486 13.6191H186.103L183.519 16.7852Z" fill="white"/>
<path d="M35.7843 17.112C35.0657 17.112 34.431 16.9673 33.8803 16.678C33.3297 16.3887 32.9003 15.9873 32.5923 15.474C32.2937 14.9513 32.1443 14.3493 32.1443 13.668V10.532C32.1443 9.85067 32.2937 9.24867 32.5923 8.726C32.9003 8.20333 33.3297 7.802 33.8803 7.522C34.431 7.23267 35.0657 7.088 35.7843 7.088C36.4937 7.088 37.119 7.228 37.6603 7.508C38.211 7.788 38.6357 8.17067 38.9343 8.656C39.2423 9.132 39.3963 9.664 39.3963 10.252V10.35C39.3963 10.3967 39.3777 10.4387 39.3403 10.476C39.3123 10.504 39.275 10.518 39.2283 10.518H37.5903C37.5437 10.518 37.5017 10.504 37.4643 10.476C37.4363 10.4387 37.4223 10.3967 37.4223 10.35V10.308C37.4223 9.87867 37.273 9.51933 36.9743 9.23C36.6757 8.93133 36.279 8.782 35.7843 8.782C35.2803 8.782 34.8743 8.94067 34.5663 9.258C34.2677 9.566 34.1183 9.972 34.1183 10.476V13.724C34.1183 14.228 34.2817 14.6387 34.6083 14.956C34.935 15.264 35.3503 15.418 35.8543 15.418C36.3397 15.418 36.727 15.292 37.0163 15.04C37.3057 14.7787 37.4503 14.4193 37.4503 13.962V13.332C37.4503 13.2853 37.427 13.262 37.3803 13.262H35.8123C35.7657 13.262 35.7237 13.248 35.6863 13.22C35.6583 13.1827 35.6443 13.1407 35.6443 13.094V11.806C35.6443 11.7593 35.6583 11.722 35.6863 11.694C35.7237 11.6567 35.7657 11.638 35.8123 11.638H39.2283C39.275 11.638 39.3123 11.6567 39.3403 11.694C39.3777 11.722 39.3963 11.7593 39.3963 11.806V13.654C39.3963 14.3633 39.247 14.9793 38.9483 15.502C38.6497 16.0247 38.225 16.426 37.6743 16.706C37.133 16.9767 36.503 17.112 35.7843 17.112ZM41.8506 8.992C41.5333 8.992 41.2673 8.88933 41.0526 8.684C40.8473 8.46933 40.7446 8.20333 40.7446 7.886C40.7446 7.55933 40.8473 7.29333 41.0526 7.088C41.2579 6.88267 41.5239 6.78 41.8506 6.78C42.1773 6.78 42.4433 6.88267 42.6486 7.088C42.8539 7.29333 42.9566 7.55933 42.9566 7.886C42.9566 8.20333 42.8493 8.46933 42.6346 8.684C42.4293 8.88933 42.1679 8.992 41.8506 8.992ZM41.0106 17C40.9639 17 40.9219 16.986 40.8846 16.958C40.8566 16.9207 40.8426 16.8787 40.8426 16.832V9.958C40.8426 9.91133 40.8566 9.874 40.8846 9.846C40.9219 9.80867 40.9639 9.79 41.0106 9.79H42.6486C42.6953 9.79 42.7326 9.80867 42.7606 9.846C42.7979 9.874 42.8166 9.91133 42.8166 9.958V16.832C42.8166 16.8787 42.7979 16.9207 42.7606 16.958C42.7326 16.986 42.6953 17 42.6486 17H41.0106ZM48.485 11.218C48.485 11.2647 48.4663 11.3067 48.429 11.344C48.401 11.372 48.3636 11.386 48.317 11.386H46.973C46.9263 11.386 46.903 11.4093 46.903 11.456V14.424C46.903 14.732 46.9636 14.9607 47.085 15.11C47.2156 15.2593 47.421 15.334 47.701 15.334H48.163C48.2096 15.334 48.247 15.3527 48.275 15.39C48.3123 15.418 48.331 15.4553 48.331 15.502V16.832C48.331 16.9347 48.275 16.9953 48.163 17.014C47.771 17.0327 47.491 17.042 47.323 17.042C46.5483 17.042 45.9696 16.916 45.587 16.664C45.2043 16.4027 45.0083 15.9173 44.999 15.208V11.456C44.999 11.4093 44.9756 11.386 44.929 11.386H44.131C44.0843 11.386 44.0423 11.372 44.005 11.344C43.977 11.3067 43.963 11.2647 43.963 11.218V9.972C43.963 9.92533 43.977 9.888 44.005 9.86C44.0423 9.82267 44.0843 9.804 44.131 9.804H44.929C44.9756 9.804 44.999 9.78067 44.999 9.734V8.068C44.999 8.02133 45.013 7.984 45.041 7.956C45.0783 7.91867 45.1203 7.9 45.167 7.9H46.735C46.7816 7.9 46.819 7.91867 46.847 7.956C46.8843 7.984 46.903 8.02133 46.903 8.068V9.734C46.903 9.78067 46.9263 9.804 46.973 9.804H48.317C48.3636 9.804 48.401 9.82267 48.429 9.86C48.4663 9.888 48.485 9.92533 48.485 9.972V11.218Z" fill="white"/>
<path d="M0.711046 10.3067L7.64749 3.35352L9.67562 5.39505C9.38761 6.41581 9.85564 7.53265 10.7917 8.07305V14.726C10.0717 15.1344 9.59162 15.9149 9.59162 16.8036C9.59162 17.4406 9.84449 18.0515 10.2946 18.5019C10.7447 18.9524 11.3552 19.2054 11.9918 19.2054C12.6283 19.2054 13.2388 18.9524 13.6889 18.5019C14.1391 18.0515 14.3919 17.4406 14.3919 16.8036C14.3919 15.9149 13.9119 15.1344 13.1919 14.726V8.88967L15.676 11.3996C15.592 11.5797 15.592 11.7838 15.592 12C15.592 12.637 15.8449 13.2479 16.295 13.6983C16.7451 14.1488 17.3556 14.4018 17.9922 14.4018C18.6287 14.4018 19.2392 14.1488 19.6893 13.6983C20.1394 13.2479 20.3923 12.637 20.3923 12C20.3923 11.363 20.1394 10.7521 19.6893 10.3017C19.2392 9.85125 18.6287 9.5982 17.9922 9.5982C17.7761 9.5982 17.5721 9.5982 17.3921 9.68226L14.3079 6.59595C14.4569 6.03973 14.3992 5.4483 14.1453 4.93149C13.8915 4.41467 13.4589 4.00759 12.9278 3.78584C12.4118 3.5937 11.8718 3.54566 11.3917 3.67776L9.3516 1.64824L10.2997 0.711534C11.2357 -0.237178 12.7478 -0.237178 13.6839 0.711534L23.2725 10.3067C24.2206 11.2434 24.2206 12.7566 23.2725 13.6933L13.6839 23.2885C12.7478 24.2372 11.2357 24.2372 10.2997 23.2885L0.711046 13.6933C-0.237015 12.7566 -0.237015 11.2434 0.711046 10.3067Z" fill="#F8F8F8"/>
</svg>
