<svg width="191" height="24" viewBox="0 0 191 24" fill="none" xmlns="http://www.w3.org/2000/svg">
<path fill-rule="evenodd" clip-rule="evenodd" d="M184.518 15.7852C184.421 15.8955 184.344 16.0286 184.29 16.1765C184.236 16.3243 184.207 16.4839 184.205 16.6458C184.202 16.8076 184.227 16.9684 184.276 17.1185C184.326 17.2686 184.399 17.4049 184.493 17.5194C184.586 17.6338 184.698 17.724 184.82 17.7847C184.943 17.8453 185.074 17.8751 185.206 17.8722C185.338 17.8694 185.468 17.8339 185.589 17.768C185.71 17.7022 185.818 17.6072 185.909 17.4888L190.173 12.2655L190.869 11.4138L190.174 10.562L185.91 5.33876C185.724 5.11908 185.476 4.99744 185.218 5.00004C184.96 5.00264 184.713 5.12926 184.53 5.35264C184.348 5.57602 184.244 5.87828 184.242 6.19432C184.24 6.51036 184.339 6.81489 184.518 7.04233L187.103 10.2084H173.485C173.224 10.2084 172.974 10.3354 172.789 10.5614C172.605 10.7875 172.501 11.0941 172.501 11.4138C172.501 11.7334 172.605 12.04 172.789 12.2661C172.974 12.4921 173.224 12.6191 173.485 12.6191H187.103L184.518 15.7852Z" fill="white"/>
<path d="M36.7834 17.112C36.0647 17.112 35.43 16.9673 34.8794 16.678C34.3287 16.3887 33.8994 15.9873 33.5914 15.474C33.2927 14.9513 33.1434 14.3493 33.1434 13.668V10.532C33.1434 9.85067 33.2927 9.24867 33.5914 8.726C33.8994 8.20333 34.3287 7.802 34.8794 7.522C35.43 7.23267 36.0647 7.088 36.7834 7.088C37.4927 7.088 38.118 7.228 38.6594 7.508C39.21 7.788 39.6347 8.17067 39.9334 8.656C40.2414 9.132 40.3954 9.664 40.3954 10.252V10.35C40.3954 10.3967 40.3767 10.4387 40.3394 10.476C40.3114 10.504 40.274 10.518 40.2274 10.518H38.5894C38.5427 10.518 38.5007 10.504 38.4634 10.476C38.4354 10.4387 38.4214 10.3967 38.4214 10.35V10.308C38.4214 9.87867 38.272 9.51933 37.9734 9.23C37.6747 8.93133 37.278 8.782 36.7834 8.782C36.2794 8.782 35.8734 8.94067 35.5654 9.258C35.2667 9.566 35.1174 9.972 35.1174 10.476V13.724C35.1174 14.228 35.2807 14.6387 35.6074 14.956C35.934 15.264 36.3494 15.418 36.8534 15.418C37.3387 15.418 37.726 15.292 38.0154 15.04C38.3047 14.7787 38.4494 14.4193 38.4494 13.962V13.332C38.4494 13.2853 38.426 13.262 38.3794 13.262H36.8114C36.7647 13.262 36.7227 13.248 36.6854 13.22C36.6574 13.1827 36.6434 13.1407 36.6434 13.094V11.806C36.6434 11.7593 36.6574 11.722 36.6854 11.694C36.7227 11.6567 36.7647 11.638 36.8114 11.638H40.2274C40.274 11.638 40.3114 11.6567 40.3394 11.694C40.3767 11.722 40.3954 11.7593 40.3954 11.806V13.654C40.3954 14.3633 40.246 14.9793 39.9474 15.502C39.6487 16.0247 39.224 16.426 38.6734 16.706C38.132 16.9767 37.502 17.112 36.7834 17.112ZM42.8496 8.992C42.5323 8.992 42.2663 8.88933 42.0516 8.684C41.8463 8.46933 41.7436 8.20333 41.7436 7.886C41.7436 7.55933 41.8463 7.29333 42.0516 7.088C42.257 6.88267 42.523 6.78 42.8496 6.78C43.1763 6.78 43.4423 6.88267 43.6476 7.088C43.853 7.29333 43.9556 7.55933 43.9556 7.886C43.9556 8.20333 43.8483 8.46933 43.6336 8.684C43.4283 8.88933 43.167 8.992 42.8496 8.992ZM42.0096 17C41.963 17 41.921 16.986 41.8836 16.958C41.8556 16.9207 41.8416 16.8787 41.8416 16.832V9.958C41.8416 9.91133 41.8556 9.874 41.8836 9.846C41.921 9.80867 41.963 9.79 42.0096 9.79H43.6476C43.6943 9.79 43.7316 9.80867 43.7596 9.846C43.797 9.874 43.8156 9.91133 43.8156 9.958V16.832C43.8156 16.8787 43.797 16.9207 43.7596 16.958C43.7316 16.986 43.6943 17 43.6476 17H42.0096ZM49.484 11.218C49.484 11.2647 49.4653 11.3067 49.428 11.344C49.4 11.372 49.3626 11.386 49.316 11.386H47.972C47.9253 11.386 47.902 11.4093 47.902 11.456V14.424C47.902 14.732 47.9626 14.9607 48.084 15.11C48.2146 15.2593 48.42 15.334 48.7 15.334H49.162C49.2086 15.334 49.246 15.3527 49.274 15.39C49.3113 15.418 49.33 15.4553 49.33 15.502V16.832C49.33 16.9347 49.274 16.9953 49.162 17.014C48.77 17.0327 48.49 17.042 48.322 17.042C47.5473 17.042 46.9686 16.916 46.586 16.664C46.2033 16.4027 46.0073 15.9173 45.998 15.208V11.456C45.998 11.4093 45.9746 11.386 45.928 11.386H45.13C45.0833 11.386 45.0413 11.372 45.004 11.344C44.976 11.3067 44.962 11.2647 44.962 11.218V9.972C44.962 9.92533 44.976 9.888 45.004 9.86C45.0413 9.82267 45.0833 9.804 45.13 9.804H45.928C45.9746 9.804 45.998 9.78067 45.998 9.734V8.068C45.998 8.02133 46.012 7.984 46.04 7.956C46.0773 7.91867 46.1193 7.9 46.166 7.9H47.734C47.7806 7.9 47.818 7.91867 47.846 7.956C47.8833 7.984 47.902 8.02133 47.902 8.068V9.734C47.902 9.78067 47.9253 9.804 47.972 9.804H49.316C49.3626 9.804 49.4 9.82267 49.428 9.86C49.4653 9.888 49.484 9.92533 49.484 9.972V11.218ZM56.0063 7.368C56.0063 7.32133 56.0203 7.284 56.0483 7.256C56.0857 7.21867 56.1277 7.2 56.1743 7.2H57.8123C57.859 7.2 57.8963 7.21867 57.9243 7.256C57.9617 7.284 57.9803 7.32133 57.9803 7.368V16.832C57.9803 16.8787 57.9617 16.9207 57.9243 16.958C57.8963 16.986 57.859 17 57.8123 17H56.1743C56.1277 17 56.0857 16.986 56.0483 16.958C56.0203 16.9207 56.0063 16.8787 56.0063 16.832V12.968C56.0063 12.9213 55.983 12.898 55.9363 12.898H52.8423C52.7957 12.898 52.7723 12.9213 52.7723 12.968V16.832C52.7723 16.8787 52.7537 16.9207 52.7163 16.958C52.6883 16.986 52.651 17 52.6043 17H50.9663C50.9197 17 50.8777 16.986 50.8403 16.958C50.8123 16.9207 50.7983 16.8787 50.7983 16.832V7.368C50.7983 7.32133 50.8123 7.284 50.8403 7.256C50.8777 7.21867 50.9197 7.2 50.9663 7.2H52.6043C52.651 7.2 52.6883 7.21867 52.7163 7.256C52.7537 7.284 52.7723 7.32133 52.7723 7.368V11.134C52.7723 11.1807 52.7957 11.204 52.8423 11.204H55.9363C55.983 11.204 56.0063 11.1807 56.0063 11.134V7.368ZM63.6634 9.972C63.6634 9.92533 63.6774 9.888 63.7054 9.86C63.7427 9.82267 63.7847 9.804 63.8314 9.804H65.4694C65.516 9.804 65.5534 9.82267 65.5814 9.86C65.6187 9.888 65.6374 9.92533 65.6374 9.972V16.832C65.6374 16.8787 65.6187 16.9207 65.5814 16.958C65.5534 16.986 65.516 17 65.4694 17H63.8314C63.7847 17 63.7427 16.986 63.7054 16.958C63.6774 16.9207 63.6634 16.8787 63.6634 16.832V16.356C63.6634 16.328 63.654 16.314 63.6354 16.314C63.6167 16.3047 63.598 16.314 63.5794 16.342C63.206 16.846 62.6274 17.098 61.8434 17.098C61.134 17.098 60.5507 16.8833 60.0934 16.454C59.636 16.0247 59.4074 15.4227 59.4074 14.648V9.972C59.4074 9.92533 59.4214 9.888 59.4494 9.86C59.4867 9.82267 59.5287 9.804 59.5754 9.804H61.1994C61.246 9.804 61.2834 9.82267 61.3114 9.86C61.3487 9.888 61.3674 9.92533 61.3674 9.972V14.158C61.3674 14.5313 61.4654 14.8347 61.6614 15.068C61.8667 15.3013 62.1467 15.418 62.5014 15.418C62.8187 15.418 63.08 15.3247 63.2854 15.138C63.4907 14.942 63.6167 14.69 63.6634 14.382V9.972ZM73.4623 11.638C73.6396 12.1233 73.7283 12.702 73.7283 13.374C73.7283 14.018 73.6489 14.5827 73.4903 15.068C73.2756 15.7027 72.9303 16.202 72.4543 16.566C71.9876 16.93 71.4323 17.112 70.7883 17.112C70.1069 17.112 69.5703 16.8553 69.1783 16.342C69.1596 16.3233 69.1409 16.3187 69.1223 16.328C69.1036 16.328 69.0943 16.342 69.0943 16.37V16.832C69.0943 16.8787 69.0756 16.9207 69.0383 16.958C69.0103 16.986 68.9729 17 68.9263 17H67.2883C67.2416 17 67.1996 16.986 67.1623 16.958C67.1343 16.9207 67.1203 16.8787 67.1203 16.832V7.368C67.1203 7.32133 67.1343 7.284 67.1623 7.256C67.1996 7.21867 67.2416 7.2 67.2883 7.2H68.9263C68.9729 7.2 69.0103 7.21867 69.0383 7.256C69.0756 7.284 69.0943 7.32133 69.0943 7.368V10.364C69.0943 10.392 69.1036 10.4107 69.1223 10.42C69.1409 10.4293 69.1596 10.42 69.1783 10.392C69.5423 9.92533 70.0603 9.692 70.7323 9.692C71.4136 9.692 71.9829 9.86933 72.4403 10.224C72.9069 10.5693 73.2476 11.0407 73.4623 11.638ZM71.3903 14.816C71.5863 14.4613 71.6843 13.9947 71.6843 13.416C71.6843 12.772 71.5723 12.2773 71.3483 11.932C71.1243 11.568 70.7929 11.386 70.3543 11.386C69.9436 11.386 69.6309 11.568 69.4163 11.932C69.2109 12.2867 69.1083 12.7767 69.1083 13.402C69.1083 14.0273 69.2016 14.4987 69.3883 14.816C69.6123 15.2173 69.9389 15.418 70.3683 15.418C70.8256 15.418 71.1663 15.2173 71.3903 14.816Z" fill="white"/>
<path d="M11.9918 0C10.417 0 8.85763 0.310389 7.40272 0.913446C5.94781 1.5165 4.62585 2.40042 3.51231 3.51472C1.26342 5.76515 0 8.8174 0 12C0 17.304 3.44164 21.804 8.20237 23.4C8.80196 23.496 8.99383 23.124 8.99383 22.8V20.772C5.67211 21.492 4.96459 19.164 4.96459 19.164C4.41297 17.772 3.63351 17.4 3.63351 17.4C2.54226 16.656 3.71745 16.68 3.71745 16.68C4.91663 16.764 5.55219 17.916 5.55219 17.916C6.59548 19.74 8.35827 19.2 9.0418 18.912C9.14972 18.132 9.46151 17.604 9.79728 17.304C7.13511 17.004 4.34102 15.972 4.34102 11.4C4.34102 10.068 4.79671 9 5.57618 8.148C5.45626 7.848 5.03655 6.6 5.69609 4.98C5.69609 4.98 6.7034 4.656 8.99383 6.204C9.94118 5.94 10.9725 5.808 11.9918 5.808C13.0111 5.808 14.0424 5.94 14.9897 6.204C17.2801 4.656 18.2875 4.98 18.2875 4.98C18.947 6.6 18.5273 7.848 18.4074 8.148C19.1868 9 19.6425 10.068 19.6425 11.4C19.6425 15.984 16.8365 16.992 14.1623 17.292C14.594 17.664 14.9897 18.396 14.9897 19.512V22.8C14.9897 23.124 15.1816 23.508 15.7932 23.4C20.5539 21.792 23.9836 17.304 23.9836 12C23.9836 10.4241 23.6734 8.8637 23.0707 7.4078C22.4681 5.95189 21.5848 4.62902 20.4712 3.51472C19.3577 2.40042 18.0357 1.5165 16.5808 0.913446C15.1259 0.310389 13.5666 0 11.9918 0Z" fill="#F8F8F8"/>
</svg>
