<svg width="199" height="36" viewBox="0 0 199 36" fill="none" xmlns="http://www.w3.org/2000/svg">
<g filter="url(#filter0_d_59_53)">
<path d="M42.04 10.368C42.04 10.3213 42.054 10.284 42.082 10.256C42.1194 10.2187 42.1614 10.2 42.208 10.2H43.846C43.8927 10.2 43.93 10.2187 43.958 10.256C43.9954 10.284 44.014 10.3213 44.014 10.368V19.832C44.014 19.8787 43.9954 19.9207 43.958 19.958C43.93 19.986 43.8927 20 43.846 20H42.208C42.1614 20 42.1194 19.986 42.082 19.958C42.054 19.9207 42.04 19.8787 42.04 19.832V15.968C42.04 15.9213 42.0167 15.898 41.97 15.898H38.876C38.8294 15.898 38.806 15.9213 38.806 15.968V19.832C38.806 19.8787 38.7874 19.9207 38.75 19.958C38.722 19.986 38.6847 20 38.638 20H37C36.9534 20 36.9114 19.986 36.874 19.958C36.846 19.9207 36.832 19.8787 36.832 19.832V10.368C36.832 10.3213 36.846 10.284 36.874 10.256C36.9114 10.2187 36.9534 10.2 37 10.2H38.638C38.6847 10.2 38.722 10.2187 38.75 10.256C38.7874 10.284 38.806 10.3213 38.806 10.368V14.134C38.806 14.1807 38.8294 14.204 38.876 14.204H41.97C42.0167 14.204 42.04 14.1807 42.04 14.134V10.368ZM52.385 10.2C52.4317 10.2 52.469 10.2187 52.497 10.256C52.5344 10.284 52.553 10.3213 52.553 10.368V11.74C52.553 11.7867 52.5344 11.8287 52.497 11.866C52.469 11.894 52.4317 11.908 52.385 11.908H49.879C49.8324 11.908 49.809 11.9313 49.809 11.978V19.832C49.809 19.8787 49.7904 19.9207 49.753 19.958C49.725 19.986 49.6877 20 49.641 20H48.003C47.9564 20 47.9144 19.986 47.877 19.958C47.849 19.9207 47.835 19.8787 47.835 19.832V11.978C47.835 11.9313 47.8117 11.908 47.765 11.908H45.329C45.2824 11.908 45.2404 11.894 45.203 11.866C45.175 11.8287 45.161 11.7867 45.161 11.74V10.368C45.161 10.3213 45.175 10.284 45.203 10.256C45.2404 10.2187 45.2824 10.2 45.329 10.2H52.385ZM60.1125 10.312C60.1592 10.2373 60.2245 10.2 60.3085 10.2H61.9465C61.9932 10.2 62.0305 10.2187 62.0585 10.256C62.0958 10.284 62.1145 10.3213 62.1145 10.368V19.832C62.1145 19.8787 62.0958 19.9207 62.0585 19.958C62.0305 19.986 61.9932 20 61.9465 20H60.3085C60.2618 20 60.2198 19.986 60.1825 19.958C60.1545 19.9207 60.1405 19.8787 60.1405 19.832V13.658C60.1405 13.6207 60.1312 13.602 60.1125 13.602C60.0938 13.602 60.0752 13.616 60.0565 13.644L58.5725 15.968C58.5258 16.0427 58.4605 16.08 58.3765 16.08H57.5505C57.4665 16.08 57.4012 16.0427 57.3545 15.968L55.8705 13.644C55.8518 13.616 55.8332 13.6067 55.8145 13.616C55.7958 13.616 55.7865 13.6347 55.7865 13.672V19.832C55.7865 19.8787 55.7678 19.9207 55.7305 19.958C55.7025 19.986 55.6652 20 55.6185 20H53.9805C53.9338 20 53.8918 19.986 53.8545 19.958C53.8265 19.9207 53.8125 19.8787 53.8125 19.832V10.368C53.8125 10.3213 53.8265 10.284 53.8545 10.256C53.8918 10.2187 53.9338 10.2 53.9805 10.2H55.6185C55.7025 10.2 55.7678 10.2373 55.8145 10.312L57.9145 13.574C57.9425 13.63 57.9705 13.63 57.9985 13.574L60.1125 10.312ZM63.9883 20C63.9416 20 63.8996 19.986 63.8623 19.958C63.8343 19.9207 63.8203 19.8787 63.8203 19.832V10.368C63.8203 10.3213 63.8343 10.284 63.8623 10.256C63.8996 10.2187 63.9416 10.2 63.9883 10.2H65.6263C65.673 10.2 65.7103 10.2187 65.7383 10.256C65.7756 10.284 65.7943 10.3213 65.7943 10.368V18.236C65.7943 18.2827 65.8176 18.306 65.8643 18.306H70.4423C70.489 18.306 70.5263 18.3247 70.5543 18.362C70.5916 18.39 70.6103 18.4273 70.6103 18.474V19.832C70.6103 19.8787 70.5916 19.9207 70.5543 19.958C70.5263 19.986 70.489 20 70.4423 20H63.9883ZM80.6548 15.534C80.7948 15.9913 80.8648 16.4347 80.8648 16.864C80.8648 17.34 80.7901 17.7693 80.6408 18.152C80.4261 18.7493 80.0481 19.2253 79.5068 19.58C78.9654 19.9253 78.3308 20.098 77.6028 20.098C76.8934 20.098 76.2681 19.93 75.7268 19.594C75.1948 19.2487 74.8168 18.782 74.5928 18.194C74.4994 17.9513 74.4294 17.6947 74.3828 17.424V17.396C74.3828 17.2933 74.4388 17.242 74.5508 17.242H76.2448C76.3381 17.242 76.3988 17.2933 76.4268 17.396C76.4361 17.452 76.4501 17.4987 76.4688 17.536C76.4874 17.5733 76.5014 17.606 76.5108 17.634C76.6041 17.8767 76.7441 18.0633 76.9308 18.194C77.1174 18.3247 77.3368 18.39 77.5888 18.39C77.8501 18.39 78.0788 18.32 78.2748 18.18C78.4708 18.04 78.6154 17.844 78.7088 17.592C78.8021 17.4053 78.8488 17.1627 78.8488 16.864C78.8488 16.5933 78.8068 16.3507 78.7228 16.136C78.6574 15.8933 78.5268 15.7067 78.3308 15.576C78.1348 15.4453 77.9061 15.38 77.6448 15.38C77.3834 15.38 77.1408 15.4407 76.9168 15.562C76.6928 15.6833 76.5434 15.842 76.4688 16.038C76.4408 16.1313 76.3801 16.178 76.2868 16.178H74.5648C74.5181 16.178 74.4761 16.164 74.4388 16.136C74.4108 16.0987 74.3968 16.0567 74.3968 16.01V10.368C74.3968 10.3213 74.4108 10.284 74.4388 10.256C74.4761 10.2187 74.5181 10.2 74.5648 10.2H80.3468C80.3934 10.2 80.4308 10.2187 80.4588 10.256C80.4961 10.284 80.5148 10.3213 80.5148 10.368V11.726C80.5148 11.7727 80.4961 11.8147 80.4588 11.852C80.4308 11.88 80.3934 11.894 80.3468 11.894H76.4408C76.3941 11.894 76.3708 11.9173 76.3708 11.964L76.3568 14.036C76.3568 14.1013 76.3848 14.1153 76.4408 14.078C76.8608 13.8073 77.3461 13.672 77.8968 13.672C78.5501 13.672 79.1194 13.84 79.6048 14.176C80.0994 14.5027 80.4494 14.9553 80.6548 15.534Z" fill="white"/>
<path d="M4 1.625H26.5L24.4492 24.8281L15.1914 27.875L5.99219 24.8281L4 1.625ZM22.0469 9.125L22.2812 6.37109H8.16016L8.92188 14.8672H18.707L18.3555 18.5L15.1914 19.3789L12.0859 18.5L11.8516 16.2734H9.03906L9.39062 20.7266L15.1914 22.3086H15.25L20.9922 20.7266L21.8125 12.0547H11.5L11.2656 9.125H22.0469Z" fill="white"/>
<path fill-rule="evenodd" clip-rule="evenodd" d="M188.65 18.6281C188.555 18.7164 188.479 18.8229 188.426 18.9412C188.374 19.0595 188.345 19.1871 188.343 19.3166C188.341 19.4461 188.365 19.5747 188.413 19.6948C188.462 19.8148 188.534 19.9239 188.625 20.0155C188.717 20.107 188.826 20.1792 188.946 20.2277C189.066 20.2762 189.194 20.3001 189.324 20.2978C189.453 20.2955 189.581 20.2671 189.699 20.2144C189.817 20.1617 189.923 20.0857 190.012 19.991L194.187 15.8124L194.869 15.131L194.189 14.4496L190.013 10.271C189.831 10.0953 189.588 9.99796 189.335 10C189.082 10.0021 188.841 10.1034 188.662 10.2821C188.483 10.4608 188.382 10.7026 188.379 10.9555C188.377 11.2083 188.474 11.4519 188.65 11.6339L191.181 14.1667H177.845C177.59 14.1667 177.345 14.2683 177.164 14.4492C176.983 14.63 176.882 14.8753 176.882 15.131C176.882 15.3868 176.983 15.632 177.164 15.8129C177.345 15.9937 177.59 16.0953 177.845 16.0953H191.181L188.65 18.6281Z" fill="white"/>
</g>
<defs>
<filter id="filter0_d_59_53" x="0" y="1.625" width="198.87" height="34.25" filterUnits="userSpaceOnUse" color-interpolation-filters="sRGB">
<feFlood flood-opacity="0" result="BackgroundImageFix"/>
<feColorMatrix in="SourceAlpha" type="matrix" values="0 0 0 0 0 0 0 0 0 0 0 0 0 0 0 0 0 0 127 0" result="hardAlpha"/>
<feOffset dy="4"/>
<feGaussianBlur stdDeviation="2"/>
<feComposite in2="hardAlpha" operator="out"/>
<feColorMatrix type="matrix" values="0 0 0 0 0 0 0 0 0 0 0 0 0 0 0 0 0 0 0.25 0"/>
<feBlend mode="normal" in2="BackgroundImageFix" result="effect1_dropShadow_59_53"/>
<feBlend mode="normal" in="SourceGraphic" in2="effect1_dropShadow_59_53" result="shape"/>
</filter>
</defs>
</svg>
