<svg width="186" height="25" viewBox="0 0 186 25" fill="none" xmlns="http://www.w3.org/2000/svg">
<path d="M36.758 17.112C36.0487 17.112 35.428 16.9813 34.896 16.72C34.3734 16.4493 33.9674 16.076 33.678 15.6C33.3887 15.1147 33.244 14.5547 33.244 13.92V13.038C33.244 12.9913 33.258 12.954 33.286 12.926C33.3234 12.8887 33.3654 12.87 33.412 12.87H35.05C35.0967 12.87 35.134 12.8887 35.162 12.926C35.1994 12.954 35.218 12.9913 35.218 13.038V13.92C35.218 14.368 35.3534 14.732 35.624 15.012C35.904 15.2827 36.282 15.418 36.758 15.418C37.2154 15.418 37.5887 15.2827 37.878 15.012C38.1767 14.732 38.326 14.368 38.326 13.92V7.368C38.326 7.32133 38.34 7.284 38.368 7.256C38.4054 7.21867 38.4474 7.2 38.494 7.2H40.118C40.1647 7.2 40.202 7.21867 40.23 7.256C40.2674 7.284 40.286 7.32133 40.286 7.368V13.92C40.286 14.5547 40.1367 15.1147 39.838 15.6C39.5394 16.076 39.124 16.4493 38.592 16.72C38.06 16.9813 37.4487 17.112 36.758 17.112ZM44.7381 9.692C45.3448 9.692 45.8861 9.79933 46.3621 10.014C46.8381 10.2193 47.2068 10.504 47.4681 10.868C47.7388 11.232 47.8741 11.638 47.8741 12.086V16.832C47.8741 16.8787 47.8555 16.9207 47.8181 16.958C47.7901 16.986 47.7528 17 47.7061 17H46.0681C46.0215 17 45.9795 16.986 45.9421 16.958C45.9141 16.9207 45.9001 16.8787 45.9001 16.832V16.37C45.9001 16.342 45.8908 16.3233 45.8721 16.314C45.8535 16.3047 45.8348 16.314 45.8161 16.342C45.4241 16.8553 44.7941 17.112 43.9261 17.112C43.1981 17.112 42.6101 16.9347 42.1621 16.58C41.7141 16.2253 41.4901 15.7027 41.4901 15.012C41.4901 14.2933 41.7421 13.738 42.2461 13.346C42.7501 12.9447 43.4688 12.744 44.4021 12.744H45.8301C45.8768 12.744 45.9001 12.7207 45.9001 12.674V12.366C45.9001 12.058 45.8068 11.82 45.6201 11.652C45.4335 11.4747 45.1535 11.386 44.7801 11.386C44.4908 11.386 44.2481 11.4373 44.0521 11.54C43.8655 11.6427 43.7441 11.7873 43.6881 11.974C43.6601 12.0767 43.5995 12.1233 43.5061 12.114L41.8121 11.89C41.7001 11.8713 41.6488 11.8293 41.6581 11.764C41.6955 11.372 41.8495 11.0173 42.1201 10.7C42.4001 10.3827 42.7641 10.1353 43.2121 9.958C43.6695 9.78067 44.1781 9.692 44.7381 9.692ZM44.4581 15.642C44.8595 15.642 45.2001 15.5347 45.4801 15.32C45.7601 15.1053 45.9001 14.83 45.9001 14.494V13.99C45.9001 13.9433 45.8768 13.92 45.8301 13.92H44.8221C44.4021 13.92 44.0708 13.9993 43.8281 14.158C43.5948 14.3167 43.4781 14.5407 43.4781 14.83C43.4781 15.082 43.5668 15.2827 43.7441 15.432C43.9215 15.572 44.1595 15.642 44.4581 15.642ZM51.0752 17C50.9819 17 50.9212 16.9533 50.8932 16.86L48.6532 9.986C48.6439 9.96733 48.6392 9.944 48.6392 9.916C48.6392 9.832 48.6905 9.79 48.7932 9.79H50.5992C50.7019 9.79 50.7672 9.83667 50.7952 9.93L51.9432 14.172C51.9525 14.2 51.9665 14.214 51.9852 14.214C52.0039 14.214 52.0179 14.2 52.0272 14.172L53.1752 9.93C53.2032 9.83667 53.2685 9.79 53.3712 9.79L55.1772 9.818C55.2332 9.818 55.2752 9.83667 55.3032 9.874C55.3312 9.902 55.3359 9.94867 55.3172 10.014L53.0912 16.86C53.0632 16.9533 53.0025 17 52.9092 17H51.0752ZM58.8338 9.692C59.4405 9.692 59.9818 9.79933 60.4578 10.014C60.9338 10.2193 61.3025 10.504 61.5638 10.868C61.8345 11.232 61.9698 11.638 61.9698 12.086V16.832C61.9698 16.8787 61.9512 16.9207 61.9138 16.958C61.8858 16.986 61.8485 17 61.8018 17H60.1638C60.1172 17 60.0752 16.986 60.0378 16.958C60.0098 16.9207 59.9958 16.8787 59.9958 16.832V16.37C59.9958 16.342 59.9865 16.3233 59.9678 16.314C59.9492 16.3047 59.9305 16.314 59.9118 16.342C59.5198 16.8553 58.8898 17.112 58.0218 17.112C57.2938 17.112 56.7058 16.9347 56.2578 16.58C55.8098 16.2253 55.5858 15.7027 55.5858 15.012C55.5858 14.2933 55.8378 13.738 56.3418 13.346C56.8458 12.9447 57.5645 12.744 58.4978 12.744H59.9258C59.9725 12.744 59.9958 12.7207 59.9958 12.674V12.366C59.9958 12.058 59.9025 11.82 59.7158 11.652C59.5292 11.4747 59.2492 11.386 58.8758 11.386C58.5865 11.386 58.3438 11.4373 58.1478 11.54C57.9612 11.6427 57.8398 11.7873 57.7838 11.974C57.7558 12.0767 57.6952 12.1233 57.6018 12.114L55.9078 11.89C55.7958 11.8713 55.7445 11.8293 55.7538 11.764C55.7912 11.372 55.9452 11.0173 56.2158 10.7C56.4958 10.3827 56.8598 10.1353 57.3078 9.958C57.7652 9.78067 58.2738 9.692 58.8338 9.692ZM58.5538 15.642C58.9552 15.642 59.2958 15.5347 59.5758 15.32C59.8558 15.1053 59.9958 14.83 59.9958 14.494V13.99C59.9958 13.9433 59.9725 13.92 59.9258 13.92H58.9178C58.4978 13.92 58.1665 13.9993 57.9238 14.158C57.6905 14.3167 57.5738 14.5407 57.5738 14.83C57.5738 15.082 57.6625 15.2827 57.8398 15.432C58.0172 15.572 58.2552 15.642 58.5538 15.642ZM66.8463 17.112C66.0997 17.112 65.4463 16.9953 64.8863 16.762C64.3263 16.5193 63.8923 16.1787 63.5843 15.74C63.2857 15.292 63.1363 14.774 63.1363 14.186V13.878C63.1363 13.8313 63.1503 13.794 63.1783 13.766C63.2157 13.7287 63.2577 13.71 63.3043 13.71H64.9003C64.947 13.71 64.9843 13.7287 65.0123 13.766C65.0497 13.794 65.0683 13.8313 65.0683 13.878V14.088C65.0683 14.4613 65.241 14.7787 65.5863 15.04C65.9317 15.292 66.3983 15.418 66.9863 15.418C67.481 15.418 67.8497 15.3153 68.0923 15.11C68.335 14.8953 68.4563 14.634 68.4563 14.326C68.4563 14.102 68.3817 13.9153 68.2323 13.766C68.083 13.6073 67.8777 13.472 67.6163 13.36C67.3643 13.2387 66.9583 13.0753 66.3983 12.87C65.773 12.6553 65.241 12.436 64.8023 12.212C64.373 11.988 64.009 11.6847 63.7103 11.302C63.421 10.91 63.2763 10.4293 63.2763 9.86C63.2763 9.3 63.421 8.81 63.7103 8.39C63.9997 7.97 64.401 7.648 64.9143 7.424C65.4277 7.2 66.0203 7.088 66.6923 7.088C67.4017 7.088 68.0317 7.214 68.5823 7.466C69.1423 7.718 69.5763 8.07267 69.8843 8.53C70.2017 8.978 70.3603 9.50067 70.3603 10.098V10.308C70.3603 10.3547 70.3417 10.3967 70.3043 10.434C70.2763 10.462 70.239 10.476 70.1923 10.476H68.5823C68.5357 10.476 68.4937 10.462 68.4563 10.434C68.4283 10.3967 68.4143 10.3547 68.4143 10.308V10.196C68.4143 9.804 68.251 9.47267 67.9243 9.202C67.607 8.922 67.1683 8.782 66.6083 8.782C66.1697 8.782 65.8243 8.87533 65.5723 9.062C65.3297 9.24867 65.2083 9.50533 65.2083 9.832C65.2083 10.0653 65.2783 10.2613 65.4183 10.42C65.5677 10.5787 65.7823 10.7233 66.0623 10.854C66.3517 10.9753 66.795 11.1433 67.3923 11.358C68.055 11.6007 68.573 11.8153 68.9463 12.002C69.329 12.1887 69.6697 12.4687 69.9683 12.842C70.2763 13.206 70.4303 13.682 70.4303 14.27C70.4303 15.1473 70.1083 15.8427 69.4643 16.356C68.8203 16.86 67.9477 17.112 66.8463 17.112ZM74.8505 17.112C74.1038 17.112 73.4552 16.9253 72.9045 16.552C72.3632 16.1787 71.9758 15.6653 71.7425 15.012C71.5838 14.5453 71.5045 13.9947 71.5045 13.36C71.5045 12.7347 71.5838 12.1933 71.7425 11.736C71.9665 11.1013 72.3538 10.602 72.9045 10.238C73.4552 9.874 74.1038 9.692 74.8505 9.692C75.5972 9.692 76.2505 9.87867 76.8105 10.252C77.3798 10.6253 77.7578 11.0967 77.9445 11.666C78.0192 11.89 78.0565 12.058 78.0565 12.17V12.198C78.0565 12.282 78.0098 12.3333 77.9165 12.352L76.3065 12.59H76.2785C76.1945 12.59 76.1385 12.5433 76.1105 12.45L76.0685 12.226C76.0032 11.9833 75.8585 11.7827 75.6345 11.624C75.4105 11.4653 75.1445 11.386 74.8365 11.386C74.5378 11.386 74.2858 11.4607 74.0805 11.61C73.8752 11.7593 73.7305 11.9647 73.6465 12.226C73.5438 12.506 73.4925 12.8887 73.4925 13.374C73.4925 13.8593 73.5392 14.242 73.6325 14.522C73.7165 14.802 73.8612 15.0213 74.0665 15.18C74.2812 15.3387 74.5378 15.418 74.8365 15.418C75.1258 15.418 75.3778 15.3433 75.5925 15.194C75.8165 15.0353 75.9705 14.8207 76.0545 14.55C76.0638 14.5313 76.0685 14.5033 76.0685 14.466C76.0778 14.4567 76.0825 14.4427 76.0825 14.424C76.0918 14.312 76.1572 14.2653 76.2785 14.284L77.8885 14.536C77.9818 14.5547 78.0285 14.606 78.0285 14.69C78.0285 14.7647 78.0005 14.9047 77.9445 15.11C77.7485 15.7353 77.3658 16.2253 76.7965 16.58C76.2365 16.9347 75.5878 17.112 74.8505 17.112ZM82.79 9.706C83.126 9.706 83.392 9.77133 83.588 9.902C83.6627 9.93933 83.6907 10.0093 83.672 10.112L83.378 11.708C83.3687 11.82 83.3034 11.8527 83.182 11.806C83.042 11.7593 82.8787 11.736 82.692 11.736C82.6174 11.736 82.5147 11.7453 82.384 11.764C82.048 11.792 81.7634 11.918 81.53 12.142C81.2967 12.3567 81.18 12.646 81.18 13.01V16.832C81.18 16.8787 81.1614 16.9207 81.124 16.958C81.096 16.986 81.0587 17 81.012 17H79.374C79.3274 17 79.2854 16.986 79.248 16.958C79.22 16.9207 79.206 16.8787 79.206 16.832V9.972C79.206 9.92533 79.22 9.888 79.248 9.86C79.2854 9.82267 79.3274 9.804 79.374 9.804H81.012C81.0587 9.804 81.096 9.82267 81.124 9.86C81.1614 9.888 81.18 9.92533 81.18 9.972V10.504C81.18 10.532 81.1894 10.5507 81.208 10.56C81.2267 10.5693 81.2407 10.5647 81.25 10.546C81.6327 9.986 82.146 9.706 82.79 9.706ZM85.6294 8.992C85.3121 8.992 85.0461 8.88933 84.8314 8.684C84.6261 8.46933 84.5234 8.20333 84.5234 7.886C84.5234 7.55933 84.6261 7.29333 84.8314 7.088C85.0367 6.88267 85.3027 6.78 85.6294 6.78C85.9561 6.78 86.2221 6.88267 86.4274 7.088C86.6327 7.29333 86.7354 7.55933 86.7354 7.886C86.7354 8.20333 86.6281 8.46933 86.4134 8.684C86.2081 8.88933 85.9467 8.992 85.6294 8.992ZM84.7894 17C84.7427 17 84.7007 16.986 84.6634 16.958C84.6354 16.9207 84.6214 16.8787 84.6214 16.832V9.958C84.6214 9.91133 84.6354 9.874 84.6634 9.846C84.7007 9.80867 84.7427 9.79 84.7894 9.79H86.4274C86.4741 9.79 86.5114 9.80867 86.5394 9.846C86.5767 9.874 86.5954 9.91133 86.5954 9.958V16.832C86.5954 16.8787 86.5767 16.9207 86.5394 16.958C86.5114 16.986 86.4741 17 86.4274 17H84.7894ZM94.5598 11.736C94.7278 12.212 94.8118 12.772 94.8118 13.416C94.8118 14.06 94.7231 14.6433 94.5458 15.166C94.3311 15.7633 93.9904 16.2393 93.5238 16.594C93.0664 16.9393 92.4971 17.112 91.8158 17.112C91.1438 17.112 90.6211 16.8787 90.2478 16.412C90.2291 16.384 90.2104 16.3747 90.1918 16.384C90.1731 16.3933 90.1638 16.412 90.1638 16.44V19.436C90.1638 19.4827 90.1451 19.52 90.1078 19.548C90.0798 19.5853 90.0424 19.604 89.9958 19.604H88.3578C88.3111 19.604 88.2691 19.5853 88.2318 19.548C88.2038 19.52 88.1898 19.4827 88.1898 19.436V9.972C88.1898 9.92533 88.2038 9.888 88.2318 9.86C88.2691 9.82267 88.3111 9.804 88.3578 9.804H89.9958C90.0424 9.804 90.0798 9.82267 90.1078 9.86C90.1451 9.888 90.1638 9.92533 90.1638 9.972V10.434C90.1638 10.462 90.1731 10.4807 90.1918 10.49C90.2104 10.49 90.2291 10.4807 90.2478 10.462C90.6398 9.94867 91.1811 9.692 91.8718 9.692C92.5158 9.692 93.0711 9.874 93.5378 10.238C94.0138 10.5927 94.3544 11.092 94.5598 11.736ZM92.4178 14.872C92.6511 14.508 92.7678 14.0133 92.7678 13.388C92.7678 12.8 92.6698 12.3333 92.4738 11.988C92.2591 11.5867 91.9138 11.386 91.4378 11.386C91.0084 11.386 90.6864 11.5867 90.4718 11.988C90.2758 12.324 90.1778 12.7953 90.1778 13.402C90.1778 14.0273 90.2804 14.5127 90.4858 14.858C90.7004 15.2313 91.0178 15.418 91.4378 15.418C91.8578 15.418 92.1844 15.236 92.4178 14.872ZM100.221 11.218C100.221 11.2647 100.202 11.3067 100.165 11.344C100.137 11.372 100.099 11.386 100.053 11.386H98.7088C98.6621 11.386 98.6388 11.4093 98.6388 11.456V14.424C98.6388 14.732 98.6995 14.9607 98.8208 15.11C98.9515 15.2593 99.1568 15.334 99.4368 15.334H99.8988C99.9455 15.334 99.9828 15.3527 100.011 15.39C100.048 15.418 100.067 15.4553 100.067 15.502V16.832C100.067 16.9347 100.011 16.9953 99.8988 17.014C99.5068 17.0327 99.2268 17.042 99.0588 17.042C98.2841 17.042 97.7055 16.916 97.3228 16.664C96.9401 16.4027 96.7441 15.9173 96.7348 15.208V11.456C96.7348 11.4093 96.7115 11.386 96.6648 11.386H95.8668C95.8201 11.386 95.7781 11.372 95.7408 11.344C95.7128 11.3067 95.6988 11.2647 95.6988 11.218V9.972C95.6988 9.92533 95.7128 9.888 95.7408 9.86C95.7781 9.82267 95.8201 9.804 95.8668 9.804H96.6648C96.7115 9.804 96.7348 9.78067 96.7348 9.734V8.068C96.7348 8.02133 96.7488 7.984 96.7768 7.956C96.8141 7.91867 96.8561 7.9 96.9028 7.9H98.4708C98.5175 7.9 98.5548 7.91867 98.5828 7.956C98.6201 7.984 98.6388 8.02133 98.6388 8.068V9.734C98.6388 9.78067 98.6621 9.804 98.7088 9.804H100.053C100.099 9.804 100.137 9.82267 100.165 9.86C100.202 9.888 100.221 9.92533 100.221 9.972V11.218Z" fill="white"/>
<path d="M22.1171 0.25C23.539 0.25 24.7421 1.45312 24.7421 2.875V22.125C24.7421 23.6016 23.539 24.75 22.1171 24.75H2.86712C1.39056 24.75 0.242118 23.6016 0.242118 22.125V2.875C0.242118 1.45312 1.39056 0.25 2.86712 0.25H22.1171ZM13.5312 19.3906V11.5156H11.2343V19.3359C11.2343 20.4844 10.7421 20.8125 10.0312 20.8125C9.21087 20.8125 8.88274 20.2656 8.55462 19.6094L6.64056 20.7578C7.18743 21.9062 8.28118 22.8359 10.0859 22.8359C12.164 22.8359 13.5312 21.7422 13.5312 19.3906ZM18.9999 22.8359C21.1874 22.8359 22.8281 21.7422 22.8281 19.6641C22.8281 17.75 21.7343 16.875 19.7656 16.0547L19.164 15.7812C18.1796 15.3438 17.7421 15.0703 17.7421 14.3594C17.7421 13.8125 18.1796 13.375 18.8359 13.375C19.5468 13.375 19.9296 13.7031 20.3671 14.3594L22.1171 13.2109C21.4062 11.8984 20.3124 11.4062 18.8906 11.4062C16.8124 11.4062 15.4999 12.7188 15.4999 14.4141C15.4999 16.3281 16.5937 17.2031 18.2343 17.9141L18.8359 18.1328C19.8749 18.625 20.5312 18.8984 20.5312 19.6641C20.5312 20.3203 19.8749 20.8125 18.9452 20.8125C17.7968 20.8125 17.1952 20.2109 16.7031 19.4453L14.789 20.4844C15.4999 21.8516 16.8671 22.8359 18.9999 22.8359Z" fill="white"/>
<path fill-rule="evenodd" clip-rule="evenodd" d="M179.654 15.6281C179.559 15.7164 179.483 15.8229 179.43 15.9412C179.378 16.0595 179.349 16.1871 179.347 16.3166C179.345 16.4461 179.368 16.5747 179.417 16.6948C179.465 16.8148 179.538 16.9239 179.629 17.0155C179.721 17.107 179.83 17.1792 179.95 17.2277C180.07 17.2762 180.198 17.3001 180.327 17.2978C180.457 17.2955 180.584 17.2671 180.703 17.2144C180.821 17.1617 180.927 17.0857 181.015 16.991L185.191 12.8124L185.873 12.131L185.192 11.4496L181.017 7.27101C180.835 7.09527 180.592 6.99796 180.339 7.00003C180.086 7.00211 179.845 7.10341 179.666 7.28211C179.487 7.46081 179.386 7.70262 179.383 7.95545C179.381 8.20829 179.478 8.45191 179.654 8.63386L182.185 11.1667H168.849C168.594 11.1667 168.349 11.2683 168.168 11.4492C167.987 11.63 167.886 11.8753 167.886 12.131C167.886 12.3868 167.987 12.632 168.168 12.8129C168.349 12.9937 168.594 13.0953 168.849 13.0953H182.185L179.654 15.6281Z" fill="white"/>
</svg>
