<svg width="194" height="36" viewBox="0 0 194 36" fill="none" xmlns="http://www.w3.org/2000/svg">
<g filter="url(#filter0_d_59_64)">
<path d="M43.4595 8.368C43.4595 8.32133 43.4735 8.284 43.5015 8.256C43.5389 8.21867 43.5809 8.2 43.6275 8.2H45.2655C45.3122 8.2 45.3495 8.21867 45.3775 8.256C45.4149 8.284 45.4335 8.32133 45.4335 8.368V17.832C45.4335 17.8787 45.4149 17.9207 45.3775 17.958C45.3495 17.986 45.3122 18 45.2655 18H43.6835C43.5902 18 43.5249 17.9627 43.4875 17.888L39.8615 11.896C39.8429 11.868 39.8242 11.8587 39.8055 11.868C39.7869 11.868 39.7775 11.8867 39.7775 11.924L39.8055 17.832C39.8055 17.8787 39.7869 17.9207 39.7495 17.958C39.7215 17.986 39.6842 18 39.6375 18H37.9995C37.9529 18 37.9109 17.986 37.8735 17.958C37.8455 17.9207 37.8315 17.8787 37.8315 17.832V8.368C37.8315 8.32133 37.8455 8.284 37.8735 8.256C37.9109 8.21867 37.9529 8.2 37.9995 8.2H39.5815C39.6749 8.2 39.7402 8.23733 39.7775 8.312L43.3895 14.276C43.4082 14.304 43.4269 14.318 43.4455 14.318C43.4642 14.3087 43.4735 14.2853 43.4735 14.248L43.4595 8.368ZM50.1941 18.112C49.4101 18.112 48.7381 17.9067 48.1781 17.496C47.6181 17.0853 47.2354 16.5253 47.0301 15.816C46.8994 15.3773 46.8341 14.9013 46.8341 14.388C46.8341 13.8373 46.8994 13.3427 47.0301 12.904C47.2448 12.2133 47.6321 11.672 48.1921 11.28C48.7521 10.888 49.4241 10.692 50.2081 10.692C50.9734 10.692 51.6268 10.888 52.1681 11.28C52.7094 11.6627 53.0921 12.1993 53.3161 12.89C53.4654 13.3567 53.5401 13.8467 53.5401 14.36C53.5401 14.864 53.4748 15.3353 53.3441 15.774C53.1388 16.502 52.7561 17.076 52.1961 17.496C51.6454 17.9067 50.9781 18.112 50.1941 18.112ZM50.1941 16.418C50.5021 16.418 50.7634 16.3247 50.9781 16.138C51.1928 15.9513 51.3468 15.6947 51.4401 15.368C51.5148 15.0693 51.5521 14.7427 51.5521 14.388C51.5521 13.996 51.5148 13.6647 51.4401 13.394C51.3374 13.0767 51.1788 12.8293 50.9641 12.652C50.7494 12.4747 50.4881 12.386 50.1801 12.386C49.8628 12.386 49.5968 12.4747 49.3821 12.652C49.1768 12.8293 49.0274 13.0767 48.9341 13.394C48.8594 13.618 48.8221 13.9493 48.8221 14.388C48.8221 14.808 48.8548 15.1347 48.9201 15.368C49.0134 15.6947 49.1674 15.9513 49.3821 16.138C49.6061 16.3247 49.8768 16.418 50.1941 16.418ZM59.2751 8.368C59.2751 8.32133 59.2891 8.284 59.3171 8.256C59.3544 8.21867 59.3964 8.2 59.4431 8.2H61.0811C61.1277 8.2 61.1651 8.21867 61.1931 8.256C61.2304 8.284 61.2491 8.32133 61.2491 8.368V17.832C61.2491 17.8787 61.2304 17.9207 61.1931 17.958C61.1651 17.986 61.1277 18 61.0811 18H59.4431C59.3964 18 59.3544 17.986 59.3171 17.958C59.2891 17.9207 59.2751 17.8787 59.2751 17.832V17.37C59.2751 17.342 59.2657 17.328 59.2471 17.328C59.2284 17.3187 59.2097 17.3233 59.1911 17.342C58.7991 17.8553 58.2624 18.112 57.5811 18.112C56.9277 18.112 56.3631 17.93 55.8871 17.566C55.4204 17.202 55.0844 16.7027 54.8791 16.068C54.7204 15.5827 54.6411 15.018 54.6411 14.374C54.6411 13.7113 54.7251 13.1327 54.8931 12.638C55.1077 12.0407 55.4437 11.5693 55.9011 11.224C56.3677 10.8693 56.9417 10.692 57.6231 10.692C58.2951 10.692 58.8177 10.9253 59.1911 11.392C59.2097 11.42 59.2284 11.4293 59.2471 11.42C59.2657 11.4107 59.2751 11.392 59.2751 11.364V8.368ZM58.9811 15.816C59.1677 15.4707 59.2611 14.9993 59.2611 14.402C59.2611 13.7767 59.1584 13.2867 58.9531 12.932C58.7384 12.568 58.4257 12.386 58.0151 12.386C57.5764 12.386 57.2451 12.568 57.0211 12.932C56.7877 13.296 56.6711 13.7907 56.6711 14.416C56.6711 14.976 56.7691 15.4427 56.9651 15.816C57.1984 16.2173 57.5437 16.418 58.0011 16.418C58.4211 16.418 58.7477 16.2173 58.9811 15.816ZM69.1087 13.66C69.1647 14.0147 69.1834 14.4113 69.1647 14.85C69.1554 14.962 69.0947 15.018 68.9827 15.018H64.6567C64.6007 15.018 64.5821 15.0413 64.6007 15.088C64.6287 15.2747 64.6801 15.4613 64.7547 15.648C64.9974 16.1707 65.4921 16.432 66.2387 16.432C66.8361 16.4227 67.3074 16.18 67.6527 15.704C67.6901 15.648 67.7321 15.62 67.7787 15.62C67.8067 15.62 67.8394 15.6387 67.8767 15.676L68.8847 16.67C68.9314 16.7167 68.9547 16.7587 68.9547 16.796C68.9547 16.8147 68.9361 16.852 68.8987 16.908C68.5907 17.2907 68.1941 17.5893 67.7087 17.804C67.2234 18.0093 66.6914 18.112 66.1127 18.112C65.3101 18.112 64.6287 17.93 64.0687 17.566C63.5181 17.202 63.1214 16.6933 62.8787 16.04C62.6827 15.5733 62.5847 14.962 62.5847 14.206C62.5847 13.6927 62.6547 13.24 62.7947 12.848C63.0094 12.1853 63.3827 11.658 63.9147 11.266C64.4561 10.874 65.0954 10.678 65.8327 10.678C66.7661 10.678 67.5127 10.9487 68.0727 11.49C68.6421 12.0313 68.9874 12.7547 69.1087 13.66ZM65.8467 12.386C65.2587 12.386 64.8714 12.6613 64.6847 13.212C64.6474 13.3333 64.6147 13.4827 64.5867 13.66C64.5867 13.7067 64.6101 13.73 64.6567 13.73H67.0787C67.1347 13.73 67.1534 13.7067 67.1347 13.66C67.0881 13.3893 67.0647 13.2587 67.0647 13.268C66.9807 12.988 66.8314 12.7733 66.6167 12.624C66.4114 12.4653 66.1547 12.386 65.8467 12.386ZM76.2361 18.112C75.5267 18.112 74.9061 17.9813 74.3741 17.72C73.8514 17.4493 73.4454 17.076 73.1561 16.6C72.8667 16.1147 72.7221 15.5547 72.7221 14.92V14.038C72.7221 13.9913 72.7361 13.954 72.7641 13.926C72.8014 13.8887 72.8434 13.87 72.8901 13.87H74.5281C74.5747 13.87 74.6121 13.8887 74.6401 13.926C74.6774 13.954 74.6961 13.9913 74.6961 14.038V14.92C74.6961 15.368 74.8314 15.732 75.1021 16.012C75.3821 16.2827 75.7601 16.418 76.2361 16.418C76.6934 16.418 77.0667 16.2827 77.3561 16.012C77.6547 15.732 77.8041 15.368 77.8041 14.92V8.368C77.8041 8.32133 77.8181 8.284 77.8461 8.256C77.8834 8.21867 77.9254 8.2 77.9721 8.2H79.5961C79.6427 8.2 79.6801 8.21867 79.7081 8.256C79.7454 8.284 79.7641 8.32133 79.7641 8.368V14.92C79.7641 15.5547 79.6147 16.1147 79.3161 16.6C79.0174 17.076 78.6021 17.4493 78.0701 17.72C77.5381 17.9813 76.9267 18.112 76.2361 18.112ZM84.2162 18.098C83.5908 18.098 83.0448 18.0093 82.5782 17.832C82.1115 17.6547 81.7475 17.4073 81.4862 17.09C81.2342 16.7727 81.1082 16.4133 81.1082 16.012V15.872C81.1082 15.8253 81.1222 15.788 81.1502 15.76C81.1875 15.7227 81.2295 15.704 81.2762 15.704H82.8302C82.8768 15.704 82.9142 15.7227 82.9422 15.76C82.9795 15.788 82.9982 15.8253 82.9982 15.872V15.886C82.9982 16.0913 83.1102 16.2687 83.3342 16.418C83.5675 16.558 83.8568 16.628 84.2022 16.628C84.5195 16.628 84.7762 16.5673 84.9722 16.446C85.1682 16.3153 85.2662 16.1567 85.2662 15.97C85.2662 15.802 85.1822 15.676 85.0142 15.592C84.8462 15.508 84.5708 15.4193 84.1882 15.326C83.7495 15.214 83.4042 15.1067 83.1522 15.004C82.5548 14.7987 82.0788 14.5467 81.7242 14.248C81.3695 13.9493 81.1922 13.52 81.1922 12.96C81.1922 12.2693 81.4582 11.7233 81.9902 11.322C82.5315 10.9113 83.2455 10.706 84.1322 10.706C84.7295 10.706 85.2522 10.804 85.7002 11C86.1482 11.1867 86.4935 11.4527 86.7362 11.798C86.9882 12.1433 87.1142 12.5353 87.1142 12.974C87.1142 13.0207 87.0955 13.0627 87.0582 13.1C87.0302 13.128 86.9928 13.142 86.9462 13.142H85.4482C85.4015 13.142 85.3595 13.128 85.3222 13.1C85.2942 13.0627 85.2802 13.0207 85.2802 12.974C85.2802 12.7687 85.1728 12.596 84.9582 12.456C84.7528 12.316 84.4775 12.246 84.1322 12.246C83.8242 12.246 83.5722 12.302 83.3762 12.414C83.1802 12.526 83.0822 12.68 83.0822 12.876C83.0822 13.0627 83.1755 13.2027 83.3622 13.296C83.5582 13.3893 83.8802 13.4873 84.3282 13.59C84.4308 13.618 84.5475 13.6507 84.6782 13.688C84.8088 13.716 84.9488 13.7533 85.0982 13.8C85.7608 13.996 86.2835 14.248 86.6662 14.556C87.0488 14.864 87.2402 15.312 87.2402 15.9C87.2402 16.5907 86.9648 17.132 86.4142 17.524C85.8728 17.9067 85.1402 18.098 84.2162 18.098Z" fill="white"/>
<path d="M15.9962 27.0559C15.6339 27.0559 15.2748 26.9612 14.9573 26.778L11.6501 24.8182C11.1559 24.5416 11.397 24.4437 11.5599 24.3875C12.2188 24.1569 12.352 24.1045 13.0551 23.7047C13.1289 23.6624 13.2255 23.6776 13.3012 23.7224L15.8422 25.2313C15.9337 25.2812 16.0644 25.2812 16.1489 25.2313L26.056 19.5085C26.1475 19.4561 26.2075 19.35 26.2075 19.2407V7.80095C26.2075 7.68663 26.1482 7.58495 26.0541 7.52811L16.1515 1.80979C16.0599 1.75547 15.9381 1.75547 15.8466 1.80979L5.94519 7.52747C5.84926 7.58179 5.78804 7.68853 5.78804 7.79779V19.2382C5.78804 19.3475 5.84736 19.4517 5.94204 19.5035L8.65533 21.0717C10.1284 21.8087 11.0284 20.9403 11.0284 20.0668V8.7761C11.0284 8.61505 11.1547 8.49063 11.3162 8.49063H12.571C12.7275 8.49063 12.8562 8.61442 12.8562 8.7761V20.0725C12.8562 22.038 11.7852 23.1673 9.92267 23.1673C9.34959 23.1673 8.89832 23.1673 7.63856 22.5471L5.0395 21.0483C4.39699 20.6757 4 19.9803 4 19.2388V7.79842C4 7.05379 4.39699 6.35905 5.03887 5.99147L14.9567 0.26621C15.5841 -0.0887368 16.4172 -0.0887368 17.0401 0.26621L26.9453 5.994C27.584 6.36347 27.9835 7.05632 27.9835 7.80095V19.2414C27.9835 19.9835 27.584 20.6757 26.9447 21.0483L17.0395 26.7729C16.722 26.9567 16.3623 27.0508 15.9956 27.0508" fill="white"/>
<path d="M19.057 19.1724C14.7223 19.1724 13.8135 17.181 13.8135 15.5111C13.8135 15.3526 13.9416 15.2256 14.1006 15.2256H15.3806C15.522 15.2256 15.6413 15.3286 15.6634 15.4682C15.8565 16.773 16.4321 17.4311 19.0533 17.4311C21.1411 17.4311 22.0291 16.9593 22.0291 15.8509C22.0291 15.213 21.776 14.7393 18.5326 14.4216C15.8193 14.1538 14.1429 13.5557 14.1429 11.3844C14.1429 9.38415 15.8294 8.19299 18.6537 8.19299C21.8259 8.19299 23.3981 9.2951 23.5962 11.6623C23.6038 11.7444 23.5741 11.8233 23.5192 11.8833C23.465 11.9402 23.388 11.9749 23.3084 11.9749H22.0215C21.8877 11.9749 21.771 11.8808 21.7438 11.7513C21.4339 10.3789 20.6848 9.93994 18.6487 9.93994C16.3696 9.93994 16.1045 10.7338 16.1045 11.3294C16.1045 12.0513 16.417 12.2623 19.4919 12.6696C22.5372 13.0738 23.9831 13.6448 23.9831 15.7865C23.9831 17.9452 22.1825 19.1837 19.0432 19.1837" fill="white"/>
<path fill-rule="evenodd" clip-rule="evenodd" d="M183.653 16.6281C183.558 16.7164 183.482 16.8229 183.43 16.9412C183.377 17.0595 183.349 17.1871 183.346 17.3166C183.344 17.4461 183.368 17.5747 183.416 17.6948C183.465 17.8148 183.537 17.9239 183.629 18.0155C183.72 18.107 183.829 18.1792 183.949 18.2277C184.069 18.2762 184.198 18.3001 184.327 18.2978C184.456 18.2955 184.584 18.2671 184.702 18.2144C184.82 18.1617 184.927 18.0857 185.015 17.991L189.191 13.8124L189.873 13.131L189.192 12.4496L185.016 8.27101C184.835 8.09527 184.591 7.99796 184.339 8.00003C184.086 8.00211 183.844 8.10341 183.665 8.28211C183.487 8.46081 183.385 8.70262 183.383 8.95545C183.381 9.20829 183.478 9.45191 183.653 9.63386L186.184 12.1667H172.849C172.593 12.1667 172.348 12.2683 172.167 12.4492C171.987 12.63 171.885 12.8753 171.885 13.131C171.885 13.3868 171.987 13.632 172.167 13.8129C172.348 13.9937 172.593 14.0953 172.849 14.0953H186.184L183.653 16.6281Z" fill="white"/>
</g>
<defs>
<filter id="filter0_d_59_64" x="0" y="0" width="193.873" height="35.0559" filterUnits="userSpaceOnUse" color-interpolation-filters="sRGB">
<feFlood flood-opacity="0" result="BackgroundImageFix"/>
<feColorMatrix in="SourceAlpha" type="matrix" values="0 0 0 0 0 0 0 0 0 0 0 0 0 0 0 0 0 0 127 0" result="hardAlpha"/>
<feOffset dy="4"/>
<feGaussianBlur stdDeviation="2"/>
<feComposite in2="hardAlpha" operator="out"/>
<feColorMatrix type="matrix" values="0 0 0 0 0 0 0 0 0 0 0 0 0 0 0 0 0 0 0.25 0"/>
<feBlend mode="normal" in2="BackgroundImageFix" result="effect1_dropShadow_59_64"/>
<feBlend mode="normal" in="SourceGraphic" in2="effect1_dropShadow_59_64" result="shape"/>
</filter>
</defs>
</svg>
