<svg width="193" height="30" viewBox="0 0 193 30" fill="none" xmlns="http://www.w3.org/2000/svg">
<path d="M40.2066 20C40.1132 20 40.0479 19.958 40.0106 19.874L38.2606 15.996C38.2419 15.9587 38.2139 15.94 38.1766 15.94H36.8746C36.8279 15.94 36.8046 15.9633 36.8046 16.01V19.832C36.8046 19.8787 36.7859 19.9207 36.7486 19.958C36.7206 19.986 36.6832 20 36.6366 20H34.9986C34.9519 20 34.9099 19.986 34.8726 19.958C34.8446 19.9207 34.8306 19.8787 34.8306 19.832V10.368C34.8306 10.3213 34.8446 10.284 34.8726 10.256C34.9099 10.2187 34.9519 10.2 34.9986 10.2H39.0026C39.5999 10.2 40.1226 10.3213 40.5706 10.564C41.0279 10.8067 41.3779 11.152 41.6206 11.6C41.8726 12.048 41.9986 12.566 41.9986 13.154C41.9986 13.7887 41.8399 14.3347 41.5226 14.792C41.2052 15.24 40.7619 15.5573 40.1926 15.744C40.1459 15.7627 40.1319 15.7953 40.1506 15.842L42.0546 19.804C42.0732 19.8413 42.0826 19.8693 42.0826 19.888C42.0826 19.9627 42.0312 20 41.9286 20H40.2066ZM36.8746 11.894C36.8279 11.894 36.8046 11.9173 36.8046 11.964V14.358C36.8046 14.4047 36.8279 14.428 36.8746 14.428H38.7086C39.1006 14.428 39.4179 14.3113 39.6606 14.078C39.9126 13.8447 40.0386 13.5413 40.0386 13.168C40.0386 12.7947 39.9126 12.4913 39.6606 12.258C39.4179 12.0153 39.1006 11.894 38.7086 11.894H36.8746ZM49.5785 15.66C49.6345 16.0147 49.6531 16.4113 49.6345 16.85C49.6251 16.962 49.5645 17.018 49.4525 17.018H45.1265C45.0705 17.018 45.0518 17.0413 45.0705 17.088C45.0985 17.2747 45.1498 17.4613 45.2245 17.648C45.4671 18.1707 45.9618 18.432 46.7085 18.432C47.3058 18.4227 47.7771 18.18 48.1225 17.704C48.1598 17.648 48.2018 17.62 48.2485 17.62C48.2765 17.62 48.3091 17.6387 48.3465 17.676L49.3545 18.67C49.4011 18.7167 49.4245 18.7587 49.4245 18.796C49.4245 18.8147 49.4058 18.852 49.3685 18.908C49.0605 19.2907 48.6638 19.5893 48.1785 19.804C47.6931 20.0093 47.1611 20.112 46.5825 20.112C45.7798 20.112 45.0985 19.93 44.5385 19.566C43.9878 19.202 43.5911 18.6933 43.3485 18.04C43.1525 17.5733 43.0545 16.962 43.0545 16.206C43.0545 15.6927 43.1245 15.24 43.2645 14.848C43.4791 14.1853 43.8525 13.658 44.3845 13.266C44.9258 12.874 45.5651 12.678 46.3025 12.678C47.2358 12.678 47.9825 12.9487 48.5425 13.49C49.1118 14.0313 49.4571 14.7547 49.5785 15.66ZM46.3165 14.386C45.7285 14.386 45.3411 14.6613 45.1545 15.212C45.1171 15.3333 45.0845 15.4827 45.0565 15.66C45.0565 15.7067 45.0798 15.73 45.1265 15.73H47.5485C47.6045 15.73 47.6231 15.7067 47.6045 15.66C47.5578 15.3893 47.5345 15.2587 47.5345 15.268C47.4505 14.988 47.3011 14.7733 47.0865 14.624C46.8811 14.4653 46.6245 14.386 46.3165 14.386ZM53.6527 12.692C54.2594 12.692 54.8007 12.7993 55.2767 13.014C55.7527 13.2193 56.1214 13.504 56.3827 13.868C56.6534 14.232 56.7887 14.638 56.7887 15.086V19.832C56.7887 19.8787 56.77 19.9207 56.7327 19.958C56.7047 19.986 56.6674 20 56.6207 20H54.9827C54.936 20 54.894 19.986 54.8567 19.958C54.8287 19.9207 54.8147 19.8787 54.8147 19.832V19.37C54.8147 19.342 54.8054 19.3233 54.7867 19.314C54.768 19.3047 54.7494 19.314 54.7307 19.342C54.3387 19.8553 53.7087 20.112 52.8407 20.112C52.1127 20.112 51.5247 19.9347 51.0767 19.58C50.6287 19.2253 50.4047 18.7027 50.4047 18.012C50.4047 17.2933 50.6567 16.738 51.1607 16.346C51.6647 15.9447 52.3834 15.744 53.3167 15.744H54.7447C54.7914 15.744 54.8147 15.7207 54.8147 15.674V15.366C54.8147 15.058 54.7214 14.82 54.5347 14.652C54.348 14.4747 54.068 14.386 53.6947 14.386C53.4054 14.386 53.1627 14.4373 52.9667 14.54C52.78 14.6427 52.6587 14.7873 52.6027 14.974C52.5747 15.0767 52.514 15.1233 52.4207 15.114L50.7267 14.89C50.6147 14.8713 50.5634 14.8293 50.5727 14.764C50.61 14.372 50.764 14.0173 51.0347 13.7C51.3147 13.3827 51.6787 13.1353 52.1267 12.958C52.584 12.7807 53.0927 12.692 53.6527 12.692ZM53.3727 18.642C53.774 18.642 54.1147 18.5347 54.3947 18.32C54.6747 18.1053 54.8147 17.83 54.8147 17.494V16.99C54.8147 16.9433 54.7914 16.92 54.7447 16.92H53.7367C53.3167 16.92 52.9854 16.9993 52.7427 17.158C52.5094 17.3167 52.3927 17.5407 52.3927 17.83C52.3927 18.082 52.4814 18.2827 52.6587 18.432C52.836 18.572 53.074 18.642 53.3727 18.642ZM61.3432 20.112C60.5965 20.112 59.9478 19.9253 59.3972 19.552C58.8558 19.1787 58.4685 18.6653 58.2352 18.012C58.0765 17.5453 57.9972 16.9947 57.9972 16.36C57.9972 15.7347 58.0765 15.1933 58.2352 14.736C58.4592 14.1013 58.8465 13.602 59.3972 13.238C59.9478 12.874 60.5965 12.692 61.3432 12.692C62.0898 12.692 62.7432 12.8787 63.3032 13.252C63.8725 13.6253 64.2505 14.0967 64.4372 14.666C64.5118 14.89 64.5492 15.058 64.5492 15.17V15.198C64.5492 15.282 64.5025 15.3333 64.4092 15.352L62.7992 15.59H62.7712C62.6872 15.59 62.6312 15.5433 62.6032 15.45L62.5612 15.226C62.4958 14.9833 62.3512 14.7827 62.1272 14.624C61.9032 14.4653 61.6372 14.386 61.3292 14.386C61.0305 14.386 60.7785 14.4607 60.5732 14.61C60.3678 14.7593 60.2232 14.9647 60.1392 15.226C60.0365 15.506 59.9852 15.8887 59.9852 16.374C59.9852 16.8593 60.0318 17.242 60.1252 17.522C60.2092 17.802 60.3538 18.0213 60.5592 18.18C60.7738 18.3387 61.0305 18.418 61.3292 18.418C61.6185 18.418 61.8705 18.3433 62.0852 18.194C62.3092 18.0353 62.4632 17.8207 62.5472 17.55C62.5565 17.5313 62.5612 17.5033 62.5612 17.466C62.5705 17.4567 62.5752 17.4427 62.5752 17.424C62.5845 17.312 62.6498 17.2653 62.7712 17.284L64.3812 17.536C64.4745 17.5547 64.5212 17.606 64.5212 17.69C64.5212 17.7647 64.4932 17.9047 64.4372 18.11C64.2412 18.7353 63.8585 19.2253 63.2892 19.58C62.7292 19.9347 62.0805 20.112 61.3432 20.112ZM69.8287 14.218C69.8287 14.2647 69.81 14.3067 69.7727 14.344C69.7447 14.372 69.7074 14.386 69.6607 14.386H68.3167C68.27 14.386 68.2467 14.4093 68.2467 14.456V17.424C68.2467 17.732 68.3074 17.9607 68.4287 18.11C68.5594 18.2593 68.7647 18.334 69.0447 18.334H69.5067C69.5534 18.334 69.5907 18.3527 69.6187 18.39C69.656 18.418 69.6747 18.4553 69.6747 18.502V19.832C69.6747 19.9347 69.6187 19.9953 69.5067 20.014C69.1147 20.0327 68.8347 20.042 68.6667 20.042C67.892 20.042 67.3134 19.916 66.9307 19.664C66.548 19.4027 66.352 18.9173 66.3427 18.208V14.456C66.3427 14.4093 66.3194 14.386 66.2727 14.386H65.4747C65.428 14.386 65.386 14.372 65.3487 14.344C65.3207 14.3067 65.3067 14.2647 65.3067 14.218V12.972C65.3067 12.9253 65.3207 12.888 65.3487 12.86C65.386 12.8227 65.428 12.804 65.4747 12.804H66.2727C66.3194 12.804 66.3427 12.7807 66.3427 12.734V11.068C66.3427 11.0213 66.3567 10.984 66.3847 10.956C66.422 10.9187 66.464 10.9 66.5107 10.9H68.0787C68.1254 10.9 68.1627 10.9187 68.1907 10.956C68.228 10.984 68.2467 11.0213 68.2467 11.068V12.734C68.2467 12.7807 68.27 12.804 68.3167 12.804H69.6607C69.7074 12.804 69.7447 12.8227 69.7727 12.86C69.81 12.888 69.8287 12.9253 69.8287 12.972V14.218ZM76.8718 20.112C76.1625 20.112 75.5418 19.9813 75.0098 19.72C74.4871 19.4493 74.0811 19.076 73.7918 18.6C73.5025 18.1147 73.3578 17.5547 73.3578 16.92V16.038C73.3578 15.9913 73.3718 15.954 73.3998 15.926C73.4371 15.8887 73.4791 15.87 73.5258 15.87H75.1638C75.2105 15.87 75.2478 15.8887 75.2758 15.926C75.3131 15.954 75.3318 15.9913 75.3318 16.038V16.92C75.3318 17.368 75.4671 17.732 75.7378 18.012C76.0178 18.2827 76.3958 18.418 76.8718 18.418C77.3291 18.418 77.7025 18.2827 77.9918 18.012C78.2905 17.732 78.4398 17.368 78.4398 16.92V10.368C78.4398 10.3213 78.4538 10.284 78.4818 10.256C78.5191 10.2187 78.5611 10.2 78.6078 10.2H80.2318C80.2785 10.2 80.3158 10.2187 80.3438 10.256C80.3811 10.284 80.3998 10.3213 80.3998 10.368V16.92C80.3998 17.5547 80.2505 18.1147 79.9518 18.6C79.6531 19.076 79.2378 19.4493 78.7058 19.72C78.1738 19.9813 77.5625 20.112 76.8718 20.112ZM84.8519 20.098C84.2266 20.098 83.6806 20.0093 83.2139 19.832C82.7472 19.6547 82.3832 19.4073 82.1219 19.09C81.8699 18.7727 81.7439 18.4133 81.7439 18.012V17.872C81.7439 17.8253 81.7579 17.788 81.7859 17.76C81.8232 17.7227 81.8652 17.704 81.9119 17.704H83.4659C83.5126 17.704 83.5499 17.7227 83.5779 17.76C83.6152 17.788 83.6339 17.8253 83.6339 17.872V17.886C83.6339 18.0913 83.7459 18.2687 83.9699 18.418C84.2032 18.558 84.4926 18.628 84.8379 18.628C85.1552 18.628 85.4119 18.5673 85.6079 18.446C85.8039 18.3153 85.9019 18.1567 85.9019 17.97C85.9019 17.802 85.8179 17.676 85.6499 17.592C85.4819 17.508 85.2066 17.4193 84.8239 17.326C84.3852 17.214 84.0399 17.1067 83.7879 17.004C83.1906 16.7987 82.7146 16.5467 82.3599 16.248C82.0052 15.9493 81.8279 15.52 81.8279 14.96C81.8279 14.2693 82.0939 13.7233 82.6259 13.322C83.1672 12.9113 83.8812 12.706 84.7679 12.706C85.3652 12.706 85.8879 12.804 86.3359 13C86.7839 13.1867 87.1292 13.4527 87.3719 13.798C87.6239 14.1433 87.7499 14.5353 87.7499 14.974C87.7499 15.0207 87.7312 15.0627 87.6939 15.1C87.6659 15.128 87.6286 15.142 87.5819 15.142H86.0839C86.0372 15.142 85.9952 15.128 85.9579 15.1C85.9299 15.0627 85.9159 15.0207 85.9159 14.974C85.9159 14.7687 85.8086 14.596 85.5939 14.456C85.3886 14.316 85.1132 14.246 84.7679 14.246C84.4599 14.246 84.2079 14.302 84.0119 14.414C83.8159 14.526 83.7179 14.68 83.7179 14.876C83.7179 15.0627 83.8112 15.2027 83.9979 15.296C84.1939 15.3893 84.5159 15.4873 84.9639 15.59C85.0666 15.618 85.1832 15.6507 85.3139 15.688C85.4446 15.716 85.5846 15.7533 85.7339 15.8C86.3966 15.996 86.9192 16.248 87.3019 16.556C87.6846 16.864 87.8759 17.312 87.8759 17.9C87.8759 18.5907 87.6006 19.132 87.0499 19.524C86.5086 19.9067 85.7759 20.098 84.8519 20.098Z" fill="white"/>
<path d="M24.4922 10.1797C27.6562 11.2344 30 12.9922 30 14.75C30 16.625 27.5391 18.4414 24.1406 19.5547C23.9648 19.6133 23.7891 19.6719 23.6133 19.7305C23.6719 19.9648 23.7305 20.2578 23.7891 20.4922C24.4336 23.8906 23.9062 26.6445 22.3242 27.582C20.8008 28.4609 18.3398 27.582 15.8203 25.4141C15.5273 25.1797 15.293 24.9453 15 24.7109C14.8242 24.8867 14.5898 25.0625 14.4141 25.2383C11.8359 27.5234 9.14062 28.4609 7.55859 27.5234C6.03516 26.6445 5.56641 24.0664 6.15234 20.8438C6.26953 20.4922 6.32812 20.1406 6.38672 19.7891C6.15234 19.7305 5.85938 19.6133 5.625 19.5547C2.34375 18.4414 0 16.5664 0 14.75C0 12.9922 2.22656 11.293 5.33203 10.1797C5.68359 10.0625 6.03516 9.94531 6.44531 9.82812C6.32812 9.53516 6.26953 9.18359 6.21094 8.89062C5.56641 5.55078 6.03516 2.91406 7.55859 2.03516C9.14062 1.09766 11.8359 2.09375 14.5312 4.4375C14.6484 4.61328 14.8242 4.73047 15 4.90625C15.2344 4.67188 15.4688 4.4375 15.7031 4.26172C18.2812 2.03516 20.8008 1.09766 22.3242 1.97656C23.9062 2.91406 24.375 5.72656 23.6719 9.18359C23.6133 9.41797 23.5547 9.65234 23.5547 9.88672C23.8477 9.94531 24.1406 10.0625 24.4922 10.1797ZM16.5234 5.19922C16.2891 5.375 16.1133 5.60938 15.8789 5.78516C16.7578 6.78125 17.5781 7.83594 18.3398 8.94922C19.6875 9.06641 20.9766 9.24219 22.3242 9.53516C22.3828 9.35938 22.3828 9.18359 22.4414 8.94922C23.0859 5.96094 22.6758 3.61719 21.6797 3.08984C20.7422 2.5625 18.75 3.26562 16.5234 5.19922ZM9.78516 17.7969C9.49219 17.2695 9.19922 16.8008 8.90625 16.2734C8.55469 17.1523 8.26172 18.0312 7.96875 18.8516C8.84766 19.0859 9.78516 19.2031 10.7227 19.3203C10.3711 18.793 10.0781 18.3242 9.78516 17.7969ZM7.96875 10.7656C8.26172 11.5859 8.55469 12.4062 8.90625 13.2852C9.19922 12.7578 9.49219 12.2891 9.78516 11.7617C10.0781 11.293 10.3711 10.7656 10.6641 10.2969C9.72656 10.4141 8.84766 10.5312 7.96875 10.7656ZM9.60938 14.8086C10.0195 15.5703 10.4297 16.3906 10.8398 17.1523C11.3086 17.9141 11.7773 18.6758 12.3047 19.4375C13.1836 19.4961 14.0625 19.5547 15 19.5547C15.8789 19.5547 16.8164 19.4961 17.6953 19.4375C18.1641 18.6758 18.6328 17.9141 19.1016 17.1523C19.5703 16.3906 19.9805 15.5703 20.332 14.75C19.9805 13.9297 19.5117 13.168 19.1016 12.4062C18.6328 11.6445 18.1641 10.8828 17.6367 10.1211C16.8164 10.0625 15.8789 10.0039 15 10.0039C14.0625 10.0039 13.1836 10.0625 12.3047 10.1211C11.7773 10.8828 11.3086 11.6445 10.8398 12.4062C10.4297 13.168 9.96094 13.9883 9.60938 14.8086ZM20.1562 17.7969C19.8633 18.2656 19.5703 18.793 19.2773 19.2617C20.2148 19.2031 21.0938 19.0273 22.0312 18.793C21.7383 17.9141 21.3867 17.0938 21.0352 16.2148C20.7422 16.7422 20.5078 17.2695 20.1562 17.7969ZM21.0352 13.2852C21.3867 12.4648 21.6797 11.6445 21.9727 10.7656C21.1523 10.5898 20.2148 10.4141 19.2773 10.2969C19.5703 10.7656 19.8633 11.293 20.1562 11.7617C20.4492 12.2891 20.7422 12.7578 21.0352 13.2852ZM15 6.72266C14.4141 7.36719 13.8281 8.07031 13.2422 8.83203C14.4141 8.77344 15.5859 8.77344 16.6992 8.83203C16.1719 8.07031 15.5859 7.36719 15 6.72266ZM8.20312 3.08984C7.26562 3.67578 6.91406 5.78516 7.44141 8.59766C7.5 8.94922 7.55859 9.24219 7.67578 9.53516C8.96484 9.24219 10.2539 9.06641 11.6016 8.94922C12.3633 7.83594 13.1836 6.78125 14.1211 5.78516C13.9453 5.66797 13.8281 5.55078 13.6523 5.375C11.3672 3.38281 9.19922 2.5625 8.20312 3.08984ZM6.73828 18.5586C7.14844 17.2695 7.61719 15.9805 8.20312 14.8086C7.67578 13.5781 7.14844 12.3477 6.79688 11.0586C6.44531 11.1758 6.09375 11.2344 5.74219 11.3516C3.10547 12.2891 1.23047 13.6953 1.23047 14.75C1.34766 15.4531 1.75781 16.0977 2.34375 16.5078C3.33984 17.3281 4.80469 17.9141 6.03516 18.3242C6.26953 18.4414 6.50391 18.5 6.73828 18.5586ZM13.5938 24.3008C13.7695 24.125 13.9453 23.9492 14.1211 23.7734C13.2422 22.7773 12.3633 21.7227 11.6016 20.668C10.2539 20.5508 8.96484 20.375 7.61719 20.082C7.55859 20.375 7.5 20.7266 7.44141 21.0781C6.91406 23.832 7.26562 25.8828 8.20312 26.4688C8.90625 26.7031 9.60938 26.7031 10.2539 26.3516C11.4844 25.8828 12.5977 25.1797 13.5938 24.3008ZM15 22.8945C15.6445 22.1914 16.2305 21.4883 16.7578 20.7266C16.1719 20.7852 15.5859 20.7852 15 20.7852C14.4141 20.7852 13.8281 20.7852 13.2422 20.7266C13.8281 21.5469 14.4141 22.25 15 22.8945ZM22.6758 24.6523C22.8516 23.3633 22.793 22.0156 22.5586 20.7266C22.5 20.4922 22.4414 20.2578 22.3828 20.0234C21.0352 20.3164 19.7461 20.5508 18.3984 20.668C17.6367 21.7812 16.8164 22.7773 15.8789 23.7734C16.1719 24.0078 16.4062 24.2422 16.6406 24.4766C18.8086 26.293 20.8008 26.9961 21.7383 26.4688C22.2656 26 22.6172 25.3555 22.6758 24.6523ZM23.7305 18.3242C26.6602 17.3867 28.7109 15.8633 28.7109 14.75C28.7109 13.6953 26.7773 12.2891 24.082 11.3516C23.7891 11.2344 23.4961 11.1758 23.2031 11.0586C22.793 12.3477 22.3242 13.5781 21.7383 14.75C22.3242 15.9805 22.8516 17.2109 23.2617 18.5C23.4375 18.4414 23.5547 18.3828 23.7305 18.3242ZM15 17.4453C13.4766 17.4453 12.3047 16.2734 12.3047 14.75C12.3047 13.2852 13.4766 12.1133 15 12.1133C16.4648 12.1133 17.6367 13.2852 17.6367 14.75C17.6367 16.2734 16.4648 17.4453 15 17.4453Z" fill="white"/>
<path fill-rule="evenodd" clip-rule="evenodd" d="M186.648 18.6281C186.553 18.7164 186.478 18.8229 186.425 18.9412C186.372 19.0595 186.344 19.1871 186.342 19.3166C186.339 19.4461 186.363 19.5747 186.412 19.6948C186.46 19.8148 186.532 19.9239 186.624 20.0155C186.715 20.107 186.824 20.1792 186.944 20.2277C187.064 20.2762 187.193 20.3001 187.322 20.2978C187.451 20.2955 187.579 20.2671 187.697 20.2144C187.815 20.1617 187.922 20.0857 188.01 19.991L192.186 15.8124L192.868 15.131L192.187 14.4496L188.011 10.271C187.83 10.0953 187.586 9.99796 187.334 10C187.081 10.0021 186.839 10.1034 186.661 10.2821C186.482 10.4608 186.38 10.7026 186.378 10.9555C186.376 11.2083 186.473 11.4519 186.648 11.6339L189.179 14.1667H175.844C175.588 14.1667 175.343 14.2683 175.163 14.4492C174.982 14.63 174.88 14.8753 174.88 15.131C174.88 15.3868 174.982 15.632 175.163 15.8129C175.343 15.9937 175.588 16.0953 175.844 16.0953H189.179L186.648 18.6281Z" fill="white"/>
</svg>
