<svg width="193" height="30" viewBox="0 0 193 30" fill="none" xmlns="http://www.w3.org/2000/svg">
<path d="M40.2071 20C40.1137 20 40.0484 19.958 40.0111 19.874L38.2611 15.996C38.2424 15.9587 38.2144 15.94 38.1771 15.94H36.8751C36.8284 15.94 36.8051 15.9633 36.8051 16.01V19.832C36.8051 19.8787 36.7864 19.9207 36.7491 19.958C36.7211 19.986 36.6837 20 36.6371 20H34.9991C34.9524 20 34.9104 19.986 34.8731 19.958C34.8451 19.9207 34.8311 19.8787 34.8311 19.832V10.368C34.8311 10.3213 34.8451 10.284 34.8731 10.256C34.9104 10.2187 34.9524 10.2 34.9991 10.2H39.0031C39.6004 10.2 40.1231 10.3213 40.5711 10.564C41.0284 10.8067 41.3784 11.152 41.6211 11.6C41.8731 12.048 41.9991 12.566 41.9991 13.154C41.9991 13.7887 41.8404 14.3347 41.5231 14.792C41.2057 15.24 40.7624 15.5573 40.1931 15.744C40.1464 15.7627 40.1324 15.7953 40.1511 15.842L42.0551 19.804C42.0737 19.8413 42.0831 19.8693 42.0831 19.888C42.0831 19.9627 42.0317 20 41.9291 20H40.2071ZM36.8751 11.894C36.8284 11.894 36.8051 11.9173 36.8051 11.964V14.358C36.8051 14.4047 36.8284 14.428 36.8751 14.428H38.7091C39.1011 14.428 39.4184 14.3113 39.6611 14.078C39.9131 13.8447 40.0391 13.5413 40.0391 13.168C40.0391 12.7947 39.9131 12.4913 39.6611 12.258C39.4184 12.0153 39.1011 11.894 38.7091 11.894H36.8751ZM49.579 15.66C49.635 16.0147 49.6536 16.4113 49.635 16.85C49.6256 16.962 49.565 17.018 49.453 17.018H45.127C45.071 17.018 45.0523 17.0413 45.071 17.088C45.099 17.2747 45.1503 17.4613 45.225 17.648C45.4676 18.1707 45.9623 18.432 46.709 18.432C47.3063 18.4227 47.7776 18.18 48.123 17.704C48.1603 17.648 48.2023 17.62 48.249 17.62C48.277 17.62 48.3096 17.6387 48.347 17.676L49.355 18.67C49.4016 18.7167 49.425 18.7587 49.425 18.796C49.425 18.8147 49.4063 18.852 49.369 18.908C49.061 19.2907 48.6643 19.5893 48.179 19.804C47.6936 20.0093 47.1616 20.112 46.583 20.112C45.7803 20.112 45.099 19.93 44.539 19.566C43.9883 19.202 43.5916 18.6933 43.349 18.04C43.153 17.5733 43.055 16.962 43.055 16.206C43.055 15.6927 43.125 15.24 43.265 14.848C43.4796 14.1853 43.853 13.658 44.385 13.266C44.9263 12.874 45.5656 12.678 46.303 12.678C47.2363 12.678 47.983 12.9487 48.543 13.49C49.1123 14.0313 49.4576 14.7547 49.579 15.66ZM46.317 14.386C45.729 14.386 45.3416 14.6613 45.155 15.212C45.1176 15.3333 45.085 15.4827 45.057 15.66C45.057 15.7067 45.0803 15.73 45.127 15.73H47.549C47.605 15.73 47.6236 15.7067 47.605 15.66C47.5583 15.3893 47.535 15.2587 47.535 15.268C47.451 14.988 47.3016 14.7733 47.087 14.624C46.8816 14.4653 46.625 14.386 46.317 14.386ZM53.6532 12.692C54.2598 12.692 54.8012 12.7993 55.2772 13.014C55.7532 13.2193 56.1218 13.504 56.3832 13.868C56.6538 14.232 56.7892 14.638 56.7892 15.086V19.832C56.7892 19.8787 56.7705 19.9207 56.7332 19.958C56.7052 19.986 56.6678 20 56.6212 20H54.9832C54.9365 20 54.8945 19.986 54.8572 19.958C54.8292 19.9207 54.8152 19.8787 54.8152 19.832V19.37C54.8152 19.342 54.8058 19.3233 54.7872 19.314C54.7685 19.3047 54.7498 19.314 54.7312 19.342C54.3392 19.8553 53.7092 20.112 52.8412 20.112C52.1132 20.112 51.5252 19.9347 51.0772 19.58C50.6292 19.2253 50.4052 18.7027 50.4052 18.012C50.4052 17.2933 50.6572 16.738 51.1612 16.346C51.6652 15.9447 52.3838 15.744 53.3172 15.744H54.7452C54.7918 15.744 54.8152 15.7207 54.8152 15.674V15.366C54.8152 15.058 54.7218 14.82 54.5352 14.652C54.3485 14.4747 54.0685 14.386 53.6952 14.386C53.4058 14.386 53.1632 14.4373 52.9672 14.54C52.7805 14.6427 52.6592 14.7873 52.6032 14.974C52.5752 15.0767 52.5145 15.1233 52.4212 15.114L50.7272 14.89C50.6152 14.8713 50.5638 14.8293 50.5732 14.764C50.6105 14.372 50.7645 14.0173 51.0352 13.7C51.3152 13.3827 51.6792 13.1353 52.1272 12.958C52.5845 12.7807 53.0932 12.692 53.6532 12.692ZM53.3732 18.642C53.7745 18.642 54.1152 18.5347 54.3952 18.32C54.6752 18.1053 54.8152 17.83 54.8152 17.494V16.99C54.8152 16.9433 54.7918 16.92 54.7452 16.92H53.7372C53.3172 16.92 52.9858 16.9993 52.7432 17.158C52.5098 17.3167 52.3932 17.5407 52.3932 17.83C52.3932 18.082 52.4818 18.2827 52.6592 18.432C52.8365 18.572 53.0745 18.642 53.3732 18.642ZM61.3437 20.112C60.597 20.112 59.9483 19.9253 59.3977 19.552C58.8563 19.1787 58.469 18.6653 58.2357 18.012C58.077 17.5453 57.9977 16.9947 57.9977 16.36C57.9977 15.7347 58.077 15.1933 58.2357 14.736C58.4597 14.1013 58.847 13.602 59.3977 13.238C59.9483 12.874 60.597 12.692 61.3437 12.692C62.0903 12.692 62.7437 12.8787 63.3037 13.252C63.873 13.6253 64.251 14.0967 64.4377 14.666C64.5123 14.89 64.5497 15.058 64.5497 15.17V15.198C64.5497 15.282 64.503 15.3333 64.4097 15.352L62.7997 15.59H62.7717C62.6877 15.59 62.6317 15.5433 62.6037 15.45L62.5617 15.226C62.4963 14.9833 62.3517 14.7827 62.1277 14.624C61.9037 14.4653 61.6377 14.386 61.3297 14.386C61.031 14.386 60.779 14.4607 60.5737 14.61C60.3683 14.7593 60.2237 14.9647 60.1397 15.226C60.037 15.506 59.9857 15.8887 59.9857 16.374C59.9857 16.8593 60.0323 17.242 60.1257 17.522C60.2097 17.802 60.3543 18.0213 60.5597 18.18C60.7743 18.3387 61.031 18.418 61.3297 18.418C61.619 18.418 61.871 18.3433 62.0857 18.194C62.3097 18.0353 62.4637 17.8207 62.5477 17.55C62.557 17.5313 62.5617 17.5033 62.5617 17.466C62.571 17.4567 62.5757 17.4427 62.5757 17.424C62.585 17.312 62.6503 17.2653 62.7717 17.284L64.3817 17.536C64.475 17.5547 64.5217 17.606 64.5217 17.69C64.5217 17.7647 64.4937 17.9047 64.4377 18.11C64.2417 18.7353 63.859 19.2253 63.2897 19.58C62.7297 19.9347 62.081 20.112 61.3437 20.112ZM69.8292 14.218C69.8292 14.2647 69.8105 14.3067 69.7732 14.344C69.7452 14.372 69.7079 14.386 69.6612 14.386H68.3172C68.2705 14.386 68.2472 14.4093 68.2472 14.456V17.424C68.2472 17.732 68.3079 17.9607 68.4292 18.11C68.5599 18.2593 68.7652 18.334 69.0452 18.334H69.5072C69.5539 18.334 69.5912 18.3527 69.6192 18.39C69.6565 18.418 69.6752 18.4553 69.6752 18.502V19.832C69.6752 19.9347 69.6192 19.9953 69.5072 20.014C69.1152 20.0327 68.8352 20.042 68.6672 20.042C67.8925 20.042 67.3139 19.916 66.9312 19.664C66.5485 19.4027 66.3525 18.9173 66.3432 18.208V14.456C66.3432 14.4093 66.3199 14.386 66.2732 14.386H65.4752C65.4285 14.386 65.3865 14.372 65.3492 14.344C65.3212 14.3067 65.3072 14.2647 65.3072 14.218V12.972C65.3072 12.9253 65.3212 12.888 65.3492 12.86C65.3865 12.8227 65.4285 12.804 65.4752 12.804H66.2732C66.3199 12.804 66.3432 12.7807 66.3432 12.734V11.068C66.3432 11.0213 66.3572 10.984 66.3852 10.956C66.4225 10.9187 66.4645 10.9 66.5112 10.9H68.0792C68.1259 10.9 68.1632 10.9187 68.1912 10.956C68.2285 10.984 68.2472 11.0213 68.2472 11.068V12.734C68.2472 12.7807 68.2705 12.804 68.3172 12.804H69.6612C69.7079 12.804 69.7452 12.8227 69.7732 12.86C69.8105 12.888 69.8292 12.9253 69.8292 12.972V14.218ZM79.5743 10.368C79.5743 10.3213 79.5883 10.284 79.6163 10.256C79.6536 10.2187 79.6956 10.2 79.7423 10.2H81.3803C81.427 10.2 81.4643 10.2187 81.4923 10.256C81.5296 10.284 81.5483 10.3213 81.5483 10.368V19.832C81.5483 19.8787 81.5296 19.9207 81.4923 19.958C81.4643 19.986 81.427 20 81.3803 20H79.7983C79.705 20 79.6396 19.9627 79.6023 19.888L75.9763 13.896C75.9576 13.868 75.939 13.8587 75.9203 13.868C75.9016 13.868 75.8923 13.8867 75.8923 13.924L75.9203 19.832C75.9203 19.8787 75.9016 19.9207 75.8643 19.958C75.8363 19.986 75.799 20 75.7523 20H74.1143C74.0676 20 74.0256 19.986 73.9883 19.958C73.9603 19.9207 73.9463 19.8787 73.9463 19.832V10.368C73.9463 10.3213 73.9603 10.284 73.9883 10.256C74.0256 10.2187 74.0676 10.2 74.1143 10.2H75.6963C75.7896 10.2 75.855 10.2373 75.8923 10.312L79.5043 16.276C79.523 16.304 79.5416 16.318 79.5603 16.318C79.579 16.3087 79.5883 16.2853 79.5883 16.248L79.5743 10.368ZM86.0008 12.692C86.6075 12.692 87.1488 12.7993 87.6248 13.014C88.1008 13.2193 88.4695 13.504 88.7308 13.868C89.0015 14.232 89.1368 14.638 89.1368 15.086V19.832C89.1368 19.8787 89.1182 19.9207 89.0808 19.958C89.0528 19.986 89.0155 20 88.9688 20H87.3308C87.2842 20 87.2422 19.986 87.2048 19.958C87.1768 19.9207 87.1628 19.8787 87.1628 19.832V19.37C87.1628 19.342 87.1535 19.3233 87.1348 19.314C87.1162 19.3047 87.0975 19.314 87.0788 19.342C86.6868 19.8553 86.0568 20.112 85.1888 20.112C84.4608 20.112 83.8728 19.9347 83.4248 19.58C82.9768 19.2253 82.7528 18.7027 82.7528 18.012C82.7528 17.2933 83.0048 16.738 83.5088 16.346C84.0128 15.9447 84.7315 15.744 85.6648 15.744H87.0928C87.1395 15.744 87.1628 15.7207 87.1628 15.674V15.366C87.1628 15.058 87.0695 14.82 86.8828 14.652C86.6962 14.4747 86.4162 14.386 86.0428 14.386C85.7535 14.386 85.5108 14.4373 85.3148 14.54C85.1282 14.6427 85.0068 14.7873 84.9508 14.974C84.9228 15.0767 84.8622 15.1233 84.7688 15.114L83.0748 14.89C82.9628 14.8713 82.9115 14.8293 82.9208 14.764C82.9582 14.372 83.1122 14.0173 83.3828 13.7C83.6628 13.3827 84.0268 13.1353 84.4748 12.958C84.9322 12.7807 85.4408 12.692 86.0008 12.692ZM85.7208 18.642C86.1222 18.642 86.4628 18.5347 86.7428 18.32C87.0228 18.1053 87.1628 17.83 87.1628 17.494V16.99C87.1628 16.9433 87.1395 16.92 87.0928 16.92H86.0848C85.6648 16.92 85.3335 16.9993 85.0908 17.158C84.8575 17.3167 84.7408 17.5407 84.7408 17.83C84.7408 18.082 84.8295 18.2827 85.0068 18.432C85.1842 18.572 85.4222 18.642 85.7208 18.642ZM94.5069 14.218C94.5069 14.2647 94.4883 14.3067 94.4509 14.344C94.4229 14.372 94.3856 14.386 94.3389 14.386H92.9949C92.9483 14.386 92.9249 14.4093 92.9249 14.456V17.424C92.9249 17.732 92.9856 17.9607 93.1069 18.11C93.2376 18.2593 93.4429 18.334 93.7229 18.334H94.1849C94.2316 18.334 94.2689 18.3527 94.2969 18.39C94.3343 18.418 94.3529 18.4553 94.3529 18.502V19.832C94.3529 19.9347 94.2969 19.9953 94.1849 20.014C93.7929 20.0327 93.5129 20.042 93.3449 20.042C92.5703 20.042 91.9916 19.916 91.6089 19.664C91.2263 19.4027 91.0303 18.9173 91.0209 18.208V14.456C91.0209 14.4093 90.9976 14.386 90.9509 14.386H90.1529C90.1063 14.386 90.0643 14.372 90.0269 14.344C89.9989 14.3067 89.9849 14.2647 89.9849 14.218V12.972C89.9849 12.9253 89.9989 12.888 90.0269 12.86C90.0643 12.8227 90.1063 12.804 90.1529 12.804H90.9509C90.9976 12.804 91.0209 12.7807 91.0209 12.734V11.068C91.0209 11.0213 91.0349 10.984 91.0629 10.956C91.1003 10.9187 91.1423 10.9 91.1889 10.9H92.7569C92.8036 10.9 92.8409 10.9187 92.8689 10.956C92.9063 10.984 92.9249 11.0213 92.9249 11.068V12.734C92.9249 12.7807 92.9483 12.804 92.9949 12.804H94.3389C94.3856 12.804 94.4229 12.8227 94.4509 12.86C94.4883 12.888 94.5069 12.9253 94.5069 12.972V14.218ZM96.7593 11.992C96.442 11.992 96.176 11.8893 95.9613 11.684C95.756 11.4693 95.6533 11.2033 95.6533 10.886C95.6533 10.5593 95.756 10.2933 95.9613 10.088C96.1666 9.88267 96.4326 9.78 96.7593 9.78C97.086 9.78 97.352 9.88267 97.5573 10.088C97.7626 10.2933 97.8653 10.5593 97.8653 10.886C97.8653 11.2033 97.758 11.4693 97.5433 11.684C97.338 11.8893 97.0766 11.992 96.7593 11.992ZM95.9193 20C95.8726 20 95.8306 19.986 95.7933 19.958C95.7653 19.9207 95.7513 19.8787 95.7513 19.832V12.958C95.7513 12.9113 95.7653 12.874 95.7933 12.846C95.8306 12.8087 95.8726 12.79 95.9193 12.79H97.5573C97.604 12.79 97.6413 12.8087 97.6693 12.846C97.7066 12.874 97.7253 12.9113 97.7253 12.958V19.832C97.7253 19.8787 97.7066 19.9207 97.6693 19.958C97.6413 19.986 97.604 20 97.5573 20H95.9193ZM101.266 20C101.172 20 101.112 19.9533 101.084 19.86L98.8436 12.986C98.8343 12.9673 98.8296 12.944 98.8296 12.916C98.8296 12.832 98.881 12.79 98.9836 12.79H100.79C100.892 12.79 100.958 12.8367 100.986 12.93L102.134 17.172C102.143 17.2 102.157 17.214 102.176 17.214C102.194 17.214 102.208 17.2 102.218 17.172L103.366 12.93C103.394 12.8367 103.459 12.79 103.562 12.79L105.368 12.818C105.424 12.818 105.466 12.8367 105.494 12.874C105.522 12.902 105.526 12.9487 105.508 13.014L103.282 19.86C103.254 19.9533 103.193 20 103.1 20H101.266ZM112.442 15.66C112.498 16.0147 112.517 16.4113 112.498 16.85C112.489 16.962 112.428 17.018 112.316 17.018H107.99C107.934 17.018 107.916 17.0413 107.934 17.088C107.962 17.2747 108.014 17.4613 108.088 17.648C108.331 18.1707 108.826 18.432 109.572 18.432C110.17 18.4227 110.641 18.18 110.986 17.704C111.024 17.648 111.066 17.62 111.112 17.62C111.14 17.62 111.173 17.6387 111.21 17.676L112.218 18.67C112.265 18.7167 112.288 18.7587 112.288 18.796C112.288 18.8147 112.27 18.852 112.232 18.908C111.924 19.2907 111.528 19.5893 111.042 19.804C110.557 20.0093 110.025 20.112 109.446 20.112C108.644 20.112 107.962 19.93 107.402 19.566C106.852 19.202 106.455 18.6933 106.212 18.04C106.016 17.5733 105.918 16.962 105.918 16.206C105.918 15.6927 105.988 15.24 106.128 14.848C106.343 14.1853 106.716 13.658 107.248 13.266C107.79 12.874 108.429 12.678 109.166 12.678C110.1 12.678 110.846 12.9487 111.406 13.49C111.976 14.0313 112.321 14.7547 112.442 15.66ZM109.18 14.386C108.592 14.386 108.205 14.6613 108.018 15.212C107.981 15.3333 107.948 15.4827 107.92 15.66C107.92 15.7067 107.944 15.73 107.99 15.73H110.412C110.468 15.73 110.487 15.7067 110.468 15.66C110.422 15.3893 110.398 15.2587 110.398 15.268C110.314 14.988 110.165 14.7733 109.95 14.624C109.745 14.4653 109.488 14.386 109.18 14.386Z" fill="white"/>
<path d="M24.4922 10.1797C27.6562 11.2344 30 12.9922 30 14.75C30 16.625 27.5391 18.4414 24.1406 19.5547C23.9648 19.6133 23.7891 19.6719 23.6133 19.7305C23.6719 19.9648 23.7305 20.2578 23.7891 20.4922C24.4336 23.8906 23.9062 26.6445 22.3242 27.582C20.8008 28.4609 18.3398 27.582 15.8203 25.4141C15.5273 25.1797 15.293 24.9453 15 24.7109C14.8242 24.8867 14.5898 25.0625 14.4141 25.2383C11.8359 27.5234 9.14062 28.4609 7.55859 27.5234C6.03516 26.6445 5.56641 24.0664 6.15234 20.8438C6.26953 20.4922 6.32812 20.1406 6.38672 19.7891C6.15234 19.7305 5.85938 19.6133 5.625 19.5547C2.34375 18.4414 0 16.5664 0 14.75C0 12.9922 2.22656 11.293 5.33203 10.1797C5.68359 10.0625 6.03516 9.94531 6.44531 9.82812C6.32812 9.53516 6.26953 9.18359 6.21094 8.89062C5.56641 5.55078 6.03516 2.91406 7.55859 2.03516C9.14062 1.09766 11.8359 2.09375 14.5312 4.4375C14.6484 4.61328 14.8242 4.73047 15 4.90625C15.2344 4.67188 15.4688 4.4375 15.7031 4.26172C18.2812 2.03516 20.8008 1.09766 22.3242 1.97656C23.9062 2.91406 24.375 5.72656 23.6719 9.18359C23.6133 9.41797 23.5547 9.65234 23.5547 9.88672C23.8477 9.94531 24.1406 10.0625 24.4922 10.1797ZM16.5234 5.19922C16.2891 5.375 16.1133 5.60938 15.8789 5.78516C16.7578 6.78125 17.5781 7.83594 18.3398 8.94922C19.6875 9.06641 20.9766 9.24219 22.3242 9.53516C22.3828 9.35938 22.3828 9.18359 22.4414 8.94922C23.0859 5.96094 22.6758 3.61719 21.6797 3.08984C20.7422 2.5625 18.75 3.26562 16.5234 5.19922ZM9.78516 17.7969C9.49219 17.2695 9.19922 16.8008 8.90625 16.2734C8.55469 17.1523 8.26172 18.0312 7.96875 18.8516C8.84766 19.0859 9.78516 19.2031 10.7227 19.3203C10.3711 18.793 10.0781 18.3242 9.78516 17.7969ZM7.96875 10.7656C8.26172 11.5859 8.55469 12.4062 8.90625 13.2852C9.19922 12.7578 9.49219 12.2891 9.78516 11.7617C10.0781 11.293 10.3711 10.7656 10.6641 10.2969C9.72656 10.4141 8.84766 10.5312 7.96875 10.7656ZM9.60938 14.8086C10.0195 15.5703 10.4297 16.3906 10.8398 17.1523C11.3086 17.9141 11.7773 18.6758 12.3047 19.4375C13.1836 19.4961 14.0625 19.5547 15 19.5547C15.8789 19.5547 16.8164 19.4961 17.6953 19.4375C18.1641 18.6758 18.6328 17.9141 19.1016 17.1523C19.5703 16.3906 19.9805 15.5703 20.332 14.75C19.9805 13.9297 19.5117 13.168 19.1016 12.4062C18.6328 11.6445 18.1641 10.8828 17.6367 10.1211C16.8164 10.0625 15.8789 10.0039 15 10.0039C14.0625 10.0039 13.1836 10.0625 12.3047 10.1211C11.7773 10.8828 11.3086 11.6445 10.8398 12.4062C10.4297 13.168 9.96094 13.9883 9.60938 14.8086ZM20.1562 17.7969C19.8633 18.2656 19.5703 18.793 19.2773 19.2617C20.2148 19.2031 21.0938 19.0273 22.0312 18.793C21.7383 17.9141 21.3867 17.0938 21.0352 16.2148C20.7422 16.7422 20.5078 17.2695 20.1562 17.7969ZM21.0352 13.2852C21.3867 12.4648 21.6797 11.6445 21.9727 10.7656C21.1523 10.5898 20.2148 10.4141 19.2773 10.2969C19.5703 10.7656 19.8633 11.293 20.1562 11.7617C20.4492 12.2891 20.7422 12.7578 21.0352 13.2852ZM15 6.72266C14.4141 7.36719 13.8281 8.07031 13.2422 8.83203C14.4141 8.77344 15.5859 8.77344 16.6992 8.83203C16.1719 8.07031 15.5859 7.36719 15 6.72266ZM8.20312 3.08984C7.26562 3.67578 6.91406 5.78516 7.44141 8.59766C7.5 8.94922 7.55859 9.24219 7.67578 9.53516C8.96484 9.24219 10.2539 9.06641 11.6016 8.94922C12.3633 7.83594 13.1836 6.78125 14.1211 5.78516C13.9453 5.66797 13.8281 5.55078 13.6523 5.375C11.3672 3.38281 9.19922 2.5625 8.20312 3.08984ZM6.73828 18.5586C7.14844 17.2695 7.61719 15.9805 8.20312 14.8086C7.67578 13.5781 7.14844 12.3477 6.79688 11.0586C6.44531 11.1758 6.09375 11.2344 5.74219 11.3516C3.10547 12.2891 1.23047 13.6953 1.23047 14.75C1.34766 15.4531 1.75781 16.0977 2.34375 16.5078C3.33984 17.3281 4.80469 17.9141 6.03516 18.3242C6.26953 18.4414 6.50391 18.5 6.73828 18.5586ZM13.5938 24.3008C13.7695 24.125 13.9453 23.9492 14.1211 23.7734C13.2422 22.7773 12.3633 21.7227 11.6016 20.668C10.2539 20.5508 8.96484 20.375 7.61719 20.082C7.55859 20.375 7.5 20.7266 7.44141 21.0781C6.91406 23.832 7.26562 25.8828 8.20312 26.4688C8.90625 26.7031 9.60938 26.7031 10.2539 26.3516C11.4844 25.8828 12.5977 25.1797 13.5938 24.3008ZM15 22.8945C15.6445 22.1914 16.2305 21.4883 16.7578 20.7266C16.1719 20.7852 15.5859 20.7852 15 20.7852C14.4141 20.7852 13.8281 20.7852 13.2422 20.7266C13.8281 21.5469 14.4141 22.25 15 22.8945ZM22.6758 24.6523C22.8516 23.3633 22.793 22.0156 22.5586 20.7266C22.5 20.4922 22.4414 20.2578 22.3828 20.0234C21.0352 20.3164 19.7461 20.5508 18.3984 20.668C17.6367 21.7812 16.8164 22.7773 15.8789 23.7734C16.1719 24.0078 16.4062 24.2422 16.6406 24.4766C18.8086 26.293 20.8008 26.9961 21.7383 26.4688C22.2656 26 22.6172 25.3555 22.6758 24.6523ZM23.7305 18.3242C26.6602 17.3867 28.7109 15.8633 28.7109 14.75C28.7109 13.6953 26.7773 12.2891 24.082 11.3516C23.7891 11.2344 23.4961 11.1758 23.2031 11.0586C22.793 12.3477 22.3242 13.5781 21.7383 14.75C22.3242 15.9805 22.8516 17.2109 23.2617 18.5C23.4375 18.4414 23.5547 18.3828 23.7305 18.3242ZM15 17.4453C13.4766 17.4453 12.3047 16.2734 12.3047 14.75C12.3047 13.2852 13.4766 12.1133 15 12.1133C16.4648 12.1133 17.6367 13.2852 17.6367 14.75C17.6367 16.2734 16.4648 17.4453 15 17.4453Z" fill="white"/>
<path fill-rule="evenodd" clip-rule="evenodd" d="M185.972 18.6281C185.867 18.7164 185.783 18.8229 185.724 18.9412C185.666 19.0595 185.634 19.1871 185.632 19.3166C185.629 19.4461 185.656 19.5747 185.709 19.6948C185.763 19.8148 185.843 19.9239 185.945 20.0155C186.046 20.107 186.167 20.1792 186.3 20.2277C186.433 20.2762 186.575 20.3001 186.719 20.2978C186.862 20.2955 187.004 20.2671 187.135 20.2144C187.266 20.1617 187.384 20.0857 187.482 19.991L192.111 15.8124L192.868 15.131L192.113 14.4496L187.483 10.271C187.282 10.0953 187.012 9.99796 186.732 10C186.452 10.0021 186.184 10.1034 185.985 10.2821C185.787 10.4608 185.675 10.7026 185.672 10.9555C185.67 11.2083 185.777 11.4519 185.972 11.6339L188.778 14.1667H173.993C173.71 14.1667 173.438 14.2683 173.238 14.4492C173.037 14.63 172.925 14.8753 172.925 15.131C172.925 15.3868 173.037 15.632 173.238 15.8129C173.438 15.9937 173.71 16.0953 173.993 16.0953H188.778L185.972 18.6281Z" fill="white"/>
</svg>
