<svg width="186" height="22" viewBox="0 0 186 22" fill="none" xmlns="http://www.w3.org/2000/svg">
<path d="M34.1935 15.112C33.4468 15.112 32.7935 14.9953 32.2335 14.762C31.6735 14.5193 31.2395 14.1787 30.9315 13.74C30.6328 13.292 30.4835 12.774 30.4835 12.186V11.878C30.4835 11.8313 30.4975 11.794 30.5255 11.766C30.5628 11.7287 30.6048 11.71 30.6515 11.71H32.2475C32.2942 11.71 32.3315 11.7287 32.3595 11.766C32.3968 11.794 32.4155 11.8313 32.4155 11.878V12.088C32.4155 12.4613 32.5882 12.7787 32.9335 13.04C33.2788 13.292 33.7455 13.418 34.3335 13.418C34.8282 13.418 35.1968 13.3153 35.4395 13.11C35.6822 12.8953 35.8035 12.634 35.8035 12.326C35.8035 12.102 35.7288 11.9153 35.5795 11.766C35.4302 11.6073 35.2248 11.472 34.9635 11.36C34.7115 11.2387 34.3055 11.0753 33.7455 10.87C33.1202 10.6553 32.5882 10.436 32.1495 10.212C31.7202 9.988 31.3562 9.68467 31.0575 9.302C30.7682 8.91 30.6235 8.42933 30.6235 7.86C30.6235 7.3 30.7682 6.81 31.0575 6.39C31.3468 5.97 31.7482 5.648 32.2615 5.424C32.7748 5.2 33.3675 5.088 34.0395 5.088C34.7488 5.088 35.3788 5.214 35.9295 5.466C36.4895 5.718 36.9235 6.07267 37.2315 6.53C37.5488 6.978 37.7075 7.50067 37.7075 8.098V8.308C37.7075 8.35467 37.6888 8.39667 37.6515 8.434C37.6235 8.462 37.5862 8.476 37.5395 8.476H35.9295C35.8828 8.476 35.8408 8.462 35.8035 8.434C35.7755 8.39667 35.7615 8.35467 35.7615 8.308V8.196C35.7615 7.804 35.5982 7.47267 35.2715 7.202C34.9542 6.922 34.5155 6.782 33.9555 6.782C33.5168 6.782 33.1715 6.87533 32.9195 7.062C32.6768 7.24867 32.5555 7.50533 32.5555 7.832C32.5555 8.06533 32.6255 8.26133 32.7655 8.42C32.9148 8.57867 33.1295 8.72333 33.4095 8.854C33.6988 8.97533 34.1422 9.14333 34.7395 9.358C35.4022 9.60067 35.9202 9.81533 36.2935 10.002C36.6762 10.1887 37.0168 10.4687 37.3155 10.842C37.6235 11.206 37.7775 11.682 37.7775 12.27C37.7775 13.1473 37.4555 13.8427 36.8115 14.356C36.1675 14.86 35.2948 15.112 34.1935 15.112ZM43.1637 9.218C43.1637 9.26467 43.145 9.30667 43.1077 9.344C43.0797 9.372 43.0423 9.386 42.9957 9.386H41.6517C41.605 9.386 41.5817 9.40933 41.5817 9.456V12.424C41.5817 12.732 41.6423 12.9607 41.7637 13.11C41.8943 13.2593 42.0997 13.334 42.3797 13.334H42.8417C42.8883 13.334 42.9257 13.3527 42.9537 13.39C42.991 13.418 43.0097 13.4553 43.0097 13.502V14.832C43.0097 14.9347 42.9537 14.9953 42.8417 15.014C42.4497 15.0327 42.1697 15.042 42.0017 15.042C41.227 15.042 40.6483 14.916 40.2657 14.664C39.883 14.4027 39.687 13.9173 39.6777 13.208V9.456C39.6777 9.40933 39.6543 9.386 39.6077 9.386H38.8097C38.763 9.386 38.721 9.372 38.6837 9.344C38.6557 9.30667 38.6417 9.26467 38.6417 9.218V7.972C38.6417 7.92533 38.6557 7.888 38.6837 7.86C38.721 7.82267 38.763 7.804 38.8097 7.804H39.6077C39.6543 7.804 39.6777 7.78067 39.6777 7.734V6.068C39.6777 6.02133 39.6917 5.984 39.7197 5.956C39.757 5.91867 39.799 5.9 39.8457 5.9H41.4137C41.4603 5.9 41.4977 5.91867 41.5257 5.956C41.563 5.984 41.5817 6.02133 41.5817 6.068V7.734C41.5817 7.78067 41.605 7.804 41.6517 7.804H42.9957C43.0423 7.804 43.0797 7.82267 43.1077 7.86C43.145 7.888 43.1637 7.92533 43.1637 7.972V9.218ZM44.31 17.786C44.282 17.786 44.2587 17.7673 44.24 17.73C44.2214 17.702 44.212 17.6647 44.212 17.618V16.33C44.212 16.2833 44.226 16.2413 44.254 16.204C44.2914 16.176 44.3334 16.162 44.38 16.162C44.772 16.1527 45.08 16.12 45.304 16.064C45.5374 16.008 45.7194 15.9007 45.85 15.742C45.99 15.5833 46.0974 15.35 46.172 15.042C46.1814 15.0233 46.1814 14.9953 46.172 14.958L43.876 7.986C43.8667 7.96733 43.862 7.944 43.862 7.916C43.862 7.832 43.9134 7.79 44.016 7.79H45.766C45.8687 7.79 45.934 7.83667 45.962 7.93L47.138 12.466C47.1474 12.494 47.1614 12.508 47.18 12.508C47.1987 12.508 47.2127 12.494 47.222 12.466L48.398 7.93C48.426 7.83667 48.4914 7.79 48.594 7.79H50.302C50.358 7.79 50.3954 7.80867 50.414 7.846C50.442 7.874 50.4467 7.92067 50.428 7.986L48.006 15.266C47.7727 15.9473 47.5347 16.456 47.292 16.792C47.0494 17.1373 46.7087 17.3893 46.27 17.548C45.8314 17.7067 45.2107 17.786 44.408 17.786H44.31ZM51.5884 15C51.5417 15 51.4997 14.986 51.4624 14.958C51.4344 14.9207 51.4204 14.8787 51.4204 14.832V5.368C51.4204 5.32133 51.4344 5.284 51.4624 5.256C51.4997 5.21867 51.5417 5.2 51.5884 5.2H53.2264C53.273 5.2 53.3104 5.21867 53.3384 5.256C53.3757 5.284 53.3944 5.32133 53.3944 5.368V14.832C53.3944 14.8787 53.3757 14.9207 53.3384 14.958C53.3104 14.986 53.273 15 53.2264 15H51.5884ZM61.2084 10.66C61.2644 11.0147 61.283 11.4113 61.2644 11.85C61.255 11.962 61.1944 12.018 61.0824 12.018H56.7564C56.7004 12.018 56.6817 12.0413 56.7004 12.088C56.7284 12.2747 56.7797 12.4613 56.8544 12.648C57.097 13.1707 57.5917 13.432 58.3384 13.432C58.9357 13.4227 59.407 13.18 59.7524 12.704C59.7897 12.648 59.8317 12.62 59.8784 12.62C59.9064 12.62 59.939 12.6387 59.9764 12.676L60.9844 13.67C61.031 13.7167 61.0544 13.7587 61.0544 13.796C61.0544 13.8147 61.0357 13.852 60.9984 13.908C60.6904 14.2907 60.2937 14.5893 59.8084 14.804C59.323 15.0093 58.791 15.112 58.2124 15.112C57.4097 15.112 56.7284 14.93 56.1684 14.566C55.6177 14.202 55.221 13.6933 54.9784 13.04C54.7824 12.5733 54.6844 11.962 54.6844 11.206C54.6844 10.6927 54.7544 10.24 54.8944 9.848C55.109 9.18533 55.4824 8.658 56.0144 8.266C56.5557 7.874 57.195 7.678 57.9324 7.678C58.8657 7.678 59.6124 7.94867 60.1724 8.49C60.7417 9.03133 61.087 9.75467 61.2084 10.66ZM57.9464 9.386C57.3584 9.386 56.971 9.66133 56.7844 10.212C56.747 10.3333 56.7144 10.4827 56.6864 10.66C56.6864 10.7067 56.7097 10.73 56.7564 10.73H59.1784C59.2344 10.73 59.253 10.7067 59.2344 10.66C59.1877 10.3893 59.1644 10.2587 59.1644 10.268C59.0804 9.988 58.931 9.77333 58.7164 9.624C58.511 9.46533 58.2544 9.386 57.9464 9.386ZM66.9469 5.368C66.9469 5.32133 66.9609 5.284 66.9889 5.256C67.0263 5.21867 67.0683 5.2 67.1149 5.2H68.7529C68.7996 5.2 68.8369 5.21867 68.8649 5.256C68.9023 5.284 68.9209 5.32133 68.9209 5.368V14.832C68.9209 14.8787 68.9023 14.9207 68.8649 14.958C68.8369 14.986 68.7996 15 68.7529 15H67.1149C67.0683 15 67.0263 14.986 66.9889 14.958C66.9609 14.9207 66.9469 14.8787 66.9469 14.832V14.37C66.9469 14.342 66.9376 14.328 66.9189 14.328C66.9003 14.3187 66.8816 14.3233 66.8629 14.342C66.4709 14.8553 65.9343 15.112 65.2529 15.112C64.5996 15.112 64.0349 14.93 63.5589 14.566C63.0923 14.202 62.7563 13.7027 62.5509 13.068C62.3923 12.5827 62.3129 12.018 62.3129 11.374C62.3129 10.7113 62.3969 10.1327 62.5649 9.638C62.7796 9.04067 63.1156 8.56933 63.5729 8.224C64.0396 7.86933 64.6136 7.692 65.2949 7.692C65.9669 7.692 66.4896 7.92533 66.8629 8.392C66.8816 8.42 66.9003 8.42933 66.9189 8.42C66.9376 8.41067 66.9469 8.392 66.9469 8.364V5.368ZM66.6529 12.816C66.8396 12.4707 66.9329 11.9993 66.9329 11.402C66.9329 10.7767 66.8303 10.2867 66.6249 9.932C66.4103 9.568 66.0976 9.386 65.6869 9.386C65.2483 9.386 64.9169 9.568 64.6929 9.932C64.4596 10.296 64.3429 10.7907 64.3429 11.416C64.3429 11.976 64.4409 12.4427 64.6369 12.816C64.8703 13.2173 65.2156 13.418 65.6729 13.418C66.0929 13.418 66.4196 13.2173 66.6529 12.816ZM70.2566 11.71C70.21 11.71 70.168 11.696 70.1306 11.668C70.1026 11.6307 70.0886 11.5887 70.0886 11.542V10.184C70.0886 10.1373 70.1026 10.1 70.1306 10.072C70.168 10.0347 70.21 10.016 70.2566 10.016H74.8346C74.8813 10.016 74.9186 10.0347 74.9466 10.072C74.984 10.1 75.0026 10.1373 75.0026 10.184V11.542C75.0026 11.5887 74.984 11.6307 74.9466 11.668C74.9186 11.696 74.8813 11.71 74.8346 11.71H70.2566ZM79.3031 15.112C78.5565 15.112 77.9078 14.9253 77.3571 14.552C76.8158 14.1787 76.4285 13.6653 76.1951 13.012C76.0365 12.5453 75.9571 11.9947 75.9571 11.36C75.9571 10.7347 76.0365 10.1933 76.1951 9.736C76.4191 9.10133 76.8065 8.602 77.3571 8.238C77.9078 7.874 78.5565 7.692 79.3031 7.692C80.0498 7.692 80.7031 7.87867 81.2631 8.252C81.8325 8.62533 82.2105 9.09667 82.3971 9.666C82.4718 9.89 82.5091 10.058 82.5091 10.17V10.198C82.5091 10.282 82.4625 10.3333 82.3691 10.352L80.7591 10.59H80.7311C80.6471 10.59 80.5911 10.5433 80.5631 10.45L80.5211 10.226C80.4558 9.98333 80.3111 9.78267 80.0871 9.624C79.8631 9.46533 79.5971 9.386 79.2891 9.386C78.9905 9.386 78.7385 9.46067 78.5331 9.61C78.3278 9.75933 78.1831 9.96467 78.0991 10.226C77.9965 10.506 77.9451 10.8887 77.9451 11.374C77.9451 11.8593 77.9918 12.242 78.0851 12.522C78.1691 12.802 78.3138 13.0213 78.5191 13.18C78.7338 13.3387 78.9905 13.418 79.2891 13.418C79.5785 13.418 79.8305 13.3433 80.0451 13.194C80.2691 13.0353 80.4231 12.8207 80.5071 12.55C80.5165 12.5313 80.5211 12.5033 80.5211 12.466C80.5305 12.4567 80.5351 12.4427 80.5351 12.424C80.5445 12.312 80.6098 12.2653 80.7311 12.284L82.3411 12.536C82.4345 12.5547 82.4811 12.606 82.4811 12.69C82.4811 12.7647 82.4531 12.9047 82.3971 13.11C82.2011 13.7353 81.8185 14.2253 81.2491 14.58C80.6891 14.9347 80.0405 15.112 79.3031 15.112ZM86.7546 15.112C85.9706 15.112 85.2986 14.9067 84.7386 14.496C84.1786 14.0853 83.796 13.5253 83.5906 12.816C83.46 12.3773 83.3946 11.9013 83.3946 11.388C83.3946 10.8373 83.46 10.3427 83.5906 9.904C83.8053 9.21333 84.1926 8.672 84.7526 8.28C85.3126 7.888 85.9846 7.692 86.7686 7.692C87.534 7.692 88.1873 7.888 88.7286 8.28C89.27 8.66267 89.6526 9.19933 89.8766 9.89C90.026 10.3567 90.1006 10.8467 90.1006 11.36C90.1006 11.864 90.0353 12.3353 89.9046 12.774C89.6993 13.502 89.3166 14.076 88.7566 14.496C88.206 14.9067 87.5386 15.112 86.7546 15.112ZM86.7546 13.418C87.0626 13.418 87.324 13.3247 87.5386 13.138C87.7533 12.9513 87.9073 12.6947 88.0006 12.368C88.0753 12.0693 88.1126 11.7427 88.1126 11.388C88.1126 10.996 88.0753 10.6647 88.0006 10.394C87.898 10.0767 87.7393 9.82933 87.5246 9.652C87.31 9.47467 87.0486 9.386 86.7406 9.386C86.4233 9.386 86.1573 9.47467 85.9426 9.652C85.7373 9.82933 85.588 10.0767 85.4946 10.394C85.42 10.618 85.3826 10.9493 85.3826 11.388C85.3826 11.808 85.4153 12.1347 85.4806 12.368C85.574 12.6947 85.728 12.9513 85.9426 13.138C86.1666 13.3247 86.4373 13.418 86.7546 13.418ZM99.3496 7.692C100.078 7.692 100.647 7.91133 101.058 8.35C101.468 8.78867 101.674 9.40467 101.674 10.198V14.832C101.674 14.8787 101.655 14.9207 101.618 14.958C101.59 14.986 101.552 15 101.506 15H99.8676C99.8209 15 99.7789 14.986 99.7416 14.958C99.7136 14.9207 99.6996 14.8787 99.6996 14.832V10.632C99.6996 10.2493 99.6016 9.946 99.4056 9.722C99.2096 9.498 98.9483 9.386 98.6216 9.386C98.2949 9.386 98.0289 9.498 97.8236 9.722C97.6183 9.946 97.5156 10.2447 97.5156 10.618V14.832C97.5156 14.8787 97.4969 14.9207 97.4596 14.958C97.4316 14.986 97.3943 15 97.3476 15H95.7236C95.6769 15 95.6349 14.986 95.5976 14.958C95.5696 14.9207 95.5556 14.8787 95.5556 14.832V10.632C95.5556 10.2587 95.4529 9.96 95.2476 9.736C95.0423 9.50267 94.7763 9.386 94.4496 9.386C94.1509 9.386 93.8989 9.47467 93.6936 9.652C93.4976 9.82933 93.3809 10.0767 93.3436 10.394V14.832C93.3436 14.8787 93.3249 14.9207 93.2876 14.958C93.2596 14.986 93.2223 15 93.1756 15H91.5376C91.4909 15 91.4489 14.986 91.4116 14.958C91.3836 14.9207 91.3696 14.8787 91.3696 14.832V7.972C91.3696 7.92533 91.3836 7.888 91.4116 7.86C91.4489 7.82267 91.4909 7.804 91.5376 7.804H93.1756C93.2223 7.804 93.2596 7.82267 93.2876 7.86C93.3249 7.888 93.3436 7.92533 93.3436 7.972V8.518C93.3436 8.546 93.3529 8.56467 93.3716 8.574C93.3903 8.58333 93.4089 8.574 93.4276 8.546C93.8103 7.97667 94.4029 7.692 95.2056 7.692C95.6723 7.692 96.0783 7.79 96.4236 7.986C96.7783 8.182 97.0489 8.462 97.2356 8.826C97.2636 8.882 97.2963 8.882 97.3336 8.826C97.5389 8.44333 97.8143 8.15867 98.1596 7.972C98.5143 7.78533 98.9109 7.692 99.3496 7.692ZM109.485 9.736C109.653 10.212 109.737 10.772 109.737 11.416C109.737 12.06 109.648 12.6433 109.471 13.166C109.256 13.7633 108.916 14.2393 108.449 14.594C107.992 14.9393 107.422 15.112 106.741 15.112C106.069 15.112 105.546 14.8787 105.173 14.412C105.154 14.384 105.136 14.3747 105.117 14.384C105.098 14.3933 105.089 14.412 105.089 14.44V17.436C105.089 17.4827 105.07 17.52 105.033 17.548C105.005 17.5853 104.968 17.604 104.921 17.604H103.283C103.236 17.604 103.194 17.5853 103.157 17.548C103.129 17.52 103.115 17.4827 103.115 17.436V7.972C103.115 7.92533 103.129 7.888 103.157 7.86C103.194 7.82267 103.236 7.804 103.283 7.804H104.921C104.968 7.804 105.005 7.82267 105.033 7.86C105.07 7.888 105.089 7.92533 105.089 7.972V8.434C105.089 8.462 105.098 8.48067 105.117 8.49C105.136 8.49 105.154 8.48067 105.173 8.462C105.565 7.94867 106.106 7.692 106.797 7.692C107.441 7.692 107.996 7.874 108.463 8.238C108.939 8.59267 109.28 9.092 109.485 9.736ZM107.343 12.872C107.576 12.508 107.693 12.0133 107.693 11.388C107.693 10.8 107.595 10.3333 107.399 9.988C107.184 9.58667 106.839 9.386 106.363 9.386C105.934 9.386 105.612 9.58667 105.397 9.988C105.201 10.324 105.103 10.7953 105.103 11.402C105.103 12.0273 105.206 12.5127 105.411 12.858C105.626 13.2313 105.943 13.418 106.363 13.418C106.783 13.418 107.11 13.236 107.343 12.872ZM114.153 15.112C113.369 15.112 112.697 14.9067 112.137 14.496C111.577 14.0853 111.194 13.5253 110.989 12.816C110.858 12.3773 110.793 11.9013 110.793 11.388C110.793 10.8373 110.858 10.3427 110.989 9.904C111.204 9.21333 111.591 8.672 112.151 8.28C112.711 7.888 113.383 7.692 114.167 7.692C114.932 7.692 115.586 7.888 116.127 8.28C116.668 8.66267 117.051 9.19933 117.275 9.89C117.424 10.3567 117.499 10.8467 117.499 11.36C117.499 11.864 117.434 12.3353 117.303 12.774C117.098 13.502 116.715 14.076 116.155 14.496C115.604 14.9067 114.937 15.112 114.153 15.112ZM114.153 13.418C114.461 13.418 114.722 13.3247 114.937 13.138C115.152 12.9513 115.306 12.6947 115.399 12.368C115.474 12.0693 115.511 11.7427 115.511 11.388C115.511 10.996 115.474 10.6647 115.399 10.394C115.296 10.0767 115.138 9.82933 114.923 9.652C114.708 9.47467 114.447 9.386 114.139 9.386C113.822 9.386 113.556 9.47467 113.341 9.652C113.136 9.82933 112.986 10.0767 112.893 10.394C112.818 10.618 112.781 10.9493 112.781 11.388C112.781 11.808 112.814 12.1347 112.879 12.368C112.972 12.6947 113.126 12.9513 113.341 13.138C113.565 13.3247 113.836 13.418 114.153 13.418ZM122.52 7.692C123.267 7.692 123.869 7.92067 124.326 8.378C124.783 8.83533 125.012 9.456 125.012 10.24V14.832C125.012 14.8787 124.993 14.9207 124.956 14.958C124.928 14.986 124.891 15 124.844 15H123.206C123.159 15 123.117 14.986 123.08 14.958C123.052 14.9207 123.038 14.8787 123.038 14.832V10.646C123.038 10.2727 122.931 9.96933 122.716 9.736C122.511 9.50267 122.235 9.386 121.89 9.386C121.545 9.386 121.265 9.50267 121.05 9.736C120.845 9.96933 120.742 10.2727 120.742 10.646V14.832C120.742 14.8787 120.723 14.9207 120.686 14.958C120.658 14.986 120.621 15 120.574 15H118.936C118.889 15 118.847 14.986 118.81 14.958C118.782 14.9207 118.768 14.8787 118.768 14.832V7.972C118.768 7.92533 118.782 7.888 118.81 7.86C118.847 7.82267 118.889 7.804 118.936 7.804H120.574C120.621 7.804 120.658 7.82267 120.686 7.86C120.723 7.888 120.742 7.92533 120.742 7.972V8.462C120.742 8.49 120.751 8.50867 120.77 8.518C120.789 8.52733 120.803 8.52267 120.812 8.504C121.195 7.96267 121.764 7.692 122.52 7.692ZM132.753 10.66C132.809 11.0147 132.828 11.4113 132.809 11.85C132.8 11.962 132.739 12.018 132.627 12.018H128.301C128.245 12.018 128.227 12.0413 128.245 12.088C128.273 12.2747 128.325 12.4613 128.399 12.648C128.642 13.1707 129.137 13.432 129.883 13.432C130.481 13.4227 130.952 13.18 131.297 12.704C131.335 12.648 131.377 12.62 131.423 12.62C131.451 12.62 131.484 12.6387 131.521 12.676L132.529 13.67C132.576 13.7167 132.599 13.7587 132.599 13.796C132.599 13.8147 132.581 13.852 132.543 13.908C132.235 14.2907 131.839 14.5893 131.353 14.804C130.868 15.0093 130.336 15.112 129.757 15.112C128.955 15.112 128.273 14.93 127.713 14.566C127.163 14.202 126.766 13.6933 126.523 13.04C126.327 12.5733 126.229 11.962 126.229 11.206C126.229 10.6927 126.299 10.24 126.439 9.848C126.654 9.18533 127.027 8.658 127.559 8.266C128.101 7.874 128.74 7.678 129.477 7.678C130.411 7.678 131.157 7.94867 131.717 8.49C132.287 9.03133 132.632 9.75467 132.753 10.66ZM129.491 9.386C128.903 9.386 128.516 9.66133 128.329 10.212C128.292 10.3333 128.259 10.4827 128.231 10.66C128.231 10.7067 128.255 10.73 128.301 10.73H130.723C130.779 10.73 130.798 10.7067 130.779 10.66C130.733 10.3893 130.709 10.2587 130.709 10.268C130.625 9.988 130.476 9.77333 130.261 9.624C130.056 9.46533 129.799 9.386 129.491 9.386ZM137.778 7.692C138.525 7.692 139.127 7.92067 139.584 8.378C140.041 8.83533 140.27 9.456 140.27 10.24V14.832C140.27 14.8787 140.251 14.9207 140.214 14.958C140.186 14.986 140.149 15 140.102 15H138.464C138.417 15 138.375 14.986 138.338 14.958C138.31 14.9207 138.296 14.8787 138.296 14.832V10.646C138.296 10.2727 138.189 9.96933 137.974 9.736C137.769 9.50267 137.493 9.386 137.148 9.386C136.803 9.386 136.523 9.50267 136.308 9.736C136.103 9.96933 136 10.2727 136 10.646V14.832C136 14.8787 135.981 14.9207 135.944 14.958C135.916 14.986 135.879 15 135.832 15H134.194C134.147 15 134.105 14.986 134.068 14.958C134.04 14.9207 134.026 14.8787 134.026 14.832V7.972C134.026 7.92533 134.04 7.888 134.068 7.86C134.105 7.82267 134.147 7.804 134.194 7.804H135.832C135.879 7.804 135.916 7.82267 135.944 7.86C135.981 7.888 136 7.92533 136 7.972V8.462C136 8.49 136.009 8.50867 136.028 8.518C136.047 8.52733 136.061 8.52267 136.07 8.504C136.453 7.96267 137.022 7.692 137.778 7.692ZM145.812 9.218C145.812 9.26467 145.793 9.30667 145.756 9.344C145.728 9.372 145.691 9.386 145.644 9.386H144.3C144.253 9.386 144.23 9.40933 144.23 9.456V12.424C144.23 12.732 144.291 12.9607 144.412 13.11C144.543 13.2593 144.748 13.334 145.028 13.334H145.49C145.537 13.334 145.574 13.3527 145.602 13.39C145.639 13.418 145.658 13.4553 145.658 13.502V14.832C145.658 14.9347 145.602 14.9953 145.49 15.014C145.098 15.0327 144.818 15.042 144.65 15.042C143.875 15.042 143.297 14.916 142.914 14.664C142.531 14.4027 142.335 13.9173 142.326 13.208V9.456C142.326 9.40933 142.303 9.386 142.256 9.386H141.458C141.411 9.386 141.369 9.372 141.332 9.344C141.304 9.30667 141.29 9.26467 141.29 9.218V7.972C141.29 7.92533 141.304 7.888 141.332 7.86C141.369 7.82267 141.411 7.804 141.458 7.804H142.256C142.303 7.804 142.326 7.78067 142.326 7.734V6.068C142.326 6.02133 142.34 5.984 142.368 5.956C142.405 5.91867 142.447 5.9 142.494 5.9H144.062C144.109 5.9 144.146 5.91867 144.174 5.956C144.211 5.984 144.23 6.02133 144.23 6.068V7.734C144.23 7.78067 144.253 7.804 144.3 7.804H145.644C145.691 7.804 145.728 7.82267 145.756 7.86C145.793 7.888 145.812 7.92533 145.812 7.972V9.218ZM149.87 15.098C149.245 15.098 148.699 15.0093 148.232 14.832C147.766 14.6547 147.402 14.4073 147.14 14.09C146.888 13.7727 146.762 13.4133 146.762 13.012V12.872C146.762 12.8253 146.776 12.788 146.804 12.76C146.842 12.7227 146.884 12.704 146.93 12.704H148.484C148.531 12.704 148.568 12.7227 148.596 12.76C148.634 12.788 148.652 12.8253 148.652 12.872V12.886C148.652 13.0913 148.764 13.2687 148.988 13.418C149.222 13.558 149.511 13.628 149.856 13.628C150.174 13.628 150.43 13.5673 150.626 13.446C150.822 13.3153 150.92 13.1567 150.92 12.97C150.92 12.802 150.836 12.676 150.668 12.592C150.5 12.508 150.225 12.4193 149.842 12.326C149.404 12.214 149.058 12.1067 148.806 12.004C148.209 11.7987 147.733 11.5467 147.378 11.248C147.024 10.9493 146.846 10.52 146.846 9.96C146.846 9.26933 147.112 8.72333 147.644 8.322C148.186 7.91133 148.9 7.706 149.786 7.706C150.384 7.706 150.906 7.804 151.354 8C151.802 8.18667 152.148 8.45267 152.39 8.798C152.642 9.14333 152.768 9.53533 152.768 9.974C152.768 10.0207 152.75 10.0627 152.712 10.1C152.684 10.128 152.647 10.142 152.6 10.142H151.102C151.056 10.142 151.014 10.128 150.976 10.1C150.948 10.0627 150.934 10.0207 150.934 9.974C150.934 9.76867 150.827 9.596 150.612 9.456C150.407 9.316 150.132 9.246 149.786 9.246C149.478 9.246 149.226 9.302 149.03 9.414C148.834 9.526 148.736 9.68 148.736 9.876C148.736 10.0627 148.83 10.2027 149.016 10.296C149.212 10.3893 149.534 10.4873 149.982 10.59C150.085 10.618 150.202 10.6507 150.332 10.688C150.463 10.716 150.603 10.7533 150.752 10.8C151.415 10.996 151.938 11.248 152.32 11.556C152.703 11.864 152.894 12.312 152.894 12.9C152.894 13.5907 152.619 14.132 152.068 14.524C151.527 14.9067 150.794 15.098 149.87 15.098Z" fill="white"/>
<path d="M22.6511 0H1.33242C0.596258 0 0 0.528197 0 1.18033V20.0656C0 20.7177 0.596258 21.2459 1.33242 21.2459H22.6511C23.3873 21.2459 23.9835 20.7177 23.9835 20.0656V1.18033C23.9835 0.528197 23.3873 0 22.6511 0Z" fill="url(#paint0_linear_59_55)"/>
<path d="M16.0078 6.37378L15.937 6.69097C15.8276 7.29208 15.8672 7.46406 16.1673 7.68715L16.457 7.8932L16.1569 9.04351C15.9776 9.72981 15.7577 10.305 15.6181 10.494C15.4982 10.657 15.3586 10.8972 15.3284 11.0261C15.2784 11.1803 15.1085 11.3352 14.849 11.4723C14.6197 11.5843 14.1696 11.8844 13.8507 12.1253C13.5959 12.3225 13.4204 12.4433 13.3251 12.4953L13.0137 12.707C12.9336 12.8091 12.8734 12.9217 12.8354 13.0404C12.8137 13.1272 12.8259 13.1848 12.858 13.227C12.8891 13.2675 12.9429 13.2959 13.0165 13.3138C13.1037 13.3313 13.1933 13.3376 13.2826 13.3324C13.4846 13.3206 13.6846 13.2901 13.879 13.2416C13.945 13.2262 13.9969 13.2116 14.0422 13.1986C14.1121 13.1248 14.2734 12.9852 14.5593 12.7427C15.318 12.0994 15.6077 11.7473 15.3086 11.8422C15.1982 11.8763 15.2482 11.7903 15.4378 11.6183C15.8379 11.2833 16.0672 10.7771 16.5466 9.18953C16.9259 7.93619 16.9259 7.91835 17.2052 7.91835C17.3364 7.91835 17.7072 7.93782 17.7072 7.93782V6.37378H16.8561H16.0078ZM19.6303 8.9413C19.5699 8.9413 19.4699 9.01918 19.4105 9.10516C19.301 9.2593 19.4303 9.3534 21.0778 10.2376C22.0564 10.7706 22.8452 11.2249 22.8254 11.2598C22.8056 11.2849 22.0064 11.7319 21.0486 12.247C19.3104 13.1734 19.301 13.1824 19.4605 13.3714C19.6605 13.5945 19.4605 13.6715 21.7167 12.4612L23.3548 11.5599V10.8817L21.527 9.91152C20.539 9.37936 19.6803 8.95022 19.6303 8.9413ZM4.45228 9.03621C4.40226 9.03621 3.54357 9.47427 2.55561 9.99751L0.708008 10.9677V11.6459L2.54523 12.6332C3.56433 13.1734 4.42302 13.6204 4.46265 13.6204C4.50229 13.6204 4.58249 13.5426 4.6627 13.4484C4.78254 13.2854 4.68157 13.2164 2.99439 12.2981C1.38741 11.4309 1.21756 11.3109 1.37797 11.2168C1.478 11.1567 2.23667 10.7528 3.05572 10.3155C4.92314 9.32825 4.82312 9.39639 4.67308 9.19034C4.61363 9.10517 4.51267 9.0281 4.45322 9.03621H4.45228ZM12.6466 9.05487C12.3711 9.05325 11.7785 9.41424 10.0045 10.6595C9.92808 10.816 9.92147 10.9239 9.95639 10.9937C9.97903 11.0416 10.0206 11.0748 10.0781 11.0991C10.1347 11.1235 10.2083 11.1381 10.2895 11.1438C10.4508 11.1559 10.6414 11.134 10.7953 11.1081L10.8991 11.0878C10.9346 11.0468 10.9812 11.014 11.0349 10.9921C11.1444 10.9401 11.6039 10.58 12.0635 10.1938C12.8722 9.48968 13.0618 9.17168 12.7325 9.06866C12.7055 9.05942 12.6757 9.05474 12.6466 9.05487ZM14.7188 9.54404C14.4763 9.54971 14.0394 9.79146 13.2911 10.305C12.9156 10.567 12.6778 10.7081 12.5504 10.7373L12.0559 11.0732C11.87 11.3652 11.8427 11.5461 11.8917 11.6459C11.904 11.6705 11.9219 11.6928 11.9442 11.7115C11.9666 11.7301 11.993 11.7448 12.022 11.7546C12.0941 11.7791 12.1709 11.7915 12.2484 11.7911C12.4336 11.7894 12.6177 11.7662 12.7957 11.7222C12.8885 11.7008 12.9801 11.6759 13.0703 11.6475L13.0977 11.6378L13.1477 11.6151C13.2421 11.5104 13.4591 11.3133 13.7308 11.0862C14.5895 10.3739 15.0283 9.86771 14.9387 9.6787C14.8981 9.58703 14.8283 9.54079 14.7188 9.54404ZM12.4315 10.4202C12.3617 10.4266 12.205 10.5305 11.9229 10.743C11.5152 11.0529 11.0708 11.2314 10.917 11.1519C10.8812 11.1588 10.8454 11.1653 10.8094 11.1713C10.6528 11.1981 10.4574 11.22 10.2829 11.2079C10.2006 11.2036 10.12 11.1862 10.0451 11.1567C9.97442 11.129 9.91803 11.0799 9.88656 11.0188C9.85164 10.9458 9.85164 10.855 9.89128 10.739L9.27793 11.1722L7.88987 12.1594V13.76L12.4381 10.6797C12.4372 10.646 12.4423 10.6124 12.4532 10.58C12.4881 10.4713 12.4862 10.4161 12.4315 10.421V10.4202ZM14.3885 10.9385C14.3197 10.9385 14.2045 11.0221 14.0205 11.19C13.7705 11.4196 13.377 11.6419 13.1685 11.6873L13.1364 11.7019C13.1021 11.714 13.0675 11.7254 13.0326 11.736C12.976 11.7522 12.9024 11.7717 12.8174 11.7911C12.6476 11.8309 12.4362 11.8674 12.2475 11.8633C12.1585 11.8632 12.0704 11.8483 11.988 11.8195C11.9103 11.792 11.8481 11.7397 11.8144 11.6735C11.7596 11.5607 11.7813 11.4025 11.9012 11.1778L7.88892 13.8946V14.8721H9.6516L13.3902 12.3476C13.4874 12.2551 13.6337 12.1286 13.8309 11.9704C14.3593 11.5494 14.4791 11.4042 14.4791 11.1892C14.4791 11.0221 14.4574 10.9377 14.3885 10.9377V10.9385ZM15.2784 12.5204L14.9585 12.7946C14.7792 12.9406 14.4593 13.1207 14.2404 13.1978L14.197 13.214L14.1942 13.2181L14.1847 13.2262C14.1762 13.2319 14.1725 13.2327 14.1659 13.2351C14.0785 13.2635 13.9897 13.2887 13.8998 13.3105C13.6998 13.3606 13.4942 13.3919 13.2864 13.4038C13.1882 13.4092 13.0896 13.4019 12.9939 13.3819C12.9109 13.3662 12.8376 13.3246 12.7882 13.2651C12.7429 13.2051 12.7297 13.1248 12.7551 13.0258C12.7754 12.9553 12.8055 12.8872 12.8448 12.823L9.82805 14.8721H13.8403L14.3197 14.4C14.9783 13.7397 15.2784 13.2675 15.2784 12.8636V12.5204Z" fill="#111111"/>
<path fill-rule="evenodd" clip-rule="evenodd" d="M179.653 13.6281C179.558 13.7164 179.482 13.8229 179.43 13.9412C179.377 14.0595 179.349 14.1871 179.346 14.3166C179.344 14.4461 179.368 14.5747 179.416 14.6948C179.465 14.8148 179.537 14.9239 179.629 15.0155C179.72 15.107 179.829 15.1792 179.949 15.2277C180.069 15.2762 180.198 15.3001 180.327 15.2978C180.456 15.2955 180.584 15.2671 180.702 15.2144C180.82 15.1617 180.927 15.0857 181.015 14.991L185.191 10.8124L185.873 10.131L185.192 9.44958L181.016 5.27101C180.835 5.09527 180.591 4.99796 180.339 5.00003C180.086 5.00211 179.844 5.10341 179.665 5.28211C179.487 5.46081 179.385 5.70262 179.383 5.95545C179.381 6.20829 179.478 6.45191 179.653 6.63386L182.184 9.16672H168.849C168.593 9.16672 168.348 9.26831 168.167 9.44915C167.987 9.62999 167.885 9.87526 167.885 10.131C167.885 10.3868 167.987 10.632 168.167 10.8129C168.348 10.9937 168.593 11.0953 168.849 11.0953H182.184L179.653 13.6281Z" fill="white"/>
<defs>
<linearGradient id="paint0_linear_59_55" x1="0" y1="10.623" x2="23.9835" y2="10.623" gradientUnits="userSpaceOnUse">
<stop stop-color="white"/>
<stop offset="1" stop-color="white"/>
</linearGradient>
</defs>
</svg>
