<svg width="188" height="24" viewBox="0 0 188 24" fill="none" xmlns="http://www.w3.org/2000/svg">
<path d="M41.4391 6.2C41.4857 6.2 41.5231 6.21867 41.5511 6.256C41.5884 6.284 41.6071 6.32133 41.6071 6.368V7.446C41.6071 7.49267 41.5884 7.53467 41.5511 7.572C41.5231 7.6 41.4857 7.614 41.4391 7.614H38.8631C38.8164 7.614 38.7931 7.63733 38.7931 7.684V15.832C38.7931 15.8787 38.7744 15.9207 38.7371 15.958C38.7091 15.986 38.6717 16 38.6251 16H37.3371C37.2904 16 37.2484 15.986 37.2111 15.958C37.1831 15.9207 37.1691 15.8787 37.1691 15.832V7.684C37.1691 7.63733 37.1457 7.614 37.0991 7.614H34.6211C34.5744 7.614 34.5324 7.6 34.4951 7.572C34.4671 7.53467 34.4531 7.49267 34.4531 7.446V6.368C34.4531 6.32133 34.4671 6.284 34.4951 6.256C34.5324 6.21867 34.5744 6.2 34.6211 6.2H41.4391ZM45.286 8.734C45.874 8.734 46.392 8.83667 46.84 9.042C47.288 9.24733 47.6333 9.532 47.876 9.896C48.1187 10.2507 48.24 10.6567 48.24 11.114V15.832C48.24 15.8787 48.2213 15.9207 48.184 15.958C48.156 15.986 48.1187 16 48.072 16H46.784C46.7373 16 46.6953 15.986 46.658 15.958C46.63 15.9207 46.616 15.8787 46.616 15.832V15.384C46.616 15.356 46.6067 15.342 46.588 15.342C46.5693 15.3327 46.5507 15.3373 46.532 15.356C46.0747 15.86 45.412 16.112 44.544 16.112C43.844 16.112 43.2653 15.9347 42.808 15.58C42.36 15.2253 42.136 14.698 42.136 13.998C42.136 13.27 42.388 12.7053 42.892 12.304C43.4053 11.8933 44.124 11.688 45.048 11.688H46.546C46.5927 11.688 46.616 11.6647 46.616 11.618V11.282C46.616 10.918 46.5087 10.638 46.294 10.442C46.0793 10.2367 45.7573 10.134 45.328 10.134C44.9733 10.134 44.684 10.1993 44.46 10.33C44.2453 10.4513 44.11 10.624 44.054 10.848C44.026 10.96 43.9607 11.0067 43.858 10.988L42.5 10.82C42.4533 10.8107 42.4113 10.7967 42.374 10.778C42.346 10.75 42.3367 10.7173 42.346 10.68C42.4207 10.1107 42.724 9.644 43.256 9.28C43.7973 8.916 44.474 8.734 45.286 8.734ZM44.95 14.824C45.4073 14.824 45.7993 14.7027 46.126 14.46C46.4527 14.2173 46.616 13.9093 46.616 13.536V12.878C46.616 12.8313 46.5927 12.808 46.546 12.808H45.37C44.8753 12.808 44.4833 12.9013 44.194 13.088C43.914 13.2747 43.774 13.5407 43.774 13.886C43.774 14.1847 43.8813 14.418 44.096 14.586C44.32 14.7447 44.6047 14.824 44.95 14.824ZM50.7944 7.866C50.5051 7.866 50.2671 7.77267 50.0804 7.586C49.8938 7.39933 49.8004 7.16133 49.8004 6.872C49.8004 6.58267 49.8938 6.34467 50.0804 6.158C50.2671 5.97133 50.5051 5.878 50.7944 5.878C51.0838 5.878 51.3218 5.97133 51.5084 6.158C51.6951 6.34467 51.7884 6.58267 51.7884 6.872C51.7884 7.16133 51.6951 7.39933 51.5084 7.586C51.3218 7.77267 51.0838 7.866 50.7944 7.866ZM50.1224 16C50.0758 16 50.0338 15.986 49.9964 15.958C49.9684 15.9207 49.9544 15.8787 49.9544 15.832V9C49.9544 8.95333 49.9684 8.916 49.9964 8.888C50.0338 8.85067 50.0758 8.832 50.1224 8.832H51.4104C51.4571 8.832 51.4944 8.85067 51.5224 8.888C51.5598 8.916 51.5784 8.95333 51.5784 9V15.832C51.5784 15.8787 51.5598 15.9207 51.5224 15.958C51.4944 15.986 51.4571 16 51.4104 16H50.1224ZM53.6068 16C53.5601 16 53.5181 15.986 53.4808 15.958C53.4528 15.9207 53.4388 15.8787 53.4388 15.832V6.368C53.4388 6.32133 53.4528 6.284 53.4808 6.256C53.5181 6.21867 53.5601 6.2 53.6068 6.2H54.8948C54.9415 6.2 54.9788 6.21867 55.0068 6.256C55.0441 6.284 55.0628 6.32133 55.0628 6.368V15.832C55.0628 15.8787 55.0441 15.9207 55.0068 15.958C54.9788 15.986 54.9415 16 54.8948 16H53.6068ZM58.4824 16C58.3797 16 58.3144 15.9533 58.2864 15.86L56.2844 9.028L56.2704 8.972C56.2704 8.87867 56.3217 8.832 56.4244 8.832H57.7544C57.8571 8.832 57.9224 8.87867 57.9504 8.972L59.1124 13.648C59.1217 13.676 59.1357 13.69 59.1544 13.69C59.1731 13.69 59.1871 13.676 59.1964 13.648L60.4144 8.972C60.4424 8.87867 60.5077 8.832 60.6104 8.832H61.7724C61.8751 8.832 61.9404 8.87867 61.9684 8.972L63.2144 13.648C63.2237 13.676 63.2377 13.69 63.2564 13.69C63.2751 13.69 63.2891 13.676 63.2984 13.648L64.5444 8.972C64.5724 8.87867 64.6377 8.832 64.7404 8.832L66.0564 8.86C66.1124 8.86 66.1497 8.87867 66.1684 8.916C66.1964 8.944 66.2057 8.986 66.1964 9.042L64.1804 15.86C64.1524 15.9533 64.0917 16 63.9984 16H62.6544C62.5517 16 62.4864 15.9533 62.4584 15.86L61.2264 11.59C61.2171 11.562 61.2031 11.548 61.1844 11.548C61.1657 11.548 61.1517 11.562 61.1424 11.59L60.0084 15.86C59.9804 15.9533 59.9151 16 59.8124 16H58.4824ZM68.3628 7.866C68.0735 7.866 67.8355 7.77267 67.6488 7.586C67.4621 7.39933 67.3688 7.16133 67.3688 6.872C67.3688 6.58267 67.4621 6.34467 67.6488 6.158C67.8355 5.97133 68.0735 5.878 68.3628 5.878C68.6521 5.878 68.8901 5.97133 69.0768 6.158C69.2635 6.34467 69.3568 6.58267 69.3568 6.872C69.3568 7.16133 69.2635 7.39933 69.0768 7.586C68.8901 7.77267 68.6521 7.866 68.3628 7.866ZM67.6908 16C67.6441 16 67.6021 15.986 67.5648 15.958C67.5368 15.9207 67.5228 15.8787 67.5228 15.832V9C67.5228 8.95333 67.5368 8.916 67.5648 8.888C67.6021 8.85067 67.6441 8.832 67.6908 8.832H68.9788C69.0255 8.832 69.0628 8.85067 69.0908 8.888C69.1281 8.916 69.1468 8.95333 69.1468 9V15.832C69.1468 15.8787 69.1281 15.9207 69.0908 15.958C69.0628 15.986 69.0255 16 68.9788 16H67.6908ZM74.4372 8.734C75.1932 8.734 75.7952 8.958 76.2432 9.406C76.7005 9.854 76.9292 10.4653 76.9292 11.24V15.832C76.9292 15.8787 76.9105 15.9207 76.8732 15.958C76.8452 15.986 76.8078 16 76.7612 16H75.4732C75.4265 16 75.3845 15.986 75.3472 15.958C75.3192 15.9207 75.3052 15.8787 75.3052 15.832V11.576C75.3052 11.1467 75.1838 10.8013 74.9412 10.54C74.6985 10.2693 74.3765 10.134 73.9752 10.134C73.5738 10.134 73.2472 10.2647 72.9952 10.526C72.7525 10.7873 72.6312 11.1327 72.6312 11.562V15.832C72.6312 15.8787 72.6125 15.9207 72.5752 15.958C72.5472 15.986 72.5098 16 72.4632 16H71.1752C71.1285 16 71.0865 15.986 71.0492 15.958C71.0212 15.9207 71.0072 15.8787 71.0072 15.832V9.014C71.0072 8.96733 71.0212 8.93 71.0492 8.902C71.0865 8.86467 71.1285 8.846 71.1752 8.846H72.4632C72.5098 8.846 72.5472 8.86467 72.5752 8.902C72.6125 8.93 72.6312 8.96733 72.6312 9.014V9.462C72.6312 9.49 72.6405 9.50867 72.6592 9.518C72.6778 9.52733 72.6918 9.518 72.7012 9.49C73.0838 8.986 73.6625 8.734 74.4372 8.734ZM83.0057 6.368C83.0057 6.32133 83.0197 6.284 83.0477 6.256C83.085 6.21867 83.127 6.2 83.1737 6.2H84.4617C84.5084 6.2 84.5457 6.21867 84.5737 6.256C84.611 6.284 84.6297 6.32133 84.6297 6.368V15.832C84.6297 15.8787 84.611 15.9207 84.5737 15.958C84.5457 15.986 84.5084 16 84.4617 16H83.1737C83.127 16 83.085 15.986 83.0477 15.958C83.0197 15.9207 83.0057 15.8787 83.0057 15.832V15.412C83.0057 15.384 82.9964 15.3653 82.9777 15.356C82.959 15.3467 82.9404 15.356 82.9217 15.384C82.511 15.8693 81.9744 16.112 81.3117 16.112C80.649 16.112 80.089 15.9393 79.6317 15.594C79.1744 15.2487 78.843 14.768 78.6377 14.152C78.4697 13.6293 78.3857 13.046 78.3857 12.402C78.3857 11.7393 78.465 11.17 78.6237 10.694C78.829 10.078 79.1604 9.59733 79.6177 9.252C80.075 8.90667 80.649 8.734 81.3397 8.734C81.9837 8.734 82.511 8.96733 82.9217 9.434C82.9404 9.45267 82.959 9.462 82.9777 9.462C82.9964 9.45267 83.0057 9.434 83.0057 9.406V6.368ZM82.6697 14.04C82.8844 13.6573 82.9917 13.116 82.9917 12.416C82.9917 11.688 82.875 11.1327 82.6417 10.75C82.3897 10.3393 82.035 10.134 81.5777 10.134C81.1017 10.134 80.7284 10.33 80.4577 10.722C80.1777 11.1327 80.0377 11.702 80.0377 12.43C80.0377 13.0833 80.1497 13.62 80.3737 14.04C80.635 14.488 81.0317 14.712 81.5637 14.712C82.0397 14.712 82.4084 14.488 82.6697 14.04ZM92.6208 16.112C91.9208 16.112 91.3048 15.9767 90.7728 15.706C90.2408 15.426 89.8301 15.0387 89.5408 14.544C89.2514 14.0493 89.1068 13.4753 89.1068 12.822V9.364C89.1068 8.71067 89.2514 8.13667 89.5408 7.642C89.8301 7.14733 90.2408 6.76467 90.7728 6.494C91.3048 6.22333 91.9208 6.088 92.6208 6.088C93.3114 6.088 93.9228 6.21867 94.4548 6.48C94.9868 6.74133 95.3974 7.11 95.6868 7.586C95.9761 8.062 96.1208 8.61267 96.1208 9.238C96.1208 9.28467 96.1021 9.32667 96.0648 9.364C96.0368 9.392 95.9994 9.406 95.9528 9.406L94.6648 9.476C94.5528 9.476 94.4968 9.42467 94.4968 9.322C94.4968 8.77133 94.3241 8.328 93.9788 7.992C93.6428 7.656 93.1901 7.488 92.6208 7.488C92.0514 7.488 91.5941 7.656 91.2488 7.992C90.9034 8.328 90.7308 8.77133 90.7308 9.322V12.892C90.7308 13.4333 90.9034 13.872 91.2488 14.208C91.5941 14.544 92.0514 14.712 92.6208 14.712C93.1901 14.712 93.6428 14.5487 93.9788 14.222C94.3241 13.886 94.4968 13.4427 94.4968 12.892C94.4968 12.7893 94.5528 12.738 94.6648 12.738L95.9528 12.794C95.9994 12.794 96.0368 12.808 96.0648 12.836C96.1021 12.864 96.1208 12.8967 96.1208 12.934C96.1208 13.5687 95.9761 14.1287 95.6868 14.614C95.3974 15.09 94.9868 15.4587 94.4548 15.72C93.9228 15.9813 93.3114 16.112 92.6208 16.112ZM100.368 16.084C99.7803 16.084 99.2623 16 98.8143 15.832C98.3757 15.6547 98.035 15.4167 97.7923 15.118C97.5497 14.81 97.4283 14.4693 97.4283 14.096V13.97C97.4283 13.9233 97.4423 13.886 97.4703 13.858C97.5077 13.8207 97.5497 13.802 97.5963 13.802H98.8283C98.875 13.802 98.9123 13.8207 98.9403 13.858C98.9777 13.886 98.9963 13.9233 98.9963 13.97V13.998C98.9963 14.2313 99.1223 14.4367 99.3743 14.614C99.6357 14.782 99.9623 14.866 100.354 14.866C100.728 14.866 101.031 14.7913 101.264 14.642C101.498 14.4833 101.614 14.2873 101.614 14.054C101.614 13.8393 101.516 13.6807 101.32 13.578C101.134 13.466 100.826 13.3493 100.396 13.228L99.8643 13.06C99.3883 12.92 98.987 12.7707 98.6603 12.612C98.3337 12.4533 98.0583 12.2387 97.8343 11.968C97.6103 11.688 97.4983 11.3333 97.4983 10.904C97.4983 10.2507 97.755 9.73267 98.2683 9.35C98.7817 8.958 99.4583 8.762 100.298 8.762C100.868 8.762 101.367 8.85533 101.796 9.042C102.226 9.21933 102.557 9.47133 102.79 9.798C103.024 10.1153 103.14 10.4793 103.14 10.89C103.14 10.9367 103.122 10.9787 103.084 11.016C103.056 11.044 103.019 11.058 102.972 11.058H101.782C101.736 11.058 101.694 11.044 101.656 11.016C101.628 10.9787 101.614 10.9367 101.614 10.89C101.614 10.6473 101.493 10.4467 101.25 10.288C101.017 10.12 100.695 10.036 100.284 10.036C99.9203 10.036 99.6217 10.106 99.3883 10.246C99.1643 10.3767 99.0523 10.5633 99.0523 10.806C99.0523 11.03 99.1597 11.2027 99.3743 11.324C99.5983 11.436 99.967 11.562 100.48 11.702L100.788 11.786C101.283 11.9353 101.698 12.0893 102.034 12.248C102.37 12.3973 102.655 12.612 102.888 12.892C103.122 13.1627 103.238 13.5173 103.238 13.956C103.238 14.6187 102.977 15.1413 102.454 15.524C101.932 15.8973 101.236 16.084 100.368 16.084ZM107.136 16.084C106.548 16.084 106.03 16 105.582 15.832C105.143 15.6547 104.803 15.4167 104.56 15.118C104.317 14.81 104.196 14.4693 104.196 14.096V13.97C104.196 13.9233 104.21 13.886 104.238 13.858C104.275 13.8207 104.317 13.802 104.364 13.802H105.596C105.643 13.802 105.68 13.8207 105.708 13.858C105.745 13.886 105.764 13.9233 105.764 13.97V13.998C105.764 14.2313 105.89 14.4367 106.142 14.614C106.403 14.782 106.73 14.866 107.122 14.866C107.495 14.866 107.799 14.7913 108.032 14.642C108.265 14.4833 108.382 14.2873 108.382 14.054C108.382 13.8393 108.284 13.6807 108.088 13.578C107.901 13.466 107.593 13.3493 107.164 13.228L106.632 13.06C106.156 12.92 105.755 12.7707 105.428 12.612C105.101 12.4533 104.826 12.2387 104.602 11.968C104.378 11.688 104.266 11.3333 104.266 10.904C104.266 10.2507 104.523 9.73267 105.036 9.35C105.549 8.958 106.226 8.762 107.066 8.762C107.635 8.762 108.135 8.85533 108.564 9.042C108.993 9.21933 109.325 9.47133 109.558 9.798C109.791 10.1153 109.908 10.4793 109.908 10.89C109.908 10.9367 109.889 10.9787 109.852 11.016C109.824 11.044 109.787 11.058 109.74 11.058H108.55C108.503 11.058 108.461 11.044 108.424 11.016C108.396 10.9787 108.382 10.9367 108.382 10.89C108.382 10.6473 108.261 10.4467 108.018 10.288C107.785 10.12 107.463 10.036 107.052 10.036C106.688 10.036 106.389 10.106 106.156 10.246C105.932 10.3767 105.82 10.5633 105.82 10.806C105.82 11.03 105.927 11.2027 106.142 11.324C106.366 11.436 106.735 11.562 107.248 11.702L107.556 11.786C108.051 11.9353 108.466 12.0893 108.802 12.248C109.138 12.3973 109.423 12.612 109.656 12.892C109.889 13.1627 110.006 13.5173 110.006 13.956C110.006 14.6187 109.745 15.1413 109.222 15.524C108.699 15.8973 108.004 16.084 107.136 16.084Z" fill="white"/>
<rect width="23.9835" height="23.04" rx="5" fill="white"/>
<path d="M17.2917 9.59376C16.6802 9.38299 16.1404 9.00403 15.7342 8.50032C15.2866 7.9391 14.7166 7.48777 14.0678 7.18087C13.4191 6.87396 12.7088 6.7196 11.9913 6.7296C11.0261 6.6612 10.0706 6.9591 9.31505 7.56396C8.99641 7.81906 8.72318 8.12085 8.50285 8.45639C8.30669 8.75513 8.81451 9.06072 9.14331 8.92066C9.65617 8.70217 10.2251 8.65214 10.7682 8.77776C11.3787 8.99466 11.9176 9.37583 12.3257 9.87936C12.7757 10.4361 13.3468 10.8828 13.9954 11.1854C14.644 11.488 15.353 11.6385 16.0685 11.6256C17.0337 11.694 17.9892 11.3961 18.7448 10.7912C19.0617 10.5375 19.3337 10.2376 19.5534 9.90422C19.7453 9.61314 19.2421 9.31115 18.9221 9.44933C18.4081 9.6712 17.8366 9.72183 17.2917 9.59376ZM6.69096 13.6574C7.30249 13.8682 7.84229 14.2472 8.24845 14.7509C8.69609 15.3121 9.26607 15.7634 9.9148 16.0703C10.5635 16.3772 11.2738 16.5316 11.9913 16.5216C12.9565 16.59 13.912 16.2921 14.6676 15.6872C14.9862 15.4321 15.2595 15.1303 15.4798 14.7948C15.676 14.4961 15.1681 14.1905 14.8393 14.3305C14.3265 14.549 13.7576 14.5991 13.2145 14.4734C12.604 14.2565 12.0651 13.8754 11.657 13.3718C11.2057 12.8165 10.6344 12.3708 9.98608 12.0683C9.33777 11.7659 8.62934 11.6145 7.91412 11.6256C6.94893 11.5572 5.99342 11.8551 5.23785 12.46C4.92091 12.7137 4.64892 13.0136 4.42921 13.347C4.23737 13.6381 4.74053 13.94 5.06059 13.8019C5.5745 13.58 6.14609 13.5294 6.69096 13.6574Z" fill="#111111"/>
<path fill-rule="evenodd" clip-rule="evenodd" d="M181.652 14.6281C181.557 14.7164 181.481 14.8229 181.428 14.9412C181.376 15.0595 181.347 15.1871 181.345 15.3166C181.343 15.4461 181.367 15.5747 181.415 15.6948C181.463 15.8148 181.536 15.9239 181.627 16.0155C181.719 16.107 181.828 16.1792 181.948 16.2277C182.068 16.2762 182.196 16.3001 182.325 16.2978C182.455 16.2955 182.582 16.2671 182.701 16.2144C182.819 16.1617 182.925 16.0857 183.013 15.991L187.189 11.8124L187.871 11.131L187.19 10.4496L183.015 6.27101C182.833 6.09527 182.59 5.99796 182.337 6.00003C182.084 6.00211 181.843 6.10341 181.664 6.28211C181.485 6.46081 181.384 6.70262 181.381 6.95545C181.379 7.20829 181.476 7.45191 181.652 7.63386L184.183 10.1667H170.847C170.592 10.1667 170.347 10.2683 170.166 10.4492C169.985 10.63 169.884 10.8753 169.884 11.131C169.884 11.3868 169.985 11.632 170.166 11.8129C170.347 11.9937 170.592 12.0953 170.847 12.0953H184.183L181.652 14.6281Z" fill="white"/>
</svg>
