<svg width="188" height="22" viewBox="0 0 188 22" fill="none" xmlns="http://www.w3.org/2000/svg">
<path d="M41.5931 6.2C41.6397 6.2 41.6771 6.21867 41.7051 6.256C41.7424 6.284 41.7611 6.32133 41.7611 6.368V7.74C41.7611 7.78667 41.7424 7.82867 41.7051 7.866C41.6771 7.894 41.6397 7.908 41.5931 7.908H39.0871C39.0404 7.908 39.0171 7.93133 39.0171 7.978V15.832C39.0171 15.8787 38.9984 15.9207 38.9611 15.958C38.9331 15.986 38.8957 16 38.8491 16H37.2111C37.1644 16 37.1224 15.986 37.0851 15.958C37.0571 15.9207 37.0431 15.8787 37.0431 15.832V7.978C37.0431 7.93133 37.0197 7.908 36.9731 7.908H34.5371C34.4904 7.908 34.4484 7.894 34.4111 7.866C34.3831 7.82867 34.3691 7.78667 34.3691 7.74V6.368C34.3691 6.32133 34.3831 6.284 34.4111 6.256C34.4484 6.21867 34.4904 6.2 34.5371 6.2H41.5931ZM42.0732 18.786C42.0452 18.786 42.0219 18.7673 42.0032 18.73C41.9845 18.702 41.9752 18.6647 41.9752 18.618V17.33C41.9752 17.2833 41.9892 17.2413 42.0172 17.204C42.0545 17.176 42.0965 17.162 42.1432 17.162C42.5352 17.1527 42.8432 17.12 43.0672 17.064C43.3005 17.008 43.4825 16.9007 43.6132 16.742C43.7532 16.5833 43.8605 16.35 43.9352 16.042C43.9445 16.0233 43.9445 15.9953 43.9352 15.958L41.6392 8.986C41.6299 8.96733 41.6252 8.944 41.6252 8.916C41.6252 8.832 41.6765 8.79 41.7792 8.79H43.5292C43.6319 8.79 43.6972 8.83667 43.7252 8.93L44.9012 13.466C44.9105 13.494 44.9245 13.508 44.9432 13.508C44.9619 13.508 44.9759 13.494 44.9852 13.466L46.1612 8.93C46.1892 8.83667 46.2545 8.79 46.3572 8.79H48.0652C48.1212 8.79 48.1585 8.80867 48.1772 8.846C48.2052 8.874 48.2099 8.92067 48.1912 8.986L45.7692 16.266C45.5359 16.9473 45.2979 17.456 45.0552 17.792C44.8125 18.1373 44.4719 18.3893 44.0332 18.548C43.5945 18.7067 42.9739 18.786 42.1712 18.786H42.0732ZM55.5959 10.736C55.7639 11.212 55.8479 11.772 55.8479 12.416C55.8479 13.06 55.7592 13.6433 55.5819 14.166C55.3672 14.7633 55.0266 15.2393 54.5599 15.594C54.1026 15.9393 53.5332 16.112 52.8519 16.112C52.1799 16.112 51.6572 15.8787 51.2839 15.412C51.2652 15.384 51.2466 15.3747 51.2279 15.384C51.2092 15.3933 51.1999 15.412 51.1999 15.44V18.436C51.1999 18.4827 51.1812 18.52 51.1439 18.548C51.1159 18.5853 51.0786 18.604 51.0319 18.604H49.3939C49.3472 18.604 49.3052 18.5853 49.2679 18.548C49.2399 18.52 49.2259 18.4827 49.2259 18.436V8.972C49.2259 8.92533 49.2399 8.888 49.2679 8.86C49.3052 8.82267 49.3472 8.804 49.3939 8.804H51.0319C51.0786 8.804 51.1159 8.82267 51.1439 8.86C51.1812 8.888 51.1999 8.92533 51.1999 8.972V9.434C51.1999 9.462 51.2092 9.48067 51.2279 9.49C51.2466 9.49 51.2652 9.48067 51.2839 9.462C51.6759 8.94867 52.2172 8.692 52.9079 8.692C53.5519 8.692 54.1072 8.874 54.5739 9.238C55.0499 9.59267 55.3906 10.092 55.5959 10.736ZM53.4539 13.872C53.6872 13.508 53.8039 13.0133 53.8039 12.388C53.8039 11.8 53.7059 11.3333 53.5099 10.988C53.2952 10.5867 52.9499 10.386 52.4739 10.386C52.0446 10.386 51.7226 10.5867 51.5079 10.988C51.3119 11.324 51.2139 11.7953 51.2139 12.402C51.2139 13.0273 51.3166 13.5127 51.5219 13.858C51.7366 14.2313 52.0539 14.418 52.4739 14.418C52.8939 14.418 53.2206 14.236 53.4539 13.872ZM63.4559 11.66C63.5119 12.0147 63.5306 12.4113 63.5119 12.85C63.5026 12.962 63.4419 13.018 63.3299 13.018H59.0039C58.9479 13.018 58.9292 13.0413 58.9479 13.088C58.9759 13.2747 59.0272 13.4613 59.1019 13.648C59.3446 14.1707 59.8392 14.432 60.5859 14.432C61.1832 14.4227 61.6546 14.18 61.9999 13.704C62.0372 13.648 62.0792 13.62 62.1259 13.62C62.1539 13.62 62.1866 13.6387 62.2239 13.676L63.2319 14.67C63.2786 14.7167 63.3019 14.7587 63.3019 14.796C63.3019 14.8147 63.2832 14.852 63.2459 14.908C62.9379 15.2907 62.5412 15.5893 62.0559 15.804C61.5706 16.0093 61.0386 16.112 60.4599 16.112C59.6572 16.112 58.9759 15.93 58.4159 15.566C57.8652 15.202 57.4686 14.6933 57.2259 14.04C57.0299 13.5733 56.9319 12.962 56.9319 12.206C56.9319 11.6927 57.0019 11.24 57.1419 10.848C57.3566 10.1853 57.7299 9.658 58.2619 9.266C58.8032 8.874 59.4426 8.678 60.1799 8.678C61.1132 8.678 61.8599 8.94867 62.4199 9.49C62.9892 10.0313 63.3346 10.7547 63.4559 11.66ZM60.1939 10.386C59.6059 10.386 59.2186 10.6613 59.0319 11.212C58.9946 11.3333 58.9619 11.4827 58.9339 11.66C58.9339 11.7067 58.9572 11.73 59.0039 11.73H61.4259C61.4819 11.73 61.5006 11.7067 61.4819 11.66C61.4352 11.3893 61.4119 11.2587 61.4119 11.268C61.3279 10.988 61.1786 10.7733 60.9639 10.624C60.7586 10.4653 60.5019 10.386 60.1939 10.386ZM68.2145 16.112C67.4678 16.112 66.8145 15.9953 66.2545 15.762C65.6945 15.5193 65.2605 15.1787 64.9525 14.74C64.6538 14.292 64.5045 13.774 64.5045 13.186V12.878C64.5045 12.8313 64.5185 12.794 64.5465 12.766C64.5838 12.7287 64.6258 12.71 64.6725 12.71H66.2685C66.3152 12.71 66.3525 12.7287 66.3805 12.766C66.4178 12.794 66.4365 12.8313 66.4365 12.878V13.088C66.4365 13.4613 66.6092 13.7787 66.9545 14.04C67.2998 14.292 67.7665 14.418 68.3545 14.418C68.8492 14.418 69.2178 14.3153 69.4605 14.11C69.7032 13.8953 69.8245 13.634 69.8245 13.326C69.8245 13.102 69.7498 12.9153 69.6005 12.766C69.4512 12.6073 69.2458 12.472 68.9845 12.36C68.7325 12.2387 68.3265 12.0753 67.7665 11.87C67.1412 11.6553 66.6092 11.436 66.1705 11.212C65.7412 10.988 65.3772 10.6847 65.0785 10.302C64.7892 9.91 64.6445 9.42933 64.6445 8.86C64.6445 8.3 64.7892 7.81 65.0785 7.39C65.3678 6.97 65.7692 6.648 66.2825 6.424C66.7958 6.2 67.3885 6.088 68.0605 6.088C68.7698 6.088 69.3998 6.214 69.9505 6.466C70.5105 6.718 70.9445 7.07267 71.2525 7.53C71.5698 7.978 71.7285 8.50067 71.7285 9.098V9.308C71.7285 9.35467 71.7098 9.39667 71.6725 9.434C71.6445 9.462 71.6072 9.476 71.5605 9.476H69.9505C69.9038 9.476 69.8618 9.462 69.8245 9.434C69.7965 9.39667 69.7825 9.35467 69.7825 9.308V9.196C69.7825 8.804 69.6192 8.47267 69.2925 8.202C68.9752 7.922 68.5365 7.782 67.9765 7.782C67.5378 7.782 67.1925 7.87533 66.9405 8.062C66.6978 8.24867 66.5765 8.50533 66.5765 8.832C66.5765 9.06533 66.6465 9.26133 66.7865 9.42C66.9358 9.57867 67.1505 9.72333 67.4305 9.854C67.7198 9.97533 68.1632 10.1433 68.7605 10.358C69.4232 10.6007 69.9412 10.8153 70.3145 11.002C70.6972 11.1887 71.0378 11.4687 71.3365 11.842C71.6445 12.206 71.7985 12.682 71.7985 13.27C71.7985 14.1473 71.4765 14.8427 70.8325 15.356C70.1885 15.86 69.3158 16.112 68.2145 16.112ZM76.2187 16.112C75.472 16.112 74.8233 15.9253 74.2727 15.552C73.7313 15.1787 73.344 14.6653 73.1107 14.012C72.952 13.5453 72.8727 12.9947 72.8727 12.36C72.8727 11.7347 72.952 11.1933 73.1107 10.736C73.3347 10.1013 73.722 9.602 74.2727 9.238C74.8233 8.874 75.472 8.692 76.2187 8.692C76.9653 8.692 77.6187 8.87867 78.1787 9.252C78.748 9.62533 79.126 10.0967 79.3127 10.666C79.3873 10.89 79.4247 11.058 79.4247 11.17V11.198C79.4247 11.282 79.378 11.3333 79.2847 11.352L77.6747 11.59H77.6467C77.5627 11.59 77.5067 11.5433 77.4787 11.45L77.4367 11.226C77.3713 10.9833 77.2267 10.7827 77.0027 10.624C76.7787 10.4653 76.5127 10.386 76.2047 10.386C75.906 10.386 75.654 10.4607 75.4487 10.61C75.2433 10.7593 75.0987 10.9647 75.0147 11.226C74.912 11.506 74.8607 11.8887 74.8607 12.374C74.8607 12.8593 74.9073 13.242 75.0007 13.522C75.0847 13.802 75.2293 14.0213 75.4347 14.18C75.6493 14.3387 75.906 14.418 76.2047 14.418C76.494 14.418 76.746 14.3433 76.9607 14.194C77.1847 14.0353 77.3387 13.8207 77.4227 13.55C77.432 13.5313 77.4367 13.5033 77.4367 13.466C77.446 13.4567 77.4507 13.4427 77.4507 13.424C77.46 13.312 77.5253 13.2653 77.6467 13.284L79.2567 13.536C79.35 13.5547 79.3967 13.606 79.3967 13.69C79.3967 13.7647 79.3687 13.9047 79.3127 14.11C79.1167 14.7353 78.734 15.2253 78.1647 15.58C77.6047 15.9347 76.956 16.112 76.2187 16.112ZM84.1582 8.706C84.4942 8.706 84.7602 8.77133 84.9562 8.902C85.0309 8.93933 85.0589 9.00933 85.0402 9.112L84.7462 10.708C84.7369 10.82 84.6715 10.8527 84.5502 10.806C84.4102 10.7593 84.2469 10.736 84.0602 10.736C83.9855 10.736 83.8829 10.7453 83.7522 10.764C83.4162 10.792 83.1315 10.918 82.8982 11.142C82.6649 11.3567 82.5482 11.646 82.5482 12.01V15.832C82.5482 15.8787 82.5295 15.9207 82.4922 15.958C82.4642 15.986 82.4269 16 82.3802 16H80.7422C80.6955 16 80.6535 15.986 80.6162 15.958C80.5882 15.9207 80.5742 15.8787 80.5742 15.832V8.972C80.5742 8.92533 80.5882 8.888 80.6162 8.86C80.6535 8.82267 80.6955 8.804 80.7422 8.804H82.3802C82.4269 8.804 82.4642 8.82267 82.4922 8.86C82.5295 8.888 82.5482 8.92533 82.5482 8.972V9.504C82.5482 9.532 82.5575 9.55067 82.5762 9.56C82.5949 9.56933 82.6089 9.56467 82.6182 9.546C83.0009 8.986 83.5142 8.706 84.1582 8.706ZM86.9976 7.992C86.6802 7.992 86.4142 7.88933 86.1996 7.684C85.9942 7.46933 85.8916 7.20333 85.8916 6.886C85.8916 6.55933 85.9942 6.29333 86.1996 6.088C86.4049 5.88267 86.6709 5.78 86.9976 5.78C87.3242 5.78 87.5902 5.88267 87.7956 6.088C88.0009 6.29333 88.1036 6.55933 88.1036 6.886C88.1036 7.20333 87.9962 7.46933 87.7816 7.684C87.5762 7.88933 87.3149 7.992 86.9976 7.992ZM86.1576 16C86.1109 16 86.0689 15.986 86.0316 15.958C86.0036 15.9207 85.9896 15.8787 85.9896 15.832V8.958C85.9896 8.91133 86.0036 8.874 86.0316 8.846C86.0689 8.80867 86.1109 8.79 86.1576 8.79H87.7956C87.8422 8.79 87.8796 8.80867 87.9076 8.846C87.9449 8.874 87.9636 8.91133 87.9636 8.958V15.832C87.9636 15.8787 87.9449 15.9207 87.9076 15.958C87.8796 15.986 87.8422 16 87.7956 16H86.1576ZM95.9279 10.736C96.0959 11.212 96.1799 11.772 96.1799 12.416C96.1799 13.06 96.0913 13.6433 95.9139 14.166C95.6993 14.7633 95.3586 15.2393 94.8919 15.594C94.4346 15.9393 93.8653 16.112 93.1839 16.112C92.5119 16.112 91.9893 15.8787 91.6159 15.412C91.5973 15.384 91.5786 15.3747 91.5599 15.384C91.5413 15.3933 91.5319 15.412 91.5319 15.44V18.436C91.5319 18.4827 91.5133 18.52 91.4759 18.548C91.4479 18.5853 91.4106 18.604 91.3639 18.604H89.7259C89.6793 18.604 89.6373 18.5853 89.5999 18.548C89.5719 18.52 89.5579 18.4827 89.5579 18.436V8.972C89.5579 8.92533 89.5719 8.888 89.5999 8.86C89.6373 8.82267 89.6793 8.804 89.7259 8.804H91.3639C91.4106 8.804 91.4479 8.82267 91.4759 8.86C91.5133 8.888 91.5319 8.92533 91.5319 8.972V9.434C91.5319 9.462 91.5413 9.48067 91.5599 9.49C91.5786 9.49 91.5973 9.48067 91.6159 9.462C92.0079 8.94867 92.5493 8.692 93.2399 8.692C93.8839 8.692 94.4393 8.874 94.9059 9.238C95.3819 9.59267 95.7226 10.092 95.9279 10.736ZM93.7859 13.872C94.0193 13.508 94.1359 13.0133 94.1359 12.388C94.1359 11.8 94.0379 11.3333 93.8419 10.988C93.6273 10.5867 93.2819 10.386 92.8059 10.386C92.3766 10.386 92.0546 10.5867 91.8399 10.988C91.6439 11.324 91.5459 11.7953 91.5459 12.402C91.5459 13.0273 91.6486 13.5127 91.8539 13.858C92.0686 14.2313 92.3859 14.418 92.8059 14.418C93.2259 14.418 93.5526 14.236 93.7859 13.872ZM101.589 10.218C101.589 10.2647 101.57 10.3067 101.533 10.344C101.505 10.372 101.468 10.386 101.421 10.386H100.077C100.03 10.386 100.007 10.4093 100.007 10.456V13.424C100.007 13.732 100.068 13.9607 100.189 14.11C100.32 14.2593 100.525 14.334 100.805 14.334H101.267C101.314 14.334 101.351 14.3527 101.379 14.39C101.416 14.418 101.435 14.4553 101.435 14.502V15.832C101.435 15.9347 101.379 15.9953 101.267 16.014C100.875 16.0327 100.595 16.042 100.427 16.042C99.6523 16.042 99.0736 15.916 98.691 15.664C98.3083 15.4027 98.1123 14.9173 98.103 14.208V10.456C98.103 10.4093 98.0796 10.386 98.033 10.386H97.235C97.1883 10.386 97.1463 10.372 97.109 10.344C97.081 10.3067 97.067 10.2647 97.067 10.218V8.972C97.067 8.92533 97.081 8.888 97.109 8.86C97.1463 8.82267 97.1883 8.804 97.235 8.804H98.033C98.0796 8.804 98.103 8.78067 98.103 8.734V7.068C98.103 7.02133 98.117 6.984 98.145 6.956C98.1823 6.91867 98.2243 6.9 98.271 6.9H99.839C99.8856 6.9 99.923 6.91867 99.951 6.956C99.9883 6.984 100.007 7.02133 100.007 7.068V8.734C100.007 8.78067 100.03 8.804 100.077 8.804H101.421C101.468 8.804 101.505 8.82267 101.533 8.86C101.57 8.888 101.589 8.92533 101.589 8.972V10.218Z" fill="white"/>
<path d="M22.6511 0H1.33242C0.596258 0 0 0.528197 0 1.18033V20.0656C0 20.7177 0.596258 21.2459 1.33242 21.2459H22.6511C23.3873 21.2459 23.9835 20.7177 23.9835 20.0656V1.18033C23.9835 0.528197 23.3873 0 22.6511 0Z" fill="url(#paint0_linear_59_60)"/>
<path d="M17.1905 18.0832C17.4519 18.3328 17.6604 18.5967 17.9363 18.7825C18.5351 19.1859 19.2124 19.2563 19.9117 18.995C20.248 18.8694 20.4443 18.6266 20.456 18.3003C20.4664 18.0122 20.3096 17.776 20.0256 17.6438C19.4784 17.3896 18.9046 17.1792 18.3638 16.9147C17.8794 16.678 17.3735 16.4434 16.9669 16.1192C15.8894 15.26 15.8918 13.5764 16.8902 12.7146C17.4333 12.2458 18.0891 12.0194 18.85 12.002C21.3533 12.002 21.9162 13.3994 21.9162 13.3994C21.5009 13.6654 20.3398 14.3271 20.3398 14.3271C20.1319 14.0446 19.7067 13.686 19.3251 13.6222C18.8453 13.5425 18.3998 13.704 18.2476 14.0328C18.0722 14.412 18.2244 14.7871 18.7018 15.013C19.2705 15.2816 19.8618 15.5136 20.4426 15.7627C21.0118 16.0066 21.5566 16.2865 21.9481 16.7398C22.9379 17.8867 22.741 20.0811 20.4745 20.6019C19.2356 20.8864 18.0246 20.8216 16.8867 20.2324C16.3506 19.9551 15.8511 19.4189 15.5444 18.9523C15.5456 18.9523 16.6881 18.3431 17.1905 18.0832Z" fill="#111111"/>
<path d="M7.99463 12V13.5611H10.8825V20.7327H12.621L12.6517 13.5611H15.5455V12H7.99463Z" fill="#111111"/>
<path fill-rule="evenodd" clip-rule="evenodd" d="M181.652 13.6281C181.557 13.7164 181.481 13.8229 181.428 13.9412C181.376 14.0595 181.347 14.1871 181.345 14.3166C181.343 14.4461 181.367 14.5747 181.415 14.6948C181.463 14.8148 181.536 14.9239 181.627 15.0155C181.719 15.107 181.828 15.1792 181.948 15.2277C182.068 15.2762 182.196 15.3001 182.325 15.2978C182.455 15.2955 182.582 15.2671 182.701 15.2144C182.819 15.1617 182.925 15.0857 183.013 14.991L187.189 10.8124L187.871 10.131L187.19 9.44958L183.015 5.27101C182.833 5.09527 182.59 4.99796 182.337 5.00003C182.084 5.00211 181.843 5.10341 181.664 5.28211C181.485 5.46081 181.384 5.70262 181.381 5.95545C181.379 6.20829 181.476 6.45191 181.652 6.63386L184.183 9.16672H170.847C170.592 9.16672 170.347 9.26831 170.166 9.44915C169.985 9.62999 169.884 9.87526 169.884 10.131C169.884 10.3868 169.985 10.632 170.166 10.8129C170.347 10.9937 170.592 11.0953 170.847 11.0953H184.183L181.652 13.6281Z" fill="white"/>
<defs>
<linearGradient id="paint0_linear_59_60" x1="0" y1="10.623" x2="23.9835" y2="10.623" gradientUnits="userSpaceOnUse">
<stop stop-color="white"/>
<stop offset="1" stop-color="white"/>
</linearGradient>
</defs>
</svg>
