<svg width="193" height="30" viewBox="0 0 193 30" fill="none" xmlns="http://www.w3.org/2000/svg">
<path d="M37.9424 20C37.849 20 37.7884 19.9533 37.7604 19.86L34.8764 10.396L34.8624 10.34C34.8624 10.2467 34.9137 10.2 35.0164 10.2H36.7804C36.883 10.2 36.9484 10.2467 36.9764 10.34L38.8384 17.172C38.8477 17.2 38.8617 17.214 38.8804 17.214C38.899 17.214 38.913 17.2 38.9224 17.172L40.7564 10.34C40.7844 10.2467 40.8497 10.2 40.9524 10.2H42.6744C42.7304 10.2 42.7724 10.2187 42.8004 10.256C42.8284 10.2933 42.833 10.34 42.8144 10.396L39.8884 19.86C39.8604 19.9533 39.7997 20 39.7064 20H37.9424ZM46.1214 20.098C45.4961 20.098 44.9501 20.0093 44.4834 19.832C44.0168 19.6547 43.6528 19.4073 43.3914 19.09C43.1394 18.7727 43.0134 18.4133 43.0134 18.012V17.872C43.0134 17.8253 43.0274 17.788 43.0554 17.76C43.0928 17.7227 43.1348 17.704 43.1814 17.704H44.7354C44.7821 17.704 44.8194 17.7227 44.8474 17.76C44.8848 17.788 44.9034 17.8253 44.9034 17.872V17.886C44.9034 18.0913 45.0154 18.2687 45.2394 18.418C45.4728 18.558 45.7621 18.628 46.1074 18.628C46.4248 18.628 46.6814 18.5673 46.8774 18.446C47.0734 18.3153 47.1714 18.1567 47.1714 17.97C47.1714 17.802 47.0874 17.676 46.9194 17.592C46.7514 17.508 46.4761 17.4193 46.0934 17.326C45.6548 17.214 45.3094 17.1067 45.0574 17.004C44.4601 16.7987 43.9841 16.5467 43.6294 16.248C43.2748 15.9493 43.0974 15.52 43.0974 14.96C43.0974 14.2693 43.3634 13.7233 43.8954 13.322C44.4368 12.9113 45.1508 12.706 46.0374 12.706C46.6348 12.706 47.1574 12.804 47.6054 13C48.0534 13.1867 48.3988 13.4527 48.6414 13.798C48.8934 14.1433 49.0194 14.5353 49.0194 14.974C49.0194 15.0207 49.0008 15.0627 48.9634 15.1C48.9354 15.128 48.8981 15.142 48.8514 15.142H47.3534C47.3068 15.142 47.2648 15.128 47.2274 15.1C47.1994 15.0627 47.1854 15.0207 47.1854 14.974C47.1854 14.7687 47.0781 14.596 46.8634 14.456C46.6581 14.316 46.3828 14.246 46.0374 14.246C45.7294 14.246 45.4774 14.302 45.2814 14.414C45.0854 14.526 44.9874 14.68 44.9874 14.876C44.9874 15.0627 45.0808 15.2027 45.2674 15.296C45.4634 15.3893 45.7854 15.4873 46.2334 15.59C46.3361 15.618 46.4528 15.6507 46.5834 15.688C46.7141 15.716 46.8541 15.7533 47.0034 15.8C47.6661 15.996 48.1888 16.248 48.5714 16.556C48.9541 16.864 49.1454 17.312 49.1454 17.9C49.1454 18.5907 48.8701 19.132 48.3194 19.524C47.7781 19.9067 47.0454 20.098 46.1214 20.098ZM53.8488 20.112C53.1208 20.112 52.4814 19.972 51.9308 19.692C51.3801 19.4027 50.9554 19.0013 50.6568 18.488C50.3581 17.9747 50.2088 17.382 50.2088 16.71V13.476C50.2088 12.804 50.3581 12.2113 50.6568 11.698C50.9554 11.1847 51.3801 10.788 51.9308 10.508C52.4814 10.228 53.1208 10.088 53.8488 10.088C54.5674 10.088 55.1974 10.2233 55.7388 10.494C56.2894 10.7553 56.7141 11.1333 57.0128 11.628C57.3208 12.1133 57.4748 12.678 57.4748 13.322C57.4748 13.406 57.4188 13.4573 57.3068 13.476L55.6688 13.574H55.6408C55.5474 13.574 55.5008 13.5227 55.5008 13.42C55.5008 12.9253 55.3468 12.5287 55.0388 12.23C54.7401 11.9313 54.3434 11.782 53.8488 11.782C53.3448 11.782 52.9388 11.9313 52.6308 12.23C52.3321 12.5287 52.1828 12.9253 52.1828 13.42V16.794C52.1828 17.2793 52.3321 17.6713 52.6308 17.97C52.9388 18.2687 53.3448 18.418 53.8488 18.418C54.3434 18.418 54.7401 18.2687 55.0388 17.97C55.3468 17.6713 55.5008 17.2793 55.5008 16.794C55.5008 16.6913 55.5568 16.64 55.6688 16.64L57.3068 16.71C57.3534 16.71 57.3908 16.724 57.4188 16.752C57.4561 16.78 57.4748 16.8127 57.4748 16.85C57.4748 17.494 57.3208 18.0633 57.0128 18.558C56.7141 19.0527 56.2894 19.4353 55.7388 19.706C55.1974 19.9767 54.5674 20.112 53.8488 20.112ZM61.9607 20.112C61.1767 20.112 60.5047 19.9067 59.9447 19.496C59.3847 19.0853 59.002 18.5253 58.7967 17.816C58.666 17.3773 58.6007 16.9013 58.6007 16.388C58.6007 15.8373 58.666 15.3427 58.7967 14.904C59.0114 14.2133 59.3987 13.672 59.9587 13.28C60.5187 12.888 61.1907 12.692 61.9747 12.692C62.74 12.692 63.3934 12.888 63.9347 13.28C64.476 13.6627 64.8587 14.1993 65.0827 14.89C65.232 15.3567 65.3067 15.8467 65.3067 16.36C65.3067 16.864 65.2414 17.3353 65.1107 17.774C64.9054 18.502 64.5227 19.076 63.9627 19.496C63.412 19.9067 62.7447 20.112 61.9607 20.112ZM61.9607 18.418C62.2687 18.418 62.53 18.3247 62.7447 18.138C62.9594 17.9513 63.1134 17.6947 63.2067 17.368C63.2814 17.0693 63.3187 16.7427 63.3187 16.388C63.3187 15.996 63.2814 15.6647 63.2067 15.394C63.104 15.0767 62.9454 14.8293 62.7307 14.652C62.516 14.4747 62.2547 14.386 61.9467 14.386C61.6294 14.386 61.3634 14.4747 61.1487 14.652C60.9434 14.8293 60.794 15.0767 60.7007 15.394C60.626 15.618 60.5887 15.9493 60.5887 16.388C60.5887 16.808 60.6214 17.1347 60.6867 17.368C60.78 17.6947 60.934 17.9513 61.1487 18.138C61.3727 18.3247 61.6434 18.418 61.9607 18.418ZM71.0417 10.368C71.0417 10.3213 71.0557 10.284 71.0837 10.256C71.121 10.2187 71.163 10.2 71.2097 10.2H72.8477C72.8943 10.2 72.9317 10.2187 72.9597 10.256C72.997 10.284 73.0157 10.3213 73.0157 10.368V19.832C73.0157 19.8787 72.997 19.9207 72.9597 19.958C72.9317 19.986 72.8943 20 72.8477 20H71.2097C71.163 20 71.121 19.986 71.0837 19.958C71.0557 19.9207 71.0417 19.8787 71.0417 19.832V19.37C71.0417 19.342 71.0323 19.328 71.0137 19.328C70.995 19.3187 70.9763 19.3233 70.9577 19.342C70.5657 19.8553 70.029 20.112 69.3477 20.112C68.6943 20.112 68.1297 19.93 67.6537 19.566C67.187 19.202 66.851 18.7027 66.6457 18.068C66.487 17.5827 66.4077 17.018 66.4077 16.374C66.4077 15.7113 66.4917 15.1327 66.6597 14.638C66.8743 14.0407 67.2103 13.5693 67.6677 13.224C68.1343 12.8693 68.7083 12.692 69.3897 12.692C70.0617 12.692 70.5843 12.9253 70.9577 13.392C70.9763 13.42 70.995 13.4293 71.0137 13.42C71.0323 13.4107 71.0417 13.392 71.0417 13.364V10.368ZM70.7477 17.816C70.9343 17.4707 71.0277 16.9993 71.0277 16.402C71.0277 15.7767 70.925 15.2867 70.7197 14.932C70.505 14.568 70.1923 14.386 69.7817 14.386C69.343 14.386 69.0117 14.568 68.7877 14.932C68.5543 15.296 68.4377 15.7907 68.4377 16.416C68.4377 16.976 68.5357 17.4427 68.7317 17.816C68.965 18.2173 69.3103 18.418 69.7677 18.418C70.1877 18.418 70.5143 18.2173 70.7477 17.816ZM80.8753 15.66C80.9313 16.0147 80.95 16.4113 80.9313 16.85C80.922 16.962 80.8613 17.018 80.7493 17.018H76.4233C76.3673 17.018 76.3487 17.0413 76.3673 17.088C76.3953 17.2747 76.4467 17.4613 76.5213 17.648C76.764 18.1707 77.2587 18.432 78.0053 18.432C78.6027 18.4227 79.074 18.18 79.4193 17.704C79.4567 17.648 79.4987 17.62 79.5453 17.62C79.5733 17.62 79.606 17.6387 79.6433 17.676L80.6513 18.67C80.698 18.7167 80.7213 18.7587 80.7213 18.796C80.7213 18.8147 80.7027 18.852 80.6653 18.908C80.3573 19.2907 79.9607 19.5893 79.4753 19.804C78.99 20.0093 78.458 20.112 77.8793 20.112C77.0767 20.112 76.3953 19.93 75.8353 19.566C75.2847 19.202 74.888 18.6933 74.6453 18.04C74.4493 17.5733 74.3513 16.962 74.3513 16.206C74.3513 15.6927 74.4213 15.24 74.5613 14.848C74.776 14.1853 75.1493 13.658 75.6813 13.266C76.2227 12.874 76.862 12.678 77.5993 12.678C78.5327 12.678 79.2793 12.9487 79.8393 13.49C80.4087 14.0313 80.754 14.7547 80.8753 15.66ZM77.6133 14.386C77.0253 14.386 76.638 14.6613 76.4513 15.212C76.414 15.3333 76.3813 15.4827 76.3533 15.66C76.3533 15.7067 76.3767 15.73 76.4233 15.73H78.8453C78.9013 15.73 78.92 15.7067 78.9013 15.66C78.8547 15.3893 78.8313 15.2587 78.8313 15.268C78.7473 14.988 78.598 14.7733 78.3833 14.624C78.178 14.4653 77.9213 14.386 77.6133 14.386Z" fill="white"/>
<g clip-path="url(#clip0_59_63)">
<path d="M18.3683 25.7659V0L24.4911 3.11994V26.8799L18.3684 30L0 22.4242L18.3683 25.7659ZM2.9265 17.5634L1.5307 16.9922L4.97649 12.8199L1.53079 8.64762L2.9265 8.07668L6.31364 11.201L11.939 4.38943L15.3069 6.14309V19.4963L11.9389 21.2499L6.31345 14.4388L2.9265 17.5632V17.5634ZM8.06878 12.8198L11.939 16.3898V9.24984L8.06878 12.8198Z" fill="#F8F8F8"/>
</g>
<path fill-rule="evenodd" clip-rule="evenodd" d="M186.516 19.7852C186.42 19.8955 186.342 20.0286 186.288 20.1765C186.235 20.3243 186.206 20.4839 186.203 20.6458C186.201 20.8076 186.225 20.9684 186.275 21.1185C186.324 21.2686 186.398 21.4049 186.491 21.5194C186.585 21.6338 186.696 21.724 186.819 21.7847C186.941 21.8453 187.072 21.8751 187.205 21.8722C187.337 21.8694 187.467 21.8339 187.588 21.768C187.708 21.7022 187.817 21.6072 187.907 21.4888L192.171 16.2655L192.868 15.4138L192.172 14.562L187.908 9.33876C187.723 9.11908 187.474 8.99744 187.216 9.00004C186.958 9.00264 186.712 9.12926 186.529 9.35264C186.346 9.57602 186.243 9.87828 186.24 10.1943C186.238 10.5104 186.337 10.8149 186.516 11.0423L189.101 14.2084H175.484C175.223 14.2084 174.972 14.3354 174.788 14.5614C174.603 14.7875 174.5 15.0941 174.5 15.4138C174.5 15.7334 174.603 16.04 174.788 16.2661C174.972 16.4921 175.223 16.6191 175.484 16.6191H189.101L186.516 19.7852Z" fill="white"/>
<defs>
<clipPath id="clip0_59_63">
<rect width="24.4911" height="30" fill="white"/>
</clipPath>
</defs>
</svg>
